Unageo-Black.ufo
<glyph name="exclam" format="2">
  <advance width="326"/>
  <unicode hex="0021"/>
  <outline>
    <contour>
      <point x="78" y="700" type="line"/>
      <point x="248" y="700" type="line"/>
      <point x="248" y="251" type="line"/>
      <point x="78" y="251" type="line"/>
    </contour>
    <contour>
      <point x="163" y="190" type="curve" smooth="yes"/>
      <point x="191.667" y="190"/>
      <point x="216" y="180"/>
      <point x="236" y="160" type="curve" smooth="yes"/>
      <point x="256" y="140"/>
      <point x="266" y="115.667"/>
      <point x="266" y="87" type="curve" smooth="yes"/>
      <point x="266" y="58.3333"/>
      <point x="256" y="34"/>
      <point x="236" y="14" type="curve" smooth="yes"/>
      <point x="216" y="-6"/>
      <point x="191.667" y="-16"/>
      <point x="163" y="-16" type="curve" smooth="yes"/>
      <point x="134.333" y="-16"/>
      <point x="110" y="-6"/>
      <point x="90" y="14" type="curve" smooth="yes"/>
      <point x="70" y="34"/>
      <point x="60" y="58.3333"/>
      <point x="60" y="87" type="curve" smooth="yes"/>
      <point x="60" y="115.667"/>
      <point x="70" y="140"/>
      <point x="90" y="160" type="curve" smooth="yes"/>
      <point x="110" y="180"/>
      <point x="134.333" y="190"/>
    </contour>
  </outline>
</glyph>
<glyph name="quotedbl" format="2">
  <advance width="548"/>
  <unicode hex="0022"/>
  <outline>
    <contour>
      <point x="309.5" y="716" type="line"/>
      <point x="503.5" y="716" type="line"/>
      <point x="479.5" y="440" type="line"/>
      <point x="333.5" y="440" type="line"/>
    </contour>
    <contour>
      <point x="75.5" y="716" type="line"/>
      <point x="269.5" y="716" type="line"/>
      <point x="245.5" y="440" type="line"/>
      <point x="99.5" y="440" type="line"/>
    </contour>
  </outline>
</glyph>
<glyph name="numbersign" format="2">
  <advance width="639"/>
  <unicode hex="0023"/>
  <outline>
    <contour>
      <point x="415.35" y="700" type="line"/>
      <point x="587.971" y="700" type="line"/>
      <point x="560.816" y="546" type="line"/>
      <point x="648.148" y="546" type="line"/>
      <point x="618.172" y="376" type="line"/>
      <point x="530.841" y="376" type="line"/>
      <point x="519.909" y="314" type="line"/>
      <point x="627.24" y="314" type="line"/>
      <point x="597.266" y="144" type="line"/>
      <point x="489.934" y="144" type="line"/>
      <point x="464.543" y="0" type="line"/>
      <point x="291.92" y="0" type="line"/>
      <point x="317.312" y="144" type="line"/>
      <point x="254.94" y="144" type="line"/>
      <point x="229.549" y="0" type="line"/>
      <point x="56.9258" y="0" type="line"/>
      <point x="82.3174" y="144" type="line"/>
      <point x="-22.7266" y="144" type="line"/>
      <point x="7.25" y="314" type="line"/>
      <point x="112.293" y="314" type="line"/>
      <point x="123.226" y="376" type="line"/>
      <point x="18.1816" y="376" type="line"/>
      <point x="48.1562" y="546" type="line"/>
      <point x="153.201" y="546" type="line"/>
      <point x="180.355" y="700" type="line"/>
      <point x="352.979" y="700" type="line"/>
      <point x="325.824" y="546" type="line"/>
      <point x="388.195" y="546" type="line"/>
    </contour>
    <contour>
      <point x="358.22" y="376" type="line"/>
      <point x="295.849" y="376" type="line"/>
      <point x="284.916" y="314" type="line"/>
      <point x="347.287" y="314" type="line"/>
    </contour>
  </outline>
</glyph>
<glyph name="dollar" format="2">
  <advance width="560"/>
  <unicode hex="0024"/>
  <outline>
    <contour>
      <point x="189" y="791" type="line"/>
      <point x="359" y="791" type="line"/>
      <point x="359" y="698.719" type="line"/>
      <point x="380.636" y="691.33"/>
      <point x="401.061" y="680.859"/>
      <point x="420.275" y="667.307" type="curve" smooth="yes"/>
      <point x="462.518" y="637.512"/>
      <point x="489.954" y="599.04"/>
      <point x="502.584" y="551.891" type="curve"/>
      <point x="338.15" y="507.826" type="line"/>
      <point x="335.794" y="518.063"/>
      <point x="328.804" y="526.318"/>
      <point x="317.179" y="532.591" type="curve" smooth="yes"/>
      <point x="305.554" y="538.863"/>
      <point x="291.827" y="542"/>
      <point x="276" y="542" type="curve" smooth="yes"/>
      <point x="257.333" y="542"/>
      <point x="241.667" y="538"/>
      <point x="229" y="530" type="curve" smooth="yes"/>
      <point x="216.333" y="522"/>
      <point x="210" y="510.667"/>
      <point x="210" y="496" type="curve" smooth="yes"/>
      <point x="210" y="487.187"/>
      <point x="214.031" y="479.382"/>
      <point x="222.094" y="472.585" type="curve" smooth="yes"/>
      <point x="234.768" y="461.899"/>
      <point x="257.403" y="453.704"/>
      <point x="290" y="448" type="curve" smooth="yes"/>
      <point x="360" y="436"/>
      <point x="417" y="411"/>
      <point x="461" y="373" type="curve" smooth="yes"/>
      <point x="505" y="335"/>
      <point x="527" y="283.667"/>
      <point x="527" y="219" type="curve" smooth="yes"/>
      <point x="527" y="153.667"/>
      <point x="502.5" y="98.833"/>
      <point x="453.5" y="54.5" type="curve" smooth="yes"/>
      <point x="425.354" y="29.0352"/>
      <point x="393.854" y="10.8838"/>
      <point x="359" y="0.0458984" type="curve"/>
      <point x="359" y="-91" type="line"/>
      <point x="189" y="-91" type="line"/>
      <point x="189" y="1.70605" type="line"/>
      <point x="165.252" y="9.65527"/>
      <point x="142.793" y="21.0625"/>
      <point x="121.623" y="35.9287" type="curve" smooth="yes"/>
      <point x="76.1221" y="67.8809"/>
      <point x="46.6436" y="109.004"/>
      <point x="33.1875" y="159.297" type="curve"/>
      <point x="197.078" y="203.213" type="line"/>
      <point x="200.612" y="190.02"/>
      <point x="209.896" y="179.186"/>
      <point x="224.927" y="170.71" type="curve" smooth="yes"/>
      <point x="239.959" y="162.235"/>
      <point x="256.983" y="157.998"/>
      <point x="276" y="157.998" type="curve" smooth="yes"/>
      <point x="298.786" y="157.998"/>
      <point x="317.983" y="163.492"/>
      <point x="333.591" y="174.481" type="curve" smooth="yes"/>
      <point x="349.198" y="185.471"/>
      <point x="357.002" y="200.31"/>
      <point x="357.002" y="219" type="curve" smooth="yes"/>
      <point x="357.002" y="232.965"/>
      <point x="351.032" y="244.951"/>
      <point x="339.094" y="254.958" type="curve" smooth="yes"/>
      <point x="323.534" y="268"/>
      <point x="297.837" y="277.681"/>
      <point x="262" y="284" type="curve" smooth="yes"/>
      <point x="197.333" y="295.333"/>
      <point x="144.167" y="318.5"/>
      <point x="102.5" y="353.5" type="curve" smooth="yes"/>
      <point x="60.833" y="388.5"/>
      <point x="40" y="436"/>
      <point x="40" y="496" type="curve" smooth="yes"/>
      <point x="40" y="557.333"/>
      <point x="63" y="608.667"/>
      <point x="109" y="650" type="curve" smooth="yes"/>
      <point x="133.029" y="671.591"/>
      <point x="159.695" y="687.543"/>
      <point x="189" y="697.855" type="curve"/>
    </contour>
  </outline>
</glyph>
<glyph name="ampersand" format="2">
  <advance width="635"/>
  <unicode hex="0026"/>
  <outline>
    <contour>
      <point x="240" y="-12" type="curve" smooth="yes"/>
      <point x="180.876" y="-12.0117"/>
      <point x="131.511" y="5.90332"/>
      <point x="91.9043" y="41.7441" type="curve" smooth="yes"/>
      <point x="52.2979" y="77.585"/>
      <point x="32.7002" y="123.622"/>
      <point x="33.1104" y="179.855" type="curve" smooth="yes"/>
      <point x="33.3809" y="217.009"/>
      <point x="41.665" y="253.985"/>
      <point x="57.9629" y="290.786" type="curve" smooth="yes"/>
      <point x="74.2607" y="327.587"/>
      <point x="97.1592" y="356.315"/>
      <point x="126.66" y="376.972" type="curve" smooth="yes"/>
      <point x="155.806" y="397.38"/>
      <point x="194.502" y="420.501"/>
      <point x="242.749" y="446.336" type="curve" smooth="yes"/>
      <point x="265.763" y="458.659"/>
      <point x="284.013" y="468.714"/>
      <point x="297.5" y="476.5" type="curve" smooth="yes"/>
      <point x="313.167" y="485.545"/>
      <point x="321" y="496.2"/>
      <point x="321" y="508.465" type="curve" smooth="yes"/>
      <point x="321" y="517.18"/>
      <point x="317.758" y="524.876"/>
      <point x="311.272" y="531.555" type="curve" smooth="yes"/>
      <point x="304.788" y="538.233"/>
      <point x="295.656" y="541.572"/>
      <point x="283.876" y="541.572" type="curve" smooth="yes"/>
      <point x="271.957" y="541.572"/>
      <point x="262.697" y="538.363"/>
      <point x="256.099" y="531.946" type="curve" smooth="yes"/>
      <point x="249.499" y="525.528"/>
      <point x="246.199" y="517.866"/>
      <point x="246.199" y="508.959" type="curve" smooth="yes"/>
      <point x="246.199" y="494.362"/>
      <point x="254.466" y="477.042"/>
      <point x="271" y="457" type="curve" smooth="yes"/>
      <point x="648" y="0" type="line"/>
      <point x="428" y="0" type="line"/>
      <point x="140" y="360" type="line" smooth="yes"/>
      <point x="95.1514" y="416.061"/>
      <point x="73.3809" y="473.208"/>
      <point x="74.6875" y="531.442" type="curve" smooth="yes"/>
      <point x="75.8662" y="583.929"/>
      <point x="96.4727" y="627.101"/>
      <point x="136.508" y="660.958" type="curve" smooth="yes"/>
      <point x="176.544" y="694.815"/>
      <point x="224.935" y="711.829"/>
      <point x="281.681" y="712" type="curve" smooth="yes"/>
      <point x="340.335" y="712.177"/>
      <point x="389.879" y="694.86"/>
      <point x="430.313" y="660.051" type="curve" smooth="yes"/>
      <point x="470.748" y="625.242"/>
      <point x="490.977" y="579.559"/>
      <point x="491" y="523" type="curve" smooth="yes"/>
      <point x="491.015" y="488.629"/>
      <point x="485.281" y="457.632"/>
      <point x="473.8" y="430.008" type="curve" smooth="yes"/>
      <point x="462.318" y="402.385"/>
      <point x="439.531" y="374.271"/>
      <point x="405.44" y="345.664" type="curve" smooth="yes"/>
      <point x="382.472" y="326.391"/>
      <point x="356.038" y="310.605"/>
      <point x="326.141" y="298.308" type="curve" smooth="yes"/>
      <point x="289.317" y="283.16"/>
      <point x="256.466" y="263.896"/>
      <point x="227.586" y="240.515" type="curve" smooth="yes"/>
      <point x="212.411" y="228.23"/>
      <point x="203.713" y="216.724"/>
      <point x="201.489" y="205.996" type="curve" smooth="yes"/>
      <point x="199.234" y="195.116"/>
      <point x="199.774" y="185.095"/>
      <point x="203.11" y="175.93" type="curve" smooth="yes"/>
      <point x="205.04" y="170.628"/>
      <point x="208.67" y="166.379"/>
      <point x="214" y="163.183" type="curve" smooth="yes"/>
      <point x="221.916" y="158.436"/>
      <point x="233.583" y="156.012"/>
      <point x="249" y="155.911" type="curve" smooth="yes"/>
      <point x="266.646" y="155.797"/>
      <point x="286.698" y="159.826"/>
      <point x="309.156" y="168" type="curve" smooth="yes"/>
      <point x="345.38" y="181.185"/>
      <point x="379.331" y="198.783"/>
      <point x="411.01" y="220.798" type="curve" smooth="yes"/>
      <point x="442.688" y="242.812"/>
      <point x="465.019" y="268.213"/>
      <point x="478" y="297" type="curve"/>
      <point x="648" y="297" type="line"/>
      <point x="635.118" y="213.271"/>
      <point x="588.717" y="139.671"/>
      <point x="508.796" y="76.1973" type="curve" smooth="yes"/>
      <point x="471.198" y="46.3379"/>
      <point x="428.76" y="24.1758"/>
      <point x="381.48" y="9.71094" type="curve" smooth="yes"/>
      <point x="334.201" y="-4.75391"/>
      <point x="287.041" y="-11.9912"/>
    </contour>
  </outline>
</glyph>
<glyph name="quotesingle" format="2">
  <advance width="314"/>
  <unicode hex="0027"/>
  <outline>
    <contour>
      <point x="60" y="716" type="line"/>
      <point x="254" y="716" type="line"/>
      <point x="230" y="440" type="line"/>
      <point x="84" y="440" type="line"/>
    </contour>
  </outline>
</glyph>
<glyph name="parenleft" format="2">
  <advance width="364"/>
  <unicode hex="0028"/>
  <outline>
    <contour>
      <point x="207.031" y="799.318" type="curve"/>
      <point x="334" y="685.185" type="line"/>
      <point x="294.45" y="638.787"/>
      <point x="264.014" y="586.636"/>
      <point x="242.693" y="528.731" type="curve" smooth="yes"/>
      <point x="221.373" y="470.826"/>
      <point x="210.567" y="411.249"/>
      <point x="210.275" y="350" type="curve" smooth="yes"/>
      <point x="210.49" y="291.885"/>
      <point x="220.2" y="235.159"/>
      <point x="239.406" y="179.822" type="curve" smooth="yes"/>
      <point x="258.613" y="124.486"/>
      <point x="286.163" y="74.1439"/>
      <point x="322.056" y="28.7969" type="curve"/>
      <point x="206.967" y="-99.2324" type="line"/>
      <point x="153.226" y="-36.7318"/>
      <point x="112.018" y="33.1585"/>
      <point x="83.3428" y="110.438" type="curve" smooth="yes"/>
      <point x="54.667" y="187.718"/>
      <point x="40.3112" y="267.572"/>
      <point x="40.2754" y="350" type="curve" smooth="yes"/>
      <point x="40.3099" y="432.447"/>
      <point x="54.6706" y="512.319"/>
      <point x="83.3574" y="589.614" type="curve" smooth="yes"/>
      <point x="112.044" y="666.91"/>
      <point x="153.269" y="736.811"/>
    </contour>
  </outline>
</glyph>
<glyph name="parenright" format="2">
  <advance width="364"/>
  <unicode hex="0029"/>
  <outline>
    <contour>
      <point x="157.244" y="799.318" type="curve"/>
      <point x="211.007" y="736.811"/>
      <point x="252.231" y="666.91"/>
      <point x="280.918" y="589.614" type="curve" smooth="yes"/>
      <point x="309.605" y="512.319"/>
      <point x="323.965" y="432.447"/>
      <point x="324" y="350" type="curve" smooth="yes"/>
      <point x="323.964" y="267.572"/>
      <point x="309.608" y="187.718"/>
      <point x="280.933" y="110.438" type="curve" smooth="yes"/>
      <point x="252.257" y="33.1585"/>
      <point x="211.049" y="-36.7318"/>
      <point x="157.309" y="-99.2324" type="curve"/>
      <point x="157.309" y="-99.2324"/>
      <point x="157.309" y="-99.2324"/>
      <point x="42.2197" y="28.7969" type="curve"/>
      <point x="78.1123" y="74.1439"/>
      <point x="105.662" y="124.486"/>
      <point x="124.869" y="179.822" type="curve" smooth="yes"/>
      <point x="144.076" y="235.159"/>
      <point x="153.786" y="291.885"/>
      <point x="154" y="350" type="curve" smooth="yes"/>
      <point x="153.708" y="411.249"/>
      <point x="142.902" y="470.826"/>
      <point x="121.582" y="528.731" type="curve" smooth="yes"/>
      <point x="100.261" y="586.636"/>
      <point x="69.8255" y="638.787"/>
      <point x="30.2754" y="685.185" type="curve"/>
      <point x="30.2754" y="685.185"/>
      <point x="30.2754" y="685.185"/>
    </contour>
  </outline>
</glyph>
<glyph name="asterisk" format="2">
  <advance width="515"/>
  <unicode hex="002A"/>
  <outline>
    <contour>
      <point x="42.8496" y="498.346" type="line"/>
      <point x="95.3818" y="660.025" type="line"/>
      <point x="283.691" y="598.84" type="line"/>
      <point x="231.158" y="437.16" type="line"/>
    </contour>
    <contour>
      <point x="209.81" y="307.853" type="line"/>
      <point x="72.2773" y="407.776" type="line"/>
      <point x="188.658" y="567.962" type="line"/>
      <point x="326.191" y="468.038" type="line"/>
    </contour>
    <contour>
      <point x="442.572" y="407.776" type="line"/>
      <point x="305.04" y="307.853" type="line"/>
      <point x="188.658" y="468.038" type="line"/>
      <point x="326.191" y="567.962" type="line"/>
    </contour>
    <contour>
      <point x="419.468" y="660.025" type="line"/>
      <point x="472" y="498.346" type="line"/>
      <point x="283.691" y="437.16" type="line"/>
      <point x="231.158" y="598.84" type="line"/>
    </contour>
    <contour>
      <point x="172.425" y="716" type="line"/>
      <point x="342.425" y="716" type="line"/>
      <point x="342.425" y="518" type="line"/>
      <point x="172.425" y="518" type="line"/>
    </contour>
  </outline>
</glyph>
<glyph name="plus" format="2">
  <advance width="620"/>
  <unicode hex="002B"/>
  <outline>
    <contour>
      <point x="225.5" y="523" type="line"/>
      <point x="395.5" y="523" type="line"/>
      <point x="395.5" y="384" type="line"/>
      <point x="535" y="384" type="line"/>
      <point x="535" y="214" type="line"/>
      <point x="395.5" y="214" type="line"/>
      <point x="395.5" y="73" type="line"/>
      <point x="225.5" y="73" type="line"/>
      <point x="225.5" y="214" type="line"/>
      <point x="85" y="214" type="line"/>
      <point x="85" y="384" type="line"/>
      <point x="225.5" y="384" type="line"/>
    </contour>
  </outline>
</glyph>
<glyph name="hyphen" format="2">
  <advance width="460"/>
  <unicode hex="002D"/>
  <outline>
    <contour>
      <point x="50" y="213" type="line"/>
      <point x="50" y="383" type="line"/>
      <point x="410" y="383" type="line"/>
      <point x="410" y="213" type="line"/>
    </contour>
  </outline>
</glyph>
<glyph name="period" format="2">
  <advance width="292"/>
  <unicode hex="002E"/>
  <outline>
    <contour>
      <point x="249" y="88" type="curve" smooth="yes"/>
      <point x="249" y="59.333"/>
      <point x="239" y="35"/>
      <point x="219" y="15" type="curve" smooth="yes"/>
      <point x="199" y="-5"/>
      <point x="174.667" y="-15"/>
      <point x="146" y="-15" type="curve" smooth="yes"/>
      <point x="117.333" y="-15"/>
      <point x="93" y="-5"/>
      <point x="73" y="15" type="curve" smooth="yes"/>
      <point x="53" y="35"/>
      <point x="43" y="59.333"/>
      <point x="43" y="88" type="curve" smooth="yes"/>
      <point x="43" y="116.667"/>
      <point x="53" y="141"/>
      <point x="73" y="161" type="curve" smooth="yes"/>
      <point x="93" y="181"/>
      <point x="117.333" y="191"/>
      <point x="146" y="191" type="curve" smooth="yes"/>
      <point x="174.667" y="191"/>
      <point x="199" y="181"/>
      <point x="219" y="161" type="curve" smooth="yes"/>
      <point x="239" y="141"/>
      <point x="249" y="116.667"/>
    </contour>
  </outline>
</glyph>
<glyph name="slash" format="2">
  <advance width="455"/>
  <unicode hex="002F"/>
  <outline>
    <contour>
      <point x="275.551" y="747" type="line"/>
      <point x="437" y="693.762" type="line"/>
      <point x="179.256" y="-87.8613" type="line"/>
      <point x="17.8086" y="-34.6211" type="line"/>
    </contour>
  </outline>
</glyph>
<glyph name="zero" format="2">
  <advance width="644"/>
  <unicode hex="0030"/>
  <outline>
    <contour>
      <point x="322" y="542.484" type="curve" smooth="yes"/>
      <point x="298.555" y="542.484"/>
      <point x="278.415" y="537.186"/>
      <point x="261.582" y="526.587" type="curve" smooth="yes"/>
      <point x="244.748" y="515.988"/>
      <point x="231.848" y="501.271"/>
      <point x="222.881" y="482.434" type="curve" smooth="yes"/>
      <point x="213.914" y="463.596"/>
      <point x="207.445" y="443.36"/>
      <point x="203.474" y="421.729" type="curve" smooth="yes"/>
      <point x="199.502" y="400.097"/>
      <point x="197.516" y="376.187"/>
      <point x="197.516" y="350" type="curve" smooth="yes"/>
      <point x="197.516" y="323.813"/>
      <point x="199.502" y="299.903"/>
      <point x="203.474" y="278.271" type="curve" smooth="yes"/>
      <point x="207.445" y="256.64"/>
      <point x="213.914" y="236.404"/>
      <point x="222.881" y="217.566" type="curve" smooth="yes"/>
      <point x="231.848" y="198.729"/>
      <point x="244.748" y="184.012"/>
      <point x="261.582" y="173.413" type="curve" smooth="yes"/>
      <point x="278.415" y="162.814"/>
      <point x="298.555" y="157.516"/>
      <point x="322" y="157.516" type="curve" smooth="yes"/>
      <point x="345.445" y="157.516"/>
      <point x="365.585" y="162.814"/>
      <point x="382.418" y="173.413" type="curve" smooth="yes"/>
      <point x="399.252" y="184.012"/>
      <point x="412.152" y="198.729"/>
      <point x="421.119" y="217.566" type="curve" smooth="yes"/>
      <point x="430.086" y="236.404"/>
      <point x="436.555" y="256.64"/>
      <point x="440.526" y="278.271" type="curve" smooth="yes"/>
      <point x="444.498" y="299.903"/>
      <point x="446.484" y="323.813"/>
      <point x="446.484" y="350" type="curve" smooth="yes"/>
      <point x="446.484" y="376.187"/>
      <point x="444.499" y="400.097"/>
      <point x="440.527" y="421.729" type="curve" smooth="yes"/>
      <point x="436.556" y="443.36"/>
      <point x="430.086" y="463.596"/>
      <point x="421.119" y="482.434" type="curve" smooth="yes"/>
      <point x="412.153" y="501.271"/>
      <point x="399.253" y="515.989"/>
      <point x="382.419" y="526.587" type="curve" smooth="yes"/>
      <point x="365.585" y="537.186"/>
      <point x="345.445" y="542.484"/>
    </contour>
    <contour>
      <point x="322" y="712" type="curve" smooth="yes"/>
      <point x="368.043" y="712"/>
      <point x="409.944" y="702.089"/>
      <point x="447.703" y="682.267" type="curve" smooth="yes"/>
      <point x="518.753" y="644.969"/>
      <point x="568.322" y="579.815"/>
      <point x="596.411" y="486.809" type="curve" smooth="yes"/>
      <point x="609.471" y="443.568"/>
      <point x="616" y="397.966"/>
      <point x="616" y="350" type="curve" smooth="yes"/>
      <point x="616" y="302.034"/>
      <point x="609.471" y="256.432"/>
      <point x="596.411" y="213.191" type="curve" smooth="yes"/>
      <point x="568.322" y="120.185"/>
      <point x="518.753" y="55.0312"/>
      <point x="447.703" y="17.7334" type="curve" smooth="yes"/>
      <point x="409.944" y="-2.08887"/>
      <point x="368.043" y="-12"/>
      <point x="322" y="-12" type="curve" smooth="yes"/>
      <point x="275.957" y="-12"/>
      <point x="234.056" y="-2.08887"/>
      <point x="196.297" y="17.7334" type="curve" smooth="yes"/>
      <point x="125.247" y="55.0312"/>
      <point x="75.6777" y="120.185"/>
      <point x="47.5889" y="213.191" type="curve" smooth="yes"/>
      <point x="34.5293" y="256.432"/>
      <point x="28" y="302.034"/>
      <point x="28" y="350" type="curve" smooth="yes"/>
      <point x="28" y="397.966"/>
      <point x="34.5293" y="443.568"/>
      <point x="47.5889" y="486.809" type="curve" smooth="yes"/>
      <point x="75.6777" y="579.815"/>
      <point x="125.247" y="644.969"/>
      <point x="196.297" y="682.267" type="curve" smooth="yes"/>
      <point x="234.056" y="702.089"/>
      <point x="275.957" y="712"/>
    </contour>
  </outline>
</glyph>
<glyph name="one" format="2">
  <advance width="490"/>
  <unicode hex="0031"/>
  <outline>
    <contour>
      <point x="237" y="700" type="line"/>
      <point x="407" y="700" type="line"/>
      <point x="407" y="0" type="line"/>
      <point x="237" y="0" type="line"/>
      <point x="237" y="478.081" type="line"/>
      <point x="147.103" y="402.647" type="line"/>
      <point x="37.8281" y="532.875" type="line"/>
    </contour>
  </outline>
</glyph>
<glyph name="two" format="2">
  <advance width="530"/>
  <unicode hex="0032"/>
  <outline>
    <contour>
      <point x="254.7" y="713" type="curve" smooth="yes"/>
      <point x="319.313" y="713"/>
      <point x="375.851" y="690.237"/>
      <point x="424.311" y="644.711" type="curve" smooth="yes"/>
      <point x="472.771" y="599.186"/>
      <point x="497" y="544.782"/>
      <point x="497" y="481.5" type="curve" smooth="yes"/>
      <point x="496.771" y="412.108"/>
      <point x="474.777" y="356.407"/>
      <point x="431.022" y="314.395" type="curve" smooth="yes"/>
      <point x="273.644" y="170" type="line"/>
      <point x="495.2" y="170" type="line"/>
      <point x="495.2" y="0" type="line"/>
      <point x="23.2002" y="0" type="line"/>
      <point x="23.2002" y="170" type="line"/>
      <point x="301.909" y="426.281" type="line" smooth="yes"/>
      <point x="318.632" y="443.004"/>
      <point x="326.993" y="461.41"/>
      <point x="326.993" y="481.5" type="curve" smooth="yes"/>
      <point x="326.993" y="500.373"/>
      <point x="320.302" y="515.357"/>
      <point x="306.918" y="526.453" type="curve" smooth="yes"/>
      <point x="293.535" y="537.548"/>
      <point x="278.129" y="543.063"/>
      <point x="260.7" y="543" type="curve" smooth="yes"/>
      <point x="243.521" y="542.937"/>
      <point x="228.361" y="537.803"/>
      <point x="215.22" y="527.597" type="curve" smooth="yes"/>
      <point x="202.077" y="517.391"/>
      <point x="194.75" y="503.426"/>
      <point x="193.237" y="485.702" type="curve"/>
      <point x="26.3604" y="518.141" type="line"/>
      <point x="35.3516" y="574.233"/>
      <point x="61.4531" y="620.718"/>
      <point x="104.667" y="657.595" type="curve" smooth="yes"/>
      <point x="147.88" y="694.472"/>
      <point x="197.891" y="712.94"/>
    </contour>
  </outline>
</glyph>
<glyph name="four" format="2">
  <advance width="605"/>
  <unicode hex="0034"/>
  <outline>
    <contour>
      <point x="213.049" y="700.439" type="line"/>
      <point x="367.121" y="628.594" type="line"/>
      <point x="197.23" y="278" type="line"/>
      <point x="318" y="278" type="line"/>
      <point x="318" y="465" type="line"/>
      <point x="488" y="465" type="line"/>
      <point x="488" y="278" type="line"/>
      <point x="575" y="278" type="line"/>
      <point x="575" y="108" type="line"/>
      <point x="488" y="108" type="line"/>
      <point x="488" y="0" type="line"/>
      <point x="318" y="0" type="line"/>
      <point x="318" y="108" type="line"/>
      <point x="10" y="108" type="line"/>
      <point x="10" y="278" type="line"/>
    </contour>
  </outline>
</glyph>
<glyph name="five" format="2">
  <advance width="541"/>
  <unicode hex="0035"/>
  <outline>
    <contour>
      <point x="79.8164" y="700" type="line"/>
      <point x="469.816" y="700" type="line"/>
      <point x="469.816" y="530" type="line"/>
      <point x="249.816" y="530" type="line"/>
      <point x="249.816" y="460" type="line"/>
      <point x="276" y="460" type="line" smooth="yes"/>
      <point x="340.667" y="460"/>
      <point x="396" y="436.833"/>
      <point x="442" y="390.5" type="curve" smooth="yes"/>
      <point x="488" y="344.167"/>
      <point x="511" y="288.333"/>
      <point x="511" y="223" type="curve" smooth="yes"/>
      <point x="511" y="158.333"/>
      <point x="488" y="103"/>
      <point x="442" y="57" type="curve" smooth="yes"/>
      <point x="396" y="11"/>
      <point x="340.667" y="-12"/>
      <point x="276" y="-12" type="curve" smooth="yes"/>
      <point x="214.24" y="-11.9421"/>
      <point x="161.362" y="3.82812"/>
      <point x="117.365" y="35.3105" type="curve" smooth="yes"/>
      <point x="73.3685" y="66.793"/>
      <point x="44.1855" y="108.363"/>
      <point x="29.8164" y="160.021" type="curve"/>
      <point x="197.233" y="189.541" type="line"/>
      <point x="209.296" y="168.514"/>
      <point x="234.218" y="158"/>
      <point x="272" y="158" type="curve" smooth="yes"/>
      <point x="292.667" y="158"/>
      <point x="309.333" y="164.167"/>
      <point x="322" y="176.5" type="curve" smooth="yes"/>
      <point x="334.667" y="188.833"/>
      <point x="341" y="204.333"/>
      <point x="341" y="223" type="curve" smooth="yes"/>
      <point x="341" y="241"/>
      <point x="334.667" y="256.667"/>
      <point x="322" y="270" type="curve" smooth="yes"/>
      <point x="309.333" y="283.333"/>
      <point x="294" y="290"/>
      <point x="276" y="290" type="curve" smooth="yes"/>
      <point x="79.8164" y="290" type="line"/>
    </contour>
  </outline>
</glyph>
<glyph name="six" format="2">
  <advance width="555"/>
  <unicode hex="0036"/>
  <outline>
    <contour>
      <point x="277.5" y="306.994" type="curve" smooth="yes"/>
      <point x="256.511" y="306.994"/>
      <point x="238.847" y="299.825"/>
      <point x="224.508" y="285.488" type="curve" smooth="yes"/>
      <point x="210.169" y="271.151"/>
      <point x="203" y="253.489"/>
      <point x="203" y="232.5" type="curve" smooth="yes"/>
      <point x="203" y="211.511"/>
      <point x="210.169" y="193.847"/>
      <point x="224.508" y="179.508" type="curve" smooth="yes"/>
      <point x="238.847" y="165.169"/>
      <point x="256.511" y="158"/>
      <point x="277.5" y="158" type="curve" smooth="yes"/>
      <point x="298.489" y="158"/>
      <point x="316.153" y="165.169"/>
      <point x="330.492" y="179.508" type="curve" smooth="yes"/>
      <point x="344.831" y="193.847"/>
      <point x="352" y="211.511"/>
      <point x="352" y="232.5" type="curve" smooth="yes"/>
      <point x="352" y="253.489"/>
      <point x="344.831" y="271.151"/>
      <point x="330.492" y="285.488" type="curve" smooth="yes"/>
      <point x="316.153" y="299.825"/>
      <point x="298.489" y="306.994"/>
    </contour>
    <contour>
      <point x="272.018" y="712" type="line"/>
      <point x="467.848" y="712" type="line"/>
      <point x="324.691" y="464.438" type="line"/>
      <point x="333.167" y="463.205"/>
      <point x="341.437" y="461.564"/>
      <point x="349.5" y="459.515" type="curve" smooth="yes"/>
      <point x="394.446" y="448.09"/>
      <point x="432.991" y="423.978"/>
      <point x="465.133" y="387.176" type="curve" smooth="yes"/>
      <point x="503.04" y="343.771"/>
      <point x="521.996" y="292.213"/>
      <point x="522" y="232.5" type="curve" smooth="yes"/>
      <point x="522" y="164.983"/>
      <point x="498.129" y="107.354"/>
      <point x="450.388" y="59.6123" type="curve" smooth="yes"/>
      <point x="402.646" y="11.8711"/>
      <point x="345.017" y="-12"/>
      <point x="277.5" y="-12" type="curve" smooth="yes"/>
      <point x="209.983" y="-12"/>
      <point x="152.354" y="11.8711"/>
      <point x="104.612" y="59.6123" type="curve" smooth="yes"/>
      <point x="56.8711" y="107.354"/>
      <point x="33" y="164.983"/>
      <point x="33" y="232.5" type="curve" smooth="yes"/>
      <point x="33.2041" y="275.798"/>
      <point x="44.1396" y="316.191"/>
      <point x="65.8047" y="353.68" type="curve" smooth="yes"/>
    </contour>
  </outline>
</glyph>
<glyph name="seven" format="2">
  <advance width="573"/>
  <unicode hex="0037"/>
  <outline>
    <contour>
      <point x="25" y="530" type="line"/>
      <point x="25" y="700" type="line"/>
      <point x="543" y="700" type="line"/>
      <point x="543" y="530" type="line"/>
      <point x="295.857" y="0" type="line"/>
      <point x="108.283" y="0" type="line"/>
      <point x="355.426" y="530" type="line"/>
    </contour>
  </outline>
</glyph>
<glyph name="eight" format="2">
  <advance width="564"/>
  <unicode hex="0038"/>
  <outline>
    <contour>
      <point x="282" y="281.521" type="curve" smooth="yes"/>
      <point x="259.823" y="281.521"/>
      <point x="240.591" y="275.462"/>
      <point x="224.304" y="263.345" type="curve" smooth="yes"/>
      <point x="208.017" y="251.227"/>
      <point x="199.873" y="235.536"/>
      <point x="199.873" y="216.273" type="curve" smooth="yes"/>
      <point x="199.873" y="197.066"/>
      <point x="207.992" y="181.552"/>
      <point x="224.229" y="169.731" type="curve" smooth="yes"/>
      <point x="240.468" y="157.91"/>
      <point x="259.725" y="152"/>
      <point x="282" y="152" type="curve" smooth="yes"/>
      <point x="304.275" y="152"/>
      <point x="323.532" y="157.91"/>
      <point x="339.771" y="169.731" type="curve" smooth="yes"/>
      <point x="356.008" y="181.552"/>
      <point x="364.127" y="197.066"/>
      <point x="364.127" y="216.273" type="curve" smooth="yes"/>
      <point x="364.127" y="235.536"/>
      <point x="355.983" y="251.227"/>
      <point x="339.696" y="263.345" type="curve" smooth="yes"/>
      <point x="323.409" y="275.462"/>
      <point x="304.177" y="281.521"/>
    </contour>
    <contour>
      <point x="282" y="546" type="curve" smooth="yes"/>
      <point x="265.415" y="546"/>
      <point x="251.371" y="541.743"/>
      <point x="239.866" y="533.23" type="curve" smooth="yes"/>
      <point x="228.362" y="524.718"/>
      <point x="222.61" y="513.286"/>
      <point x="222.61" y="498.936" type="curve" smooth="yes"/>
      <point x="222.61" y="484.564"/>
      <point x="228.371" y="473.068"/>
      <point x="239.894" y="464.449" type="curve" smooth="yes"/>
      <point x="251.416" y="455.83"/>
      <point x="265.452" y="451.521"/>
      <point x="282" y="451.521" type="curve" smooth="yes"/>
      <point x="298.541" y="451.521"/>
      <point x="312.558" y="455.829"/>
      <point x="324.051" y="464.445" type="curve" smooth="yes"/>
      <point x="335.544" y="473.062"/>
      <point x="341.291" y="484.559"/>
      <point x="341.291" y="498.936" type="curve" smooth="yes"/>
      <point x="341.291" y="513.291"/>
      <point x="335.553" y="524.724"/>
      <point x="324.078" y="533.234" type="curve" smooth="yes"/>
      <point x="312.603" y="541.745"/>
      <point x="298.577" y="546"/>
    </contour>
    <contour>
      <point x="282" y="712" type="curve" smooth="yes"/>
      <point x="348.291" y="712"/>
      <point x="403.078" y="694.216"/>
      <point x="446.36" y="658.649" type="curve" smooth="yes"/>
      <point x="489.644" y="623.082"/>
      <point x="511.285" y="576.813"/>
      <point x="511.285" y="519.843" type="curve" smooth="yes"/>
      <point x="511.285" y="462.873"/>
      <point x="489.644" y="416.605"/>
      <point x="446.36" y="381.037" type="curve" smooth="yes"/>
      <point x="444.446" y="379.464"/>
      <point x="442.509" y="377.926"/>
      <point x="440.55" y="376.422" type="curve"/>
      <point x="448.14" y="371.385"/>
      <point x="455.456" y="365.911"/>
      <point x="462.5" y="360" type="curve" smooth="yes"/>
      <point x="510.167" y="320"/>
      <point x="534" y="268"/>
      <point x="534" y="204" type="curve" smooth="yes"/>
      <point x="534" y="140"/>
      <point x="510.167" y="88"/>
      <point x="462.5" y="48" type="curve" smooth="yes"/>
      <point x="414.833" y="8"/>
      <point x="354.667" y="-12"/>
      <point x="282" y="-12" type="curve" smooth="yes"/>
      <point x="209.333" y="-12"/>
      <point x="149.167" y="8"/>
      <point x="101.5" y="48" type="curve" smooth="yes"/>
      <point x="53.8333" y="88"/>
      <point x="30" y="140"/>
      <point x="30" y="204" type="curve" smooth="yes"/>
      <point x="30" y="268"/>
      <point x="53.8333" y="320"/>
      <point x="101.5" y="360" type="curve" smooth="yes"/>
      <point x="108.544" y="365.911"/>
      <point x="115.86" y="371.385"/>
      <point x="123.45" y="376.422" type="curve"/>
      <point x="121.491" y="377.926"/>
      <point x="119.554" y="379.464"/>
      <point x="117.64" y="381.037" type="curve" smooth="yes"/>
      <point x="74.3564" y="416.605"/>
      <point x="52.7148" y="462.873"/>
      <point x="52.7148" y="519.843" type="curve" smooth="yes"/>
      <point x="52.7148" y="576.813"/>
      <point x="74.3564" y="623.082"/>
      <point x="117.64" y="658.649" type="curve" smooth="yes"/>
      <point x="160.922" y="694.216"/>
      <point x="215.709" y="712"/>
    </contour>
  </outline>
</glyph>
<glyph name="nine" format="2">
  <advance width="555"/>
  <unicode hex="0039"/>
  <outline>
    <contour>
      <point x="277.496" y="393.006" type="curve" smooth="yes"/>
      <point x="298.485" y="393.006"/>
      <point x="316.149" y="400.175"/>
      <point x="330.488" y="414.512" type="curve" smooth="yes"/>
      <point x="344.827" y="428.849"/>
      <point x="351.996" y="446.511"/>
      <point x="351.996" y="467.5" type="curve" smooth="yes"/>
      <point x="351.996" y="488.489"/>
      <point x="344.827" y="506.153"/>
      <point x="330.488" y="520.492" type="curve" smooth="yes"/>
      <point x="316.149" y="534.831"/>
      <point x="298.485" y="542"/>
      <point x="277.496" y="542" type="curve" smooth="yes"/>
      <point x="256.507" y="542"/>
      <point x="238.843" y="534.831"/>
      <point x="224.504" y="520.492" type="curve" smooth="yes"/>
      <point x="210.165" y="506.153"/>
      <point x="202.996" y="488.489"/>
      <point x="202.996" y="467.5" type="curve" smooth="yes"/>
      <point x="202.996" y="446.511"/>
      <point x="210.165" y="428.849"/>
      <point x="224.504" y="414.512" type="curve" smooth="yes"/>
      <point x="238.843" y="400.175"/>
      <point x="256.507" y="393.006"/>
    </contour>
    <contour>
      <point x="272.979" y="0" type="line"/>
      <point x="77.1484" y="0" type="line"/>
      <point x="230.305" y="235.562" type="line"/>
      <point x="221.766" y="236.521"/>
      <point x="213.496" y="238.162"/>
      <point x="205.496" y="240.485" type="curve" smooth="yes"/>
      <point x="160.829" y="252.162"/>
      <point x="122.285" y="276.274"/>
      <point x="89.8633" y="312.824" type="curve" smooth="yes"/>
      <point x="52.2852" y="356.274"/>
      <point x="33.3291" y="407.833"/>
      <point x="32.9961" y="467.5" type="curve" smooth="yes"/>
      <point x="32.6631" y="535.167"/>
      <point x="56.5332" y="592.796"/>
      <point x="104.608" y="640.388" type="curve" smooth="yes"/>
      <point x="152.533" y="688.129"/>
      <point x="210.163" y="712"/>
      <point x="277.496" y="712" type="curve" smooth="yes"/>
      <point x="344.829" y="712"/>
      <point x="402.459" y="688.129"/>
      <point x="450.384" y="640.388" type="curve" smooth="yes"/>
      <point x="498.459" y="592.796"/>
      <point x="522.329" y="535.167"/>
      <point x="521.996" y="467.5" type="curve" smooth="yes"/>
      <point x="521.663" y="424.5"/>
      <point x="510.728" y="384.106"/>
      <point x="489.191" y="346.32" type="curve" smooth="yes"/>
    </contour>
  </outline>
</glyph>
<glyph name="colon" format="2">
  <advance width="352"/>
  <unicode hex="003A"/>
  <outline>
    <contour>
      <point x="176" y="294" type="curve" smooth="yes"/>
      <point x="148" y="294"/>
      <point x="123.833" y="304.167"/>
      <point x="103.5" y="324.5" type="curve" smooth="yes"/>
      <point x="83.167" y="344.833"/>
      <point x="73" y="369"/>
      <point x="73" y="397" type="curve" smooth="yes"/>
      <point x="73" y="425"/>
      <point x="83.167" y="449.167"/>
      <point x="103.5" y="469.5" type="curve" smooth="yes"/>
      <point x="123.833" y="489.833"/>
      <point x="148" y="500"/>
      <point x="176" y="500" type="curve" smooth="yes"/>
      <point x="204" y="500"/>
      <point x="228.167" y="489.833"/>
      <point x="248.5" y="469.5" type="curve" smooth="yes"/>
      <point x="268.833" y="449.167"/>
      <point x="279" y="425"/>
      <point x="279" y="397" type="curve" smooth="yes"/>
      <point x="279" y="369"/>
      <point x="268.833" y="344.833"/>
      <point x="248.5" y="324.5" type="curve" smooth="yes"/>
      <point x="228.167" y="304.167"/>
      <point x="204" y="294"/>
    </contour>
    <contour>
      <point x="176" y="-1" type="curve" smooth="yes"/>
      <point x="148" y="-1"/>
      <point x="123.833" y="9.16699"/>
      <point x="103.5" y="29.5" type="curve" smooth="yes"/>
      <point x="83.167" y="49.833"/>
      <point x="73" y="74"/>
      <point x="73" y="102" type="curve" smooth="yes"/>
      <point x="73" y="130"/>
      <point x="83.167" y="154.167"/>
      <point x="103.5" y="174.5" type="curve" smooth="yes"/>
      <point x="123.833" y="194.833"/>
      <point x="148" y="205"/>
      <point x="176" y="205" type="curve" smooth="yes"/>
      <point x="204" y="205"/>
      <point x="228.167" y="194.833"/>
      <point x="248.5" y="174.5" type="curve" smooth="yes"/>
      <point x="268.833" y="154.167"/>
      <point x="279" y="130"/>
      <point x="279" y="102" type="curve" smooth="yes"/>
      <point x="279" y="74"/>
      <point x="268.833" y="49.833"/>
      <point x="248.5" y="29.5" type="curve" smooth="yes"/>
      <point x="228.167" y="9.16699"/>
      <point x="204" y="-1"/>
    </contour>
  </outline>
</glyph>
<glyph name="semicolon" format="2">
  <advance width="359"/>
  <unicode hex="003B"/>
  <outline>
    <contour>
      <point x="97" y="146" type="curve"/>
      <point x="277" y="146" type="line"/>
      <point x="277" y="44"/>
      <point x="241.667" y="-42.333"/>
      <point x="171" y="-113" type="curve"/>
      <point x="31" y="-113" type="line"/>
      <point x="75" y="-31.2861"/>
      <point x="97" y="55.0479"/>
    </contour>
    <contour>
      <point x="183" y="290" type="curve" smooth="yes"/>
      <point x="155" y="290"/>
      <point x="130.833" y="300.167"/>
      <point x="110.5" y="320.5" type="curve" smooth="yes"/>
      <point x="90.167" y="340.833"/>
      <point x="80" y="365"/>
      <point x="80" y="393" type="curve" smooth="yes"/>
      <point x="80" y="421"/>
      <point x="90.167" y="445.167"/>
      <point x="110.5" y="465.5" type="curve" smooth="yes"/>
      <point x="130.833" y="485.833"/>
      <point x="155" y="496"/>
      <point x="183" y="496" type="curve" smooth="yes"/>
      <point x="211" y="496"/>
      <point x="235.167" y="485.833"/>
      <point x="255.5" y="465.5" type="curve" smooth="yes"/>
      <point x="275.833" y="445.167"/>
      <point x="286" y="421"/>
      <point x="286" y="393" type="curve" smooth="yes"/>
      <point x="286" y="365"/>
      <point x="275.833" y="340.833"/>
      <point x="255.5" y="320.5" type="curve" smooth="yes"/>
      <point x="235.167" y="300.167"/>
      <point x="211" y="290"/>
    </contour>
  </outline>
</glyph>
<glyph name="less" format="2">
  <advance width="640"/>
  <unicode hex="003C"/>
  <outline>
    <contour>
      <point x="520" y="548.988" type="line"/>
      <point x="520" y="365.898" type="line"/>
      <point x="342.854" y="293.454" type="line"/>
      <point x="520" y="221.01" type="line"/>
      <point x="520" y="37.9199" type="line"/>
      <point x="119" y="201.908" type="line"/>
      <point x="119" y="385" type="line"/>
    </contour>
  </outline>
</glyph>
<glyph name="equal" format="2">
  <advance width="646"/>
  <unicode hex="003D"/>
  <outline>
    <contour>
      <point x="123" y="312.5" type="line"/>
      <point x="123" y="482.5" type="line"/>
      <point x="543" y="482.5" type="line"/>
      <point x="543" y="312.5" type="line"/>
    </contour>
    <contour>
      <point x="123" y="112.5" type="line"/>
      <point x="123" y="282.5" type="line"/>
      <point x="543" y="282.5" type="line"/>
      <point x="543" y="112.5" type="line"/>
    </contour>
  </outline>
</glyph>
<glyph name="greater" format="2">
  <advance width="646"/>
  <unicode hex="003E"/>
  <outline>
    <contour>
      <point x="122" y="548.988" type="line"/>
      <point x="122" y="365.898" type="line"/>
      <point x="299.146" y="293.454" type="line"/>
      <point x="122" y="221.01" type="line"/>
      <point x="122" y="37.9199" type="line"/>
      <point x="523" y="201.908" type="line"/>
      <point x="523" y="385" type="line"/>
    </contour>
  </outline>
</glyph>
<glyph name="question" format="2">
  <advance width="514"/>
  <unicode hex="003F"/>
  <outline>
    <contour>
      <point x="345" y="88" type="curve" smooth="yes"/>
      <point x="345" y="59.333"/>
      <point x="335" y="35"/>
      <point x="315" y="15" type="curve" smooth="yes"/>
      <point x="295" y="-5"/>
      <point x="270.667" y="-15"/>
      <point x="242" y="-15" type="curve" smooth="yes"/>
      <point x="213.333" y="-15"/>
      <point x="189" y="-5"/>
      <point x="169" y="15" type="curve" smooth="yes"/>
      <point x="149" y="35"/>
      <point x="139" y="59.333"/>
      <point x="139" y="88" type="curve" smooth="yes"/>
      <point x="139" y="116.667"/>
      <point x="149" y="141"/>
      <point x="169" y="161" type="curve" smooth="yes"/>
      <point x="189" y="181"/>
      <point x="213.333" y="191"/>
      <point x="242" y="191" type="curve" smooth="yes"/>
      <point x="270.667" y="191"/>
      <point x="295" y="181"/>
      <point x="315" y="161" type="curve" smooth="yes"/>
      <point x="335" y="141"/>
      <point x="345" y="116.667"/>
    </contour>
    <contour>
      <point x="251" y="712" type="curve" smooth="yes"/>
      <point x="315.667" y="712"/>
      <point x="371" y="689"/>
      <point x="417" y="643" type="curve" smooth="yes"/>
      <point x="463" y="597"/>
      <point x="486" y="541.667"/>
      <point x="486" y="477" type="curve" smooth="yes"/>
      <point x="485.965" y="431.671"/>
      <point x="473.72" y="389.889"/>
      <point x="449.264" y="351.653" type="curve" smooth="yes"/>
      <point x="424.808" y="313.419"/>
      <point x="391.99" y="284.345"/>
      <point x="350.812" y="264.432" type="curve" smooth="yes"/>
      <point x="339.861" y="259.136"/>
      <point x="331.877" y="251.659"/>
      <point x="326.86" y="242" type="curve" smooth="yes"/>
      <point x="322.642" y="233.876"/>
      <point x="320.521" y="224.21"/>
      <point x="320.5" y="213" type="curve"/>
      <point x="150.5" y="213" type="line"/>
      <point x="150.528" y="255.421"/>
      <point x="162.232" y="295.587"/>
      <point x="185.612" y="333.499" type="curve" smooth="yes"/>
      <point x="208.992" y="371.41"/>
      <point x="239.616" y="399.521"/>
      <point x="277.486" y="417.833" type="curve" smooth="yes"/>
      <point x="289.887" y="423.829"/>
      <point x="299.293" y="431.552"/>
      <point x="305.704" y="441" type="curve" smooth="yes"/>
      <point x="312.521" y="451.048"/>
      <point x="315.954" y="463.048"/>
      <point x="316" y="477" type="curve" smooth="yes"/>
      <point x="316" y="496.333"/>
      <point x="310" y="512"/>
      <point x="298" y="524" type="curve" smooth="yes"/>
      <point x="286" y="536"/>
      <point x="270.333" y="542"/>
      <point x="251" y="542" type="curve" smooth="yes"/>
      <point x="233.673" y="541.931"/>
      <point x="219.063" y="536.509"/>
      <point x="207.172" y="525.734" type="curve" smooth="yes"/>
      <point x="195.28" y="514.961"/>
      <point x="188.4" y="501.012"/>
      <point x="186.531" y="483.888" type="curve"/>
      <point x="18.1855" y="507.549" type="line"/>
      <point x="25.8486" y="566.001"/>
      <point x="51.8291" y="614.678"/>
      <point x="96.126" y="653.578" type="curve" smooth="yes"/>
      <point x="140.423" y="692.479"/>
      <point x="192.048" y="711.952"/>
    </contour>
  </outline>
</glyph>
<glyph name="at" format="2">
  <advance width="979"/>
  <unicode hex="0040"/>
  <outline>
    <contour>
      <point x="489.5" y="713.5" type="curve" smooth="yes"/>
      <point x="550.698" y="713.5"/>
      <point x="609.568" y="701.79"/>
      <point x="666.108" y="678.37" type="curve" smooth="yes"/>
      <point x="722.648" y="654.951"/>
      <point x="772.556" y="621.604"/>
      <point x="815.83" y="578.33" type="curve" smooth="yes"/>
      <point x="859.106" y="535.054"/>
      <point x="892.454" y="485.146"/>
      <point x="915.875" y="428.605" type="curve" smooth="yes"/>
      <point x="939.296" y="372.064"/>
      <point x="951.005" y="313.196"/>
      <point x="951" y="252" type="curve" smooth="yes"/>
      <point x="950.995" y="190.397"/>
      <point x="939.229" y="131.227"/>
      <point x="915.702" y="74.4883" type="curve" smooth="yes"/>
      <point x="892.174" y="17.749"/>
      <point x="858.589" y="-32.1475"/>
      <point x="814.947" y="-75.2012" type="curve" smooth="yes"/>
      <point x="789.46" y="-100.346"/>
      <point x="758.286" y="-112.921"/>
      <point x="721.426" y="-112.926" type="curve" smooth="yes"/>
      <point x="684.168" y="-112.931"/>
      <point x="652.366" y="-99.7598"/>
      <point x="626.02" y="-73.4121" type="curve" smooth="yes"/>
      <point x="599.673" y="-47.0635"/>
      <point x="586.5" y="-15.2598"/>
      <point x="586.5" y="22" type="curve" smooth="yes"/>
      <point x="586.5" y="36.9395" type="line"/>
      <point x="555.62" y="22.9854"/>
      <point x="523.286" y="16.0049"/>
      <point x="489.5" y="16" type="curve" smooth="yes"/>
      <point x="424.333" y="15.9893"/>
      <point x="368.708" y="39.0273"/>
      <point x="322.625" y="85.1133" type="curve" smooth="yes"/>
      <point x="276.542" y="131.199"/>
      <point x="253.5" y="186.828"/>
      <point x="253.5" y="252" type="curve" smooth="yes"/>
      <point x="253.5" y="317.169"/>
      <point x="276.541" y="372.795"/>
      <point x="322.623" y="418.877" type="curve" smooth="yes"/>
      <point x="368.705" y="464.959"/>
      <point x="424.331" y="488"/>
      <point x="489.5" y="488" type="curve" smooth="yes"/>
      <point x="554.669" y="488"/>
      <point x="610.295" y="464.959"/>
      <point x="656.377" y="418.877" type="curve" smooth="yes"/>
      <point x="702.459" y="372.795"/>
      <point x="725.5" y="317.169"/>
      <point x="725.5" y="252" type="curve" smooth="yes"/>
      <point x="725.5" y="22" type="line" smooth="yes"/>
      <point x="725.5" y="19.8203"/>
      <point x="726.012" y="18.1533"/>
      <point x="727.036" y="17" type="curve" smooth="yes"/>
      <point x="728.189" y="15.7002"/>
      <point x="729.993" y="15.0508"/>
      <point x="732.447" y="15.0527" type="curve" smooth="yes"/>
      <point x="734.427" y="15.0537"/>
      <point x="736.089" y="15.7617"/>
      <point x="737.432" y="17.1758" type="curve" smooth="yes"/>
      <point x="799.796" y="82.8584"/>
      <point x="830.985" y="161.134"/>
      <point x="831" y="252" type="curve" smooth="yes"/>
      <point x="831.01" y="313.844"/>
      <point x="815.781" y="370.988"/>
      <point x="785.314" y="423.435" type="curve" smooth="yes"/>
      <point x="769.261" y="451.069"/>
      <point x="750.156" y="475.652"/>
      <point x="728" y="497.185" type="curve" smooth="yes"/>
      <point x="708.107" y="516.517"/>
      <point x="685.755" y="533.389"/>
      <point x="660.941" y="547.802" type="curve" smooth="yes"/>
      <point x="608.493" y="578.268"/>
      <point x="551.347" y="593.5"/>
      <point x="489.5" y="593.5" type="curve" smooth="yes"/>
      <point x="427.655" y="593.5"/>
      <point x="370.51" y="578.267"/>
      <point x="318.064" y="547.801" type="curve" smooth="yes"/>
      <point x="265.62" y="517.335"/>
      <point x="224.165" y="475.88"/>
      <point x="193.699" y="423.436" type="curve" smooth="yes"/>
      <point x="163.233" y="370.99"/>
      <point x="148" y="313.845"/>
      <point x="148" y="252" type="curve" smooth="yes"/>
      <point x="148" y="190.155"/>
      <point x="163.232" y="133.01"/>
      <point x="193.698" y="80.5645" type="curve" smooth="yes"/>
      <point x="208.965" y="54.2832"/>
      <point x="226.992" y="30.7617"/>
      <point x="247.778" y="10" type="curve" smooth="yes"/>
      <point x="268.472" y="-10.6689"/>
      <point x="291.9" y="-28.6035"/>
      <point x="318.065" y="-43.8027" type="curve" smooth="yes"/>
      <point x="370.51" y="-74.2686"/>
      <point x="427.655" y="-89.501"/>
      <point x="489.5" y="-89.5" type="curve" smooth="yes"/>
      <point x="510.679" y="-89.5"/>
      <point x="531.993" y="-87.4521"/>
      <point x="553.445" y="-83.3574" type="curve"/>
      <point x="584.523" y="-199.35" type="line"/>
      <point x="552.657" y="-206.106"/>
      <point x="520.983" y="-209.49"/>
      <point x="489.5" y="-209.5" type="curve" smooth="yes"/>
      <point x="428.312" y="-209.519"/>
      <point x="369.447" y="-197.815"/>
      <point x="312.905" y="-174.391" type="curve" smooth="yes"/>
      <point x="256.363" y="-150.966"/>
      <point x="206.452" y="-117.612"/>
      <point x="163.17" y="-74.3301" type="curve" smooth="yes"/>
      <point x="119.896" y="-31.0557"/>
      <point x="86.5488" y="18.8516"/>
      <point x="63.1299" y="75.3916" type="curve" smooth="yes"/>
      <point x="39.71" y="131.932"/>
      <point x="28" y="190.802"/>
      <point x="28" y="252" type="curve" smooth="yes"/>
      <point x="28" y="313.198"/>
      <point x="39.71" y="372.068"/>
      <point x="63.1299" y="428.608" type="curve" smooth="yes"/>
      <point x="86.5488" y="485.148"/>
      <point x="119.896" y="535.056"/>
      <point x="163.17" y="578.33" type="curve" smooth="yes"/>
      <point x="206.444" y="621.604"/>
      <point x="256.352" y="654.951"/>
      <point x="312.892" y="678.37" type="curve" smooth="yes"/>
      <point x="369.432" y="701.79"/>
      <point x="428.302" y="713.5"/>
    </contour>
    <contour>
      <point x="489.5" y="349" type="curve" smooth="yes"/>
      <point x="462.714" y="349"/>
      <point x="439.852" y="339.529"/>
      <point x="420.911" y="320.589" type="curve" smooth="yes"/>
      <point x="401.971" y="301.648"/>
      <point x="392.5" y="278.786"/>
      <point x="392.5" y="252" type="curve" smooth="yes"/>
      <point x="392.5" y="225.214"/>
      <point x="401.971" y="202.352"/>
      <point x="420.911" y="183.411" type="curve" smooth="yes"/>
      <point x="439.852" y="164.471"/>
      <point x="462.714" y="155"/>
      <point x="489.5" y="155" type="curve" smooth="yes"/>
      <point x="516.286" y="155"/>
      <point x="539.148" y="164.471"/>
      <point x="558.089" y="183.411" type="curve" smooth="yes"/>
      <point x="577.029" y="202.352"/>
      <point x="586.5" y="225.214"/>
      <point x="586.5" y="252" type="curve" smooth="yes"/>
      <point x="586.5" y="278.786"/>
      <point x="577.029" y="301.648"/>
      <point x="558.089" y="320.589" type="curve" smooth="yes"/>
      <point x="539.148" y="339.529"/>
      <point x="516.286" y="349"/>
    </contour>
  </outline>
</glyph>
<glyph name="B" format="2">
  <advance width="618"/>
  <unicode hex="0042"/>
  <outline>
    <contour>
      <point x="233" y="278" type="line"/>
      <point x="233" y="170.108" type="line"/>
      <point x="357.321" y="170.108" type="line" smooth="yes"/>
      <point x="375.553" y="170.108"/>
      <point x="390.602" y="175.053"/>
      <point x="402.468" y="184.941" type="curve" smooth="yes"/>
      <point x="414.334" y="194.83"/>
      <point x="420.267" y="207.867"/>
      <point x="420.267" y="224.054" type="curve" smooth="yes"/>
      <point x="420.267" y="240.24"/>
      <point x="414.334" y="253.278"/>
      <point x="402.468" y="263.167" type="curve" smooth="yes"/>
      <point x="390.602" y="273.056"/>
      <point x="375.553" y="278"/>
      <point x="357.321" y="278" type="curve" smooth="yes"/>
    </contour>
    <contour>
      <point x="233" y="530" type="line"/>
      <point x="233" y="448" type="line"/>
      <point x="318" y="448" type="line" smooth="yes"/>
      <point x="334.667" y="448"/>
      <point x="348" y="451.667"/>
      <point x="358" y="459" type="curve" smooth="yes"/>
      <point x="368" y="466.333"/>
      <point x="373" y="476.333"/>
      <point x="373" y="489" type="curve" smooth="yes"/>
      <point x="373" y="501.667"/>
      <point x="368" y="511.667"/>
      <point x="358" y="519" type="curve" smooth="yes"/>
      <point x="348" y="526.333"/>
      <point x="334.667" y="530"/>
      <point x="318" y="530" type="curve" smooth="yes"/>
    </contour>
    <contour>
      <point x="63" y="700" type="line"/>
      <point x="338" y="700" type="line" smooth="yes"/>
      <point x="394.667" y="700"/>
      <point x="443" y="680"/>
      <point x="483" y="640" type="curve" smooth="yes"/>
      <point x="523" y="600"/>
      <point x="543" y="551.667"/>
      <point x="543" y="495" type="curve" smooth="yes"/>
      <point x="542.867" y="455.541"/>
      <point x="532.229" y="419.152"/>
      <point x="511.082" y="385.836" type="curve"/>
      <point x="536.071" y="365.132"/>
      <point x="555.471" y="340.096"/>
      <point x="569.279" y="310.729" type="curve" smooth="yes"/>
      <point x="583.088" y="281.361"/>
      <point x="589.995" y="250.451"/>
      <point x="590" y="218" type="curve" smooth="yes"/>
      <point x="590" y="158"/>
      <point x="568.667" y="106.667"/>
      <point x="526" y="64" type="curve" smooth="yes"/>
      <point x="483.333" y="21.333"/>
      <point x="432" y="0"/>
      <point x="372" y="0" type="curve" smooth="yes"/>
      <point x="63" y="0" type="line"/>
    </contour>
  </outline>
</glyph>
<glyph name="G" format="2">
  <advance width="764"/>
  <unicode hex="0047"/>
  <outline>
    <contour>
      <point x="387" y="711.5" type="curve" smooth="yes"/>
      <point x="435.065" y="711.5"/>
      <point x="481.296" y="702.291"/>
      <point x="525.692" y="683.873" type="curve" smooth="yes"/>
      <point x="570.089" y="665.456"/>
      <point x="609.264" y="639.238"/>
      <point x="643.217" y="605.217" type="curve"/>
      <point x="522.936" y="484.936" type="line"/>
      <point x="485.452" y="522.602"/>
      <point x="440.14" y="541.456"/>
      <point x="387" y="541.5" type="curve" smooth="yes"/>
      <point x="333.981" y="541.5"/>
      <point x="288.726" y="522.755"/>
      <point x="251.235" y="485.265" type="curve" smooth="yes"/>
      <point x="213.745" y="447.774"/>
      <point x="195" y="402.519"/>
      <point x="195" y="349.5" type="curve" smooth="yes"/>
      <point x="195" y="296.481"/>
      <point x="213.745" y="251.226"/>
      <point x="251.235" y="213.735" type="curve" smooth="yes"/>
      <point x="288.726" y="176.245"/>
      <point x="333.981" y="157.5"/>
      <point x="387" y="157.5" type="curve" smooth="yes"/>
      <point x="439.876" y="157.514"/>
      <point x="485.038" y="176.185"/>
      <point x="522.488" y="213.512" type="curve" smooth="yes"/>
      <point x="537.18" y="228.038"/>
      <point x="549.311" y="245.034"/>
      <point x="558.881" y="264.5" type="curve"/>
      <point x="384" y="264.5" type="line"/>
      <point x="384" y="434.5" type="line"/>
      <point x="749" y="434.5" type="line"/>
      <point x="749" y="349.5" type="line" smooth="yes"/>
      <point x="748.992" y="250.25"/>
      <point x="713.349" y="165.06"/>
      <point x="642.07" y="93.9297" type="curve" smooth="yes"/>
      <point x="608.27" y="60.0221"/>
      <point x="569.278" y="33.8503"/>
      <point x="525.093" y="15.4141" type="curve" smooth="yes"/>
      <point x="480.908" y="-3.02214"/>
      <point x="434.877" y="-12.3268"/>
      <point x="387" y="-12.5" type="curve" smooth="yes"/>
      <point x="285.857" y="-12.5"/>
      <point x="200.024" y="23.0824"/>
      <point x="129.5" y="94.2471" type="curve" smooth="yes"/>
      <point x="59.8333" y="164.546"/>
      <point x="25" y="249.63"/>
      <point x="25" y="349.5" type="curve" smooth="yes"/>
      <point x="25" y="450.643"/>
      <point x="60.5824" y="536.476"/>
      <point x="131.747" y="607" type="curve" smooth="yes"/>
      <point x="202.046" y="676.667"/>
      <point x="287.13" y="711.5"/>
    </contour>
  </outline>
</glyph>
<glyph name="H" format="2">
  <advance width="728"/>
  <unicode hex="0048"/>
  <outline>
    <contour>
      <point x="60" y="0" type="line"/>
      <point x="60" y="701" type="line"/>
      <point x="230" y="701" type="line"/>
      <point x="230" y="441" type="line"/>
      <point x="498" y="441" type="line"/>
      <point x="498" y="700" type="line"/>
      <point x="668" y="700" type="line"/>
      <point x="668" y="0" type="line"/>
      <point x="498" y="0" type="line"/>
      <point x="498" y="271" type="line"/>
      <point x="230" y="271" type="line"/>
      <point x="230" y="0" type="line"/>
    </contour>
  </outline>
</glyph>
<glyph name="M" format="2">
  <advance width="833"/>
  <unicode hex="004D"/>
  <outline>
    <contour>
      <point x="106.691" y="700" type="line"/>
      <point x="295.834" y="700" type="line"/>
      <point x="416.631" y="319.258" type="line"/>
      <point x="537.428" y="700" type="line"/>
      <point x="726.57" y="700" type="line"/>
      <point x="820" y="0" type="line"/>
      <point x="648.49" y="0" type="line"/>
      <point x="602.652" y="343.434" type="line"/>
      <point x="505.818" y="38.2207" type="line"/>
      <point x="327.443" y="38.2207" type="line"/>
      <point x="230.609" y="343.436" type="line"/>
      <point x="184.77" y="0" type="line"/>
      <point x="13.2617" y="0" type="line"/>
    </contour>
  </outline>
</glyph>
<glyph name="N" format="2">
  <advance width="713"/>
  <unicode hex="004E"/>
  <outline>
    <contour>
      <point x="60" y="700" type="line"/>
      <point x="230" y="700" type="line"/>
      <point x="483" y="311" type="line"/>
      <point x="483" y="700" type="line"/>
      <point x="653" y="700" type="line"/>
      <point x="653" y="0" type="line"/>
      <point x="483" y="0" type="line"/>
      <point x="230" y="389" type="line"/>
      <point x="230" y="0" type="line"/>
      <point x="60" y="0" type="line"/>
    </contour>
  </outline>
</glyph>
<glyph name="Q" format="2">
  <advance width="780"/>
  <unicode hex="0051"/>
  <outline>
    <contour>
      <point x="390" y="541.5" type="curve" smooth="yes"/>
      <point x="337.017" y="541.5"/>
      <point x="291.771" y="522.746"/>
      <point x="254.262" y="485.238" type="curve" smooth="yes"/>
      <point x="216.754" y="447.729"/>
      <point x="198" y="402.483"/>
      <point x="198" y="349.5" type="curve" smooth="yes"/>
      <point x="198" y="296.517"/>
      <point x="216.754" y="251.271"/>
      <point x="254.262" y="213.762" type="curve" smooth="yes"/>
      <point x="291.771" y="176.254"/>
      <point x="337.017" y="157.5"/>
      <point x="390" y="157.5" type="curve" smooth="yes"/>
      <point x="412.026" y="157.5"/>
      <point x="432.716" y="160.741"/>
      <point x="452.068" y="167.224" type="curve"/>
      <point x="398.446" y="220.846" type="line"/>
      <point x="518.654" y="341.054" type="line"/>
      <point x="572.276" y="287.432" type="line"/>
      <point x="578.759" y="306.784"/>
      <point x="582" y="327.474"/>
      <point x="582" y="349.5" type="curve" smooth="yes"/>
      <point x="582" y="402.483"/>
      <point x="563.246" y="447.729"/>
      <point x="525.738" y="485.238" type="curve" smooth="yes"/>
      <point x="488.229" y="522.746"/>
      <point x="442.983" y="541.5"/>
    </contour>
    <contour>
      <point x="390" y="711.5" type="curve" smooth="yes"/>
      <point x="488.066" y="711.5"/>
      <point x="572.096" y="677.667"/>
      <point x="642.089" y="610" type="curve" smooth="yes"/>
      <point x="715.363" y="539.161"/>
      <point x="752" y="452.327"/>
      <point x="752" y="349.5" type="curve" smooth="yes"/>
      <point x="752" y="278.663"/>
      <point x="734.632" y="215.435"/>
      <point x="699.895" y="159.813" type="curve"/>
      <point x="752" y="107.708" type="line"/>
      <point x="631.792" y="-12.5" type="line"/>
      <point x="579.478" y="39.8145" type="line"/>
      <point x="523.527" y="4.93848"/>
      <point x="460.368" y="-12.5"/>
      <point x="390" y="-12.5" type="curve" smooth="yes"/>
      <point x="287.173" y="-12.5"/>
      <point x="200.339" y="24.1367"/>
      <point x="129.5" y="97.4111" type="curve" smooth="yes"/>
      <point x="61.833" y="167.404"/>
      <point x="28" y="251.434"/>
      <point x="28" y="349.5" type="curve" smooth="yes"/>
      <point x="28" y="448.909"/>
      <point x="62.6182" y="533.743"/>
      <point x="131.854" y="604" type="curve" smooth="yes"/>
      <point x="202.478" y="675.667"/>
      <point x="288.526" y="711.5"/>
    </contour>
  </outline>
</glyph>
<glyph name="S" format="2">
  <advance width="554"/>
  <unicode hex="0053"/>
  <outline>
    <contour>
      <point x="273.003" y="712" type="curve" smooth="yes"/>
      <point x="326.944" y="712"/>
      <point x="375.036" y="697.102"/>
      <point x="417.278" y="667.307" type="curve" smooth="yes"/>
      <point x="459.521" y="637.512"/>
      <point x="486.957" y="599.04"/>
      <point x="499.587" y="551.891" type="curve"/>
      <point x="335.153" y="507.826" type="line"/>
      <point x="332.797" y="518.063"/>
      <point x="325.807" y="526.318"/>
      <point x="314.182" y="532.591" type="curve" smooth="yes"/>
      <point x="302.557" y="538.864"/>
      <point x="288.83" y="542"/>
      <point x="273.003" y="542" type="curve" smooth="yes"/>
      <point x="254.336" y="542"/>
      <point x="238.67" y="538"/>
      <point x="226.003" y="530" type="curve" smooth="yes"/>
      <point x="213.336" y="522"/>
      <point x="207.003" y="510.667"/>
      <point x="207.003" y="496" type="curve" smooth="yes"/>
      <point x="207.003" y="486.154"/>
      <point x="212.034" y="477.566"/>
      <point x="222.097" y="470.236" type="curve" smooth="yes"/>
      <point x="235.2" y="460.691"/>
      <point x="256.836" y="453.279"/>
      <point x="287.003" y="448" type="curve" smooth="yes"/>
      <point x="357.003" y="436"/>
      <point x="414.003" y="411"/>
      <point x="458.003" y="373" type="curve" smooth="yes"/>
      <point x="502.003" y="335"/>
      <point x="524.003" y="283.667"/>
      <point x="524.003" y="219" type="curve" smooth="yes"/>
      <point x="524.003" y="153.667"/>
      <point x="499.503" y="98.8333"/>
      <point x="450.503" y="54.5" type="curve" smooth="yes"/>
      <point x="401.503" y="10.1667"/>
      <point x="342.336" y="-12"/>
      <point x="273.003" y="-12" type="curve" smooth="yes"/>
      <point x="215.587" y="-12"/>
      <point x="164.128" y="3.97624"/>
      <point x="118.626" y="35.9287" type="curve" smooth="yes"/>
      <point x="73.1247" y="67.8812"/>
      <point x="43.6462" y="109.004"/>
      <point x="30.1904" y="159.297" type="curve"/>
      <point x="194.081" y="203.213" type="line"/>
      <point x="197.616" y="190.02"/>
      <point x="206.898" y="179.185"/>
      <point x="221.93" y="170.71" type="curve" smooth="yes"/>
      <point x="236.962" y="162.235"/>
      <point x="253.986" y="157.998"/>
      <point x="273.003" y="157.998" type="curve" smooth="yes"/>
      <point x="295.789" y="157.998"/>
      <point x="314.986" y="163.493"/>
      <point x="330.594" y="174.481" type="curve" smooth="yes"/>
      <point x="346.201" y="185.47"/>
      <point x="354.005" y="200.31"/>
      <point x="354.005" y="219" type="curve" smooth="yes"/>
      <point x="354.005" y="233.724"/>
      <point x="347.369" y="246.248"/>
      <point x="334.097" y="256.572" type="curve" smooth="yes"/>
      <point x="318.376" y="268.801"/>
      <point x="293.345" y="277.944"/>
      <point x="259.003" y="284" type="curve" smooth="yes"/>
      <point x="194.336" y="295.333"/>
      <point x="141.17" y="318.5"/>
      <point x="99.5029" y="353.5" type="curve" smooth="yes"/>
      <point x="57.8363" y="388.5"/>
      <point x="37.0029" y="436"/>
      <point x="37.0029" y="496" type="curve" smooth="yes"/>
      <point x="37.0029" y="557.333"/>
      <point x="60.0029" y="608.667"/>
      <point x="106.003" y="650" type="curve" smooth="yes"/>
      <point x="152.003" y="691.333"/>
      <point x="207.67" y="712"/>
    </contour>
  </outline>
</glyph>
<glyph name="V" format="2">
  <advance width="695"/>
  <unicode hex="0056"/>
  <outline>
    <contour>
      <point x="10" y="700" type="line"/>
      <point x="190" y="700" type="line"/>
      <point x="348.138" y="253.644" type="line"/>
      <point x="505" y="700" type="line"/>
      <point x="685" y="700" type="line"/>
      <point x="438" y="0" type="line"/>
      <point x="259" y="0" type="line"/>
    </contour>
  </outline>
</glyph>
<glyph name="Y" format="2">
  <advance width="635"/>
  <unicode hex="0059"/>
  <outline>
    <contour>
      <point x="6" y="700" type="line"/>
      <point x="205" y="700" type="line"/>
      <point x="317.5" y="503.759" type="line"/>
      <point x="430" y="700" type="line"/>
      <point x="629" y="700" type="line"/>
      <point x="402.492" y="308.268" type="line"/>
      <point x="402.492" y="0" type="line"/>
      <point x="232.5" y="0" type="line"/>
      <point x="232.5" y="308.281" type="line"/>
    </contour>
  </outline>
</glyph>
<glyph name="Z" format="2">
  <advance width="605"/>
  <unicode hex="005A"/>
  <outline>
    <contour>
      <point x="30" y="0" type="line"/>
      <point x="30" y="170" type="line"/>
      <point x="347" y="530" type="line"/>
      <point x="33" y="530" type="line"/>
      <point x="33" y="700" type="line"/>
      <point x="575" y="700" type="line"/>
      <point x="575" y="530" type="line"/>
      <point x="258" y="170" type="line"/>
      <point x="572" y="170" type="line"/>
      <point x="572" y="0" type="line"/>
    </contour>
  </outline>
</glyph>
<glyph name="bracketleft" format="2">
  <advance width="362"/>
  <unicode hex="005B"/>
  <outline>
    <contour>
      <point x="211" y="799" type="line" smooth="yes"/>
      <point x="169" y="799"/>
      <point x="133.333" y="784.333"/>
      <point x="104" y="755" type="curve" smooth="yes"/>
      <point x="74.6667" y="725.667"/>
      <point x="60" y="690"/>
      <point x="60" y="648" type="curve" smooth="yes"/>
      <point x="60" y="51" type="line" smooth="yes"/>
      <point x="60" y="9"/>
      <point x="74.6667" y="-26.6667"/>
      <point x="104" y="-56" type="curve" smooth="yes"/>
      <point x="133.333" y="-85.3333"/>
      <point x="169" y="-100"/>
      <point x="211" y="-100" type="curve" smooth="yes"/>
      <point x="322" y="-100" type="line"/>
      <point x="322" y="70" type="line"/>
      <point x="231" y="70" type="line" smooth="yes"/>
      <point x="230.333" y="70"/>
      <point x="230" y="70.3333"/>
      <point x="230" y="71" type="curve" smooth="yes"/>
      <point x="230" y="628" type="line" smooth="yes"/>
      <point x="230" y="628.667"/>
      <point x="230.333" y="629"/>
      <point x="231" y="629" type="curve" smooth="yes"/>
      <point x="322" y="629" type="line"/>
      <point x="322" y="799" type="line"/>
    </contour>
  </outline>
</glyph>
<glyph name="backslash" format="2">
  <advance width="449"/>
  <unicode hex="005C"/>
  <outline>
    <contour>
      <point x="176.258" y="747" type="line"/>
      <point x="14.8086" y="693.762" type="line"/>
      <point x="272.553" y="-87.8613" type="line"/>
      <point x="434" y="-34.6211" type="line"/>
    </contour>
  </outline>
</glyph>
<glyph name="bracketright" format="2">
  <advance width="368"/>
  <unicode hex="005D"/>
  <outline>
    <contour>
      <point x="154" y="799" type="line" smooth="yes"/>
      <point x="196" y="799"/>
      <point x="231.667" y="784.333"/>
      <point x="261" y="755" type="curve" smooth="yes"/>
      <point x="290.333" y="725.667"/>
      <point x="305" y="690"/>
      <point x="305" y="648" type="curve" smooth="yes"/>
      <point x="305" y="51" type="line" smooth="yes"/>
      <point x="305" y="9"/>
      <point x="290.333" y="-26.667"/>
      <point x="261" y="-56" type="curve" smooth="yes"/>
      <point x="231.667" y="-85.333"/>
      <point x="196" y="-100"/>
      <point x="154" y="-100" type="curve" smooth="yes"/>
      <point x="43" y="-100" type="line"/>
      <point x="43" y="70" type="line"/>
      <point x="134" y="70" type="line" smooth="yes"/>
      <point x="134.667" y="70"/>
      <point x="135" y="70.333"/>
      <point x="135" y="71" type="curve" smooth="yes"/>
      <point x="135" y="628" type="line" smooth="yes"/>
      <point x="135" y="628.667"/>
      <point x="134.667" y="629"/>
      <point x="134" y="629" type="curve" smooth="yes"/>
      <point x="43" y="629" type="line"/>
      <point x="43" y="799" type="line"/>
    </contour>
  </outline>
</glyph>
<glyph name="asciicircum" format="2">
  <advance width="617"/>
  <unicode hex="005E"/>
  <outline>
    <contour>
      <point x="357" y="373" type="line"/>
      <point x="220" y="700" type="line"/>
      <point x="403" y="700" type="line"/>
      <point x="544" y="373" type="line"/>
    </contour>
    <contour>
      <point x="73" y="373" type="line"/>
      <point x="220" y="700" type="line"/>
      <point x="402" y="700" type="line"/>
      <point x="260" y="373" type="line"/>
    </contour>
  </outline>
</glyph>
<glyph name="underscore" format="2">
  <advance width="460"/>
  <unicode hex="005F"/>
  <outline>
    <contour>
      <point x="20" y="-170" type="line"/>
      <point x="20" y="0" type="line"/>
      <point x="440" y="0" type="line"/>
      <point x="440" y="-170" type="line"/>
    </contour>
  </outline>
</glyph>
<glyph name="grave" format="2">
  <advance width="308"/>
  <unicode hex="0060"/>
  <outline>
    <contour>
      <point x="132" y="554" type="line"/>
      <point x="6" y="701" type="line"/>
      <point x="202" y="701" type="line"/>
      <point x="308" y="554" type="line"/>
    </contour>
  </outline>
</glyph>
<glyph name="a" format="2">
  <advance width="596"/>
  <unicode hex="0061"/>
  <outline>
    <contour>
      <point x="403" y="500" type="line"/>
      <point x="551" y="500" type="line"/>
      <point x="551" y="0" type="line"/>
      <point x="403" y="0" type="line"/>
      <point x="403" y="32.9897" type="line"/>
      <point x="399.436" y="29.9012"/>
      <point x="395.77" y="26.9717"/>
      <point x="392" y="24.2012" type="curve" smooth="yes"/>
      <point x="359.161" y="0.0670572"/>
      <point x="318.494" y="-12"/>
      <point x="270" y="-12" type="curve" smooth="yes"/>
      <point x="198.667" y="-12"/>
      <point x="139.167" y="13.3333"/>
      <point x="91.5" y="64" type="curve" smooth="yes"/>
      <point x="43.8333" y="114.667"/>
      <point x="20" y="176.667"/>
      <point x="20" y="250" type="curve" smooth="yes"/>
      <point x="20" y="323.333"/>
      <point x="43.8333" y="385.333"/>
      <point x="91.5" y="436" type="curve" smooth="yes"/>
      <point x="139.167" y="486.667"/>
      <point x="198.667" y="512"/>
      <point x="270" y="512" type="curve" smooth="yes"/>
      <point x="317.842" y="512"/>
      <point x="358.842" y="498.225"/>
      <point x="393" y="470.676" type="curve" smooth="yes"/>
      <point x="396.401" y="467.933"/>
      <point x="399.734" y="465.054"/>
      <point x="403" y="462.037" type="curve"/>
    </contour>
    <contour>
      <point x="287" y="344" type="curve" smooth="yes"/>
      <point x="261" y="344"/>
      <point x="238.833" y="334.833"/>
      <point x="220.5" y="316.5" type="curve" smooth="yes"/>
      <point x="202.167" y="298.167"/>
      <point x="193" y="276"/>
      <point x="193" y="250" type="curve" smooth="yes"/>
      <point x="193" y="224"/>
      <point x="202.167" y="201.833"/>
      <point x="220.5" y="183.5" type="curve" smooth="yes"/>
      <point x="238.833" y="165.167"/>
      <point x="261" y="156"/>
      <point x="287" y="156" type="curve" smooth="yes"/>
      <point x="313" y="156"/>
      <point x="335.167" y="165.167"/>
      <point x="353.5" y="183.5" type="curve" smooth="yes"/>
      <point x="371.833" y="201.833"/>
      <point x="381" y="224"/>
      <point x="381" y="250" type="curve" smooth="yes"/>
      <point x="381" y="276"/>
      <point x="371.833" y="298.167"/>
      <point x="353.5" y="316.5" type="curve" smooth="yes"/>
      <point x="335.167" y="334.833"/>
      <point x="313" y="344"/>
    </contour>
  </outline>
</glyph>
<glyph name="b" format="2">
  <advance width="602"/>
  <unicode hex="0062"/>
  <outline>
    <contour>
      <point x="312" y="344" type="curve" smooth="yes"/>
      <point x="286" y="344"/>
      <point x="263.833" y="334.833"/>
      <point x="245.5" y="316.5" type="curve" smooth="yes"/>
      <point x="227.167" y="298.167"/>
      <point x="218" y="276"/>
      <point x="218" y="250" type="curve" smooth="yes"/>
      <point x="218" y="224"/>
      <point x="227.167" y="201.833"/>
      <point x="245.5" y="183.5" type="curve" smooth="yes"/>
      <point x="263.833" y="165.167"/>
      <point x="286" y="156"/>
      <point x="312" y="156" type="curve" smooth="yes"/>
      <point x="338" y="156"/>
      <point x="360.167" y="165.167"/>
      <point x="378.5" y="183.5" type="curve" smooth="yes"/>
      <point x="396.833" y="201.833"/>
      <point x="406" y="224"/>
      <point x="406" y="250" type="curve" smooth="yes"/>
      <point x="406" y="276"/>
      <point x="396.833" y="298.167"/>
      <point x="378.5" y="316.5" type="curve" smooth="yes"/>
      <point x="360.167" y="334.833"/>
      <point x="338" y="344"/>
    </contour>
    <contour>
      <point x="329" y="512" type="curve" smooth="yes"/>
      <point x="400.333" y="512"/>
      <point x="459.833" y="486.667"/>
      <point x="507.5" y="436" type="curve" smooth="yes"/>
      <point x="555.167" y="385.333"/>
      <point x="579" y="323.333"/>
      <point x="579" y="250" type="curve" smooth="yes"/>
      <point x="579" y="176.667"/>
      <point x="555.167" y="114.667"/>
      <point x="507.5" y="64" type="curve" smooth="yes"/>
      <point x="459.833" y="13.333"/>
      <point x="400.333" y="-12"/>
      <point x="329" y="-12" type="curve" smooth="yes"/>
      <point x="281.485" y="-12"/>
      <point x="241.485" y="-0.416016"/>
      <point x="209" y="22.7529" type="curve" smooth="yes"/>
      <point x="204.524" y="25.9453"/>
      <point x="200.19" y="29.3574"/>
      <point x="196" y="32.9893" type="curve"/>
      <point x="196" y="0" type="line"/>
      <point x="48" y="0" type="line"/>
      <point x="48" y="700" type="line"/>
      <point x="218" y="700" type="line"/>
      <point x="218" y="479.596" type="line"/>
      <point x="224.132" y="483.783"/>
      <point x="230.465" y="487.564"/>
      <point x="237" y="490.94" type="curve" smooth="yes"/>
      <point x="264.18" y="504.98"/>
      <point x="294.847" y="512"/>
    </contour>
  </outline>
</glyph>
<glyph name="f" format="2">
  <advance width="399"/>
  <unicode hex="0066"/>
  <outline>
    <contour>
      <point x="309.5" y="724" type="curve" smooth="yes"/>
      <point x="391" y="724" type="line"/>
      <point x="391" y="554" type="line"/>
      <point x="309.5" y="554" type="line" smooth="yes"/>
      <point x="298.5" y="554"/>
      <point x="288.833" y="549.833"/>
      <point x="280.5" y="541.5" type="curve" smooth="yes"/>
      <point x="272.167" y="533.167"/>
      <point x="268" y="523.5"/>
      <point x="268" y="512.5" type="curve" smooth="yes"/>
      <point x="268" y="500" type="line"/>
      <point x="391" y="500" type="line"/>
      <point x="391" y="330" type="line"/>
      <point x="268" y="330" type="line"/>
      <point x="268" y="0" type="line"/>
      <point x="98" y="0" type="line"/>
      <point x="98" y="330" type="line"/>
      <point x="23" y="330" type="line"/>
      <point x="23" y="500" type="line"/>
      <point x="98" y="500" type="line"/>
      <point x="98" y="512.5" type="line" smooth="yes"/>
      <point x="98" y="570.833"/>
      <point x="118.667" y="620.667"/>
      <point x="160" y="662" type="curve" smooth="yes"/>
      <point x="201.333" y="703.333"/>
      <point x="251.167" y="724"/>
    </contour>
  </outline>
</glyph>
<glyph name="g" format="2">
  <advance width="596"/>
  <unicode hex="0067"/>
  <outline>
    <contour>
      <point x="269.991" y="510.684" type="curve" smooth="yes"/>
      <point x="314.645" y="510.684"/>
      <point x="353.315" y="498.771"/>
      <point x="386" y="474.947" type="curve" smooth="yes"/>
      <point x="391.856" y="470.679"/>
      <point x="397.52" y="466.028"/>
      <point x="402.991" y="460.995" type="curve"/>
      <point x="402.991" y="498.684" type="line"/>
      <point x="550.991" y="498.684" type="line"/>
      <point x="550.991" y="58.6836" type="line" smooth="yes"/>
      <point x="551.515" y="-27.0078"/>
      <point x="528.917" y="-94.1143"/>
      <point x="483.199" y="-142.636" type="curve" smooth="yes"/>
      <point x="437.481" y="-191.157"/>
      <point x="375.745" y="-215.384"/>
      <point x="297.991" y="-215.316" type="curve" smooth="yes"/>
      <point x="145.139" y="-215.183"/>
      <point x="94.9552" y="-182.975"/>
      <point x="59.0908" y="-150.666" type="curve"/>
      <point x="139.893" y="-12.9668" type="line"/>
      <point x="190.939" y="-46.1407"/>
      <point x="225.902" y="-57.0947"/>
      <point x="288.991" y="-57.3164" type="curve" smooth="yes"/>
      <point x="320.502" y="-57.4271"/>
      <point x="343.655" y="-47.5286"/>
      <point x="358.45" y="-27.6211" type="curve" smooth="yes"/>
      <point x="366.245" y="-17.1332"/>
      <point x="372.018" y="-4.92618"/>
      <point x="375.771" y="9" type="curve" smooth="yes"/>
      <point x="376.104" y="10.2372"/>
      <point x="376.422" y="11.488"/>
      <point x="376.723" y="12.7524" type="curve"/>
      <point x="374.838" y="11.6568"/>
      <point x="372.93" y="10.5958"/>
      <point x="371" y="9.56931" type="curve" smooth="yes"/>
      <point x="342.311" y="-5.68784"/>
      <point x="308.641" y="-13.3164"/>
      <point x="269.991" y="-13.3164" type="curve" smooth="yes"/>
      <point x="198.405" y="-13.3164"/>
      <point x="138.842" y="12.0592"/>
      <point x="91.3018" y="62.8105" type="curve" smooth="yes"/>
      <point x="43.7614" y="113.562"/>
      <point x="19.9912" y="175.52"/>
      <point x="19.9912" y="248.684" type="curve" smooth="yes"/>
      <point x="19.9912" y="321.848"/>
      <point x="43.7614" y="383.805"/>
      <point x="91.3018" y="434.557" type="curve" smooth="yes"/>
      <point x="138.842" y="485.308"/>
      <point x="198.405" y="510.684"/>
    </contour>
    <contour>
      <point x="286.991" y="342.684" type="curve" smooth="yes"/>
      <point x="261.034" y="342.684"/>
      <point x="238.878" y="333.506"/>
      <point x="220.523" y="315.151" type="curve" smooth="yes"/>
      <point x="202.169" y="296.797"/>
      <point x="192.991" y="274.641"/>
      <point x="192.991" y="248.684" type="curve" smooth="yes"/>
      <point x="192.991" y="222.726"/>
      <point x="202.169" y="200.57"/>
      <point x="220.523" y="182.216" type="curve" smooth="yes"/>
      <point x="238.878" y="163.861"/>
      <point x="261.034" y="154.684"/>
      <point x="286.991" y="154.684" type="curve" smooth="yes"/>
      <point x="312.949" y="154.684"/>
      <point x="335.105" y="163.861"/>
      <point x="353.46" y="182.216" type="curve" smooth="yes"/>
      <point x="371.814" y="200.57"/>
      <point x="380.991" y="222.726"/>
      <point x="380.991" y="248.684" type="curve" smooth="yes"/>
      <point x="380.991" y="274.641"/>
      <point x="371.814" y="296.797"/>
      <point x="353.46" y="315.151" type="curve" smooth="yes"/>
      <point x="335.105" y="333.506"/>
      <point x="312.949" y="342.684"/>
    </contour>
  </outline>
</glyph>
<glyph name="h" format="2">
  <advance width="580"/>
  <unicode hex="0068"/>
  <outline>
    <contour>
      <point x="540" y="0" type="line"/>
      <point x="370" y="0" type="line"/>
      <point x="370" y="263.711" type="line" smooth="yes"/>
      <point x="370" y="287.016"/>
      <point x="362.659" y="305.891"/>
      <point x="347.978" y="320.334" type="curve" smooth="yes"/>
      <point x="333.297" y="334.778"/>
      <point x="315.138" y="342"/>
      <point x="293.5" y="342" type="curve" smooth="yes"/>
      <point x="271.862" y="342"/>
      <point x="253.703" y="334.778"/>
      <point x="239.022" y="320.334" type="curve" smooth="yes"/>
      <point x="224.341" y="305.891"/>
      <point x="217" y="287.016"/>
      <point x="217" y="263.711" type="curve" smooth="yes"/>
      <point x="217" y="0" type="line"/>
      <point x="47" y="0" type="line"/>
      <point x="47" y="700" type="line"/>
      <point x="217" y="700" type="line"/>
      <point x="217" y="474.902" type="line"/>
      <point x="221.454" y="478.742"/>
      <point x="226.121" y="482.284"/>
      <point x="231" y="485.529" type="curve" smooth="yes"/>
      <point x="257.543" y="503.176"/>
      <point x="290.376" y="512"/>
      <point x="329.5" y="512" type="curve" smooth="yes"/>
      <point x="395.833" y="512"/>
      <point x="447.5" y="488.167"/>
      <point x="484.5" y="440.5" type="curve" smooth="yes"/>
      <point x="521.5" y="392.833"/>
      <point x="540" y="331.333"/>
      <point x="540" y="256" type="curve" smooth="yes"/>
    </contour>
  </outline>
</glyph>
<glyph name="j" format="2">
  <advance width="272"/>
  <unicode hex="006A"/>
  <outline>
    <contour>
      <point x="39" y="500" type="line"/>
      <point x="209" y="500" type="line"/>
      <point x="209" y="54" type="line" smooth="yes"/>
      <point x="209" y="-20"/>
      <point x="182.667" y="-83.3333"/>
      <point x="130" y="-136" type="curve" smooth="yes"/>
      <point x="77.3333" y="-188.667"/>
      <point x="14" y="-215"/>
      <point x="-60" y="-215" type="curve"/>
      <point x="-60" y="-45" type="line"/>
      <point x="-32.6667" y="-45"/>
      <point x="-9.33333" y="-35.3333"/>
      <point x="10" y="-16" type="curve" smooth="yes"/>
      <point x="29.3333" y="3.33333"/>
      <point x="39" y="26.6667"/>
      <point x="39" y="54" type="curve" smooth="yes"/>
    </contour>
    <contour>
      <point x="227" y="645" type="curve" smooth="yes"/>
      <point x="227" y="616.333"/>
      <point x="217" y="592"/>
      <point x="197" y="572" type="curve" smooth="yes"/>
      <point x="177" y="552"/>
      <point x="152.667" y="542"/>
      <point x="124" y="542" type="curve" smooth="yes"/>
      <point x="95.3333" y="542"/>
      <point x="71" y="552"/>
      <point x="51" y="572" type="curve" smooth="yes"/>
      <point x="31" y="592"/>
      <point x="21" y="616.333"/>
      <point x="21" y="645" type="curve" smooth="yes"/>
      <point x="21" y="673.667"/>
      <point x="31" y="698"/>
      <point x="51" y="718" type="curve" smooth="yes"/>
      <point x="71" y="738"/>
      <point x="95.3333" y="748"/>
      <point x="124" y="748" type="curve" smooth="yes"/>
      <point x="152.667" y="748"/>
      <point x="177" y="738"/>
      <point x="197" y="718" type="curve" smooth="yes"/>
      <point x="217" y="698"/>
      <point x="227" y="673.667"/>
    </contour>
  </outline>
</glyph>
<glyph name="m" format="2">
  <advance width="907"/>
  <unicode hex="006D"/>
  <outline>
    <contour>
      <point x="864" y="0" type="line"/>
      <point x="694" y="0" type="line"/>
      <point x="694" y="263.711" type="line" smooth="yes"/>
      <point x="694" y="287.017"/>
      <point x="686.659" y="305.891"/>
      <point x="671.979" y="320.334" type="curve" smooth="yes"/>
      <point x="657.297" y="334.778"/>
      <point x="639.138" y="342"/>
      <point x="617.5" y="342" type="curve" smooth="yes"/>
      <point x="595.862" y="342"/>
      <point x="577.703" y="334.778"/>
      <point x="563.021" y="320.334" type="curve" smooth="yes"/>
      <point x="548.341" y="305.891"/>
      <point x="541" y="287.017"/>
      <point x="541" y="263.711" type="curve"/>
      <point x="541" y="0" type="line"/>
      <point x="371" y="0" type="line"/>
      <point x="371" y="263.711" type="line" smooth="yes"/>
      <point x="371" y="287.017"/>
      <point x="363.659" y="305.891"/>
      <point x="348.979" y="320.334" type="curve" smooth="yes"/>
      <point x="334.297" y="334.778"/>
      <point x="316.138" y="342"/>
      <point x="294.5" y="342" type="curve" smooth="yes"/>
      <point x="272.862" y="342"/>
      <point x="254.703" y="334.778"/>
      <point x="240.021" y="320.334" type="curve" smooth="yes"/>
      <point x="225.341" y="305.891"/>
      <point x="218" y="287.017"/>
      <point x="218" y="263.711" type="curve" smooth="yes"/>
      <point x="218" y="0" type="line"/>
      <point x="48" y="0" type="line"/>
      <point x="48" y="500" type="line"/>
      <point x="206" y="500" type="line"/>
      <point x="206" y="463.278" type="line"/>
      <point x="208.892" y="466.417"/>
      <point x="211.892" y="469.405"/>
      <point x="215" y="472.24" type="curve" smooth="yes"/>
      <point x="244.052" y="498.747"/>
      <point x="282.552" y="512"/>
      <point x="330.5" y="512" type="curve" smooth="yes"/>
      <point x="396.833" y="512"/>
      <point x="448.5" y="488.167"/>
      <point x="485.5" y="440.5" type="curve" smooth="yes"/>
      <point x="488.577" y="436.536"/>
      <point x="491.525" y="432.477"/>
      <point x="494.347" y="428.322" type="curve"/>
      <point x="497.1" y="432.656"/>
      <point x="499.984" y="436.883"/>
      <point x="503" y="441" type="curve" smooth="yes"/>
      <point x="537.667" y="488.333"/>
      <point x="587.833" y="512"/>
      <point x="653.5" y="512" type="curve" smooth="yes"/>
      <point x="719.833" y="512"/>
      <point x="771.5" y="488.167"/>
      <point x="808.5" y="440.5" type="curve" smooth="yes"/>
      <point x="845.5" y="392.833"/>
      <point x="864" y="331.333"/>
      <point x="864" y="256" type="curve" smooth="yes"/>
    </contour>
  </outline>
</glyph>
<glyph name="p" format="2">
  <advance width="607"/>
  <unicode hex="0070"/>
  <outline>
    <contour>
      <point x="201" y="500" type="line"/>
      <point x="53" y="500" type="line"/>
      <point x="53" y="-200" type="line"/>
      <point x="223" y="-200" type="line"/>
      <point x="223" y="20.4043" type="line"/>
      <point x="225.63" y="18.6084"/>
      <point x="228.296" y="16.8877"/>
      <point x="231" y="15.2412" type="curve" smooth="yes"/>
      <point x="260.823" y="-2.91992"/>
      <point x="295.156" y="-12"/>
      <point x="334" y="-12" type="curve" smooth="yes"/>
      <point x="405.333" y="-12"/>
      <point x="464.833" y="13.333"/>
      <point x="512.5" y="64" type="curve" smooth="yes"/>
      <point x="560.167" y="114.667"/>
      <point x="584" y="176.667"/>
      <point x="584" y="250" type="curve" smooth="yes"/>
      <point x="584" y="323.333"/>
      <point x="560.167" y="385.333"/>
      <point x="512.5" y="436" type="curve" smooth="yes"/>
      <point x="464.833" y="486.667"/>
      <point x="405.333" y="512"/>
      <point x="334" y="512" type="curve" smooth="yes"/>
      <point x="288.896" y="512"/>
      <point x="250.562" y="501.561"/>
      <point x="219" y="480.682" type="curve" smooth="yes"/>
      <point x="212.733" y="476.536"/>
      <point x="206.733" y="471.979"/>
      <point x="201" y="467.011" type="curve"/>
    </contour>
    <contour>
      <point x="317" y="156" type="curve" smooth="yes"/>
      <point x="291" y="156"/>
      <point x="268.833" y="165.167"/>
      <point x="250.5" y="183.5" type="curve" smooth="yes"/>
      <point x="232.167" y="201.833"/>
      <point x="223" y="224"/>
      <point x="223" y="250" type="curve" smooth="yes"/>
      <point x="223" y="276"/>
      <point x="232.167" y="298.167"/>
      <point x="250.5" y="316.5" type="curve" smooth="yes"/>
      <point x="268.833" y="334.833"/>
      <point x="291" y="344"/>
      <point x="317" y="344" type="curve" smooth="yes"/>
      <point x="343" y="344"/>
      <point x="365.167" y="334.833"/>
      <point x="383.5" y="316.5" type="curve" smooth="yes"/>
      <point x="401.833" y="298.167"/>
      <point x="411" y="276"/>
      <point x="411" y="250" type="curve" smooth="yes"/>
      <point x="411" y="224"/>
      <point x="401.833" y="201.833"/>
      <point x="383.5" y="183.5" type="curve" smooth="yes"/>
      <point x="365.167" y="165.167"/>
      <point x="343" y="156"/>
    </contour>
  </outline>
</glyph>
<glyph name="q" format="2">
  <advance width="596"/>
  <unicode hex="0071"/>
  <outline>
    <contour>
      <point x="403" y="500" type="line"/>
      <point x="551" y="500" type="line"/>
      <point x="551" y="-200" type="line"/>
      <point x="381" y="-200" type="line"/>
      <point x="381" y="20.404" type="line"/>
      <point x="373.934" y="15.579"/>
      <point x="366.601" y="11.2929"/>
      <point x="359" y="7.54559" type="curve" smooth="yes"/>
      <point x="332.569" y="-5.4848"/>
      <point x="302.903" y="-12"/>
      <point x="270" y="-12" type="curve" smooth="yes"/>
      <point x="198.667" y="-12"/>
      <point x="139.167" y="13.3333"/>
      <point x="91.5" y="64" type="curve" smooth="yes"/>
      <point x="43.8333" y="114.667"/>
      <point x="20" y="176.667"/>
      <point x="20" y="250" type="curve" smooth="yes"/>
      <point x="20" y="323.333"/>
      <point x="43.8333" y="385.333"/>
      <point x="91.5" y="436" type="curve" smooth="yes"/>
      <point x="139.167" y="486.667"/>
      <point x="198.667" y="512"/>
      <point x="270" y="512" type="curve" smooth="yes"/>
      <point x="312.749" y="512"/>
      <point x="349.416" y="502.623"/>
      <point x="380" y="483.868" type="curve" smooth="yes"/>
      <point x="388.093" y="478.905"/>
      <point x="395.759" y="473.286"/>
      <point x="403" y="467.01" type="curve"/>
    </contour>
    <contour>
      <point x="287" y="156" type="curve" smooth="yes"/>
      <point x="313" y="156"/>
      <point x="335.167" y="165.167"/>
      <point x="353.5" y="183.5" type="curve" smooth="yes"/>
      <point x="371.833" y="201.833"/>
      <point x="381" y="224"/>
      <point x="381" y="250" type="curve" smooth="yes"/>
      <point x="381" y="276"/>
      <point x="371.833" y="298.167"/>
      <point x="353.5" y="316.5" type="curve" smooth="yes"/>
      <point x="335.167" y="334.833"/>
      <point x="313" y="344"/>
      <point x="287" y="344" type="curve" smooth="yes"/>
      <point x="261" y="344"/>
      <point x="238.833" y="334.833"/>
      <point x="220.5" y="316.5" type="curve" smooth="yes"/>
      <point x="202.167" y="298.167"/>
      <point x="193" y="276"/>
      <point x="193" y="250" type="curve" smooth="yes"/>
      <point x="193" y="224"/>
      <point x="202.167" y="201.833"/>
      <point x="220.5" y="183.5" type="curve" smooth="yes"/>
      <point x="238.833" y="165.167"/>
      <point x="261" y="156"/>
    </contour>
  </outline>
</glyph>
<glyph name="r" format="2">
  <advance width="407"/>
  <unicode hex="0072"/>
  <outline>
    <contour>
      <point x="45" y="500" type="line"/>
      <point x="203" y="500" type="line"/>
      <point x="203" y="434.629" type="line"/>
      <point x="207.423" y="439.505"/>
      <point x="212.089" y="444.188"/>
      <point x="217" y="448.68" type="curve" smooth="yes"/>
      <point x="231.53" y="461.969"/>
      <point x="248.196" y="473.576"/>
      <point x="267" y="483.5" type="curve" smooth="yes"/>
      <point x="303" y="502.5"/>
      <point x="344.667" y="512"/>
      <point x="392" y="512" type="curve"/>
      <point x="392" y="342" type="line"/>
      <point x="348" y="342"/>
      <point x="310.333" y="331"/>
      <point x="279" y="309" type="curve" smooth="yes"/>
      <point x="247.667" y="287"/>
      <point x="226.333" y="252.333"/>
      <point x="215" y="205" type="curve"/>
      <point x="215" y="0" type="line"/>
      <point x="45" y="0" type="line"/>
    </contour>
  </outline>
</glyph>
<glyph name="s" format="2">
  <advance width="455"/>
  <unicode hex="0073"/>
  <outline>
    <contour>
      <point x="421.999" y="397" type="curve"/>
      <point x="262.999" y="342" type="line"/>
      <point x="259.906" y="349.562"/>
      <point x="255.572" y="355.173"/>
      <point x="249.999" y="358.836" type="curve" smooth="yes"/>
      <point x="244.761" y="362.278"/>
      <point x="238.428" y="364"/>
      <point x="230.999" y="364" type="curve" smooth="yes"/>
      <point x="222.332" y="364"/>
      <point x="215.332" y="362"/>
      <point x="209.999" y="358" type="curve" smooth="yes"/>
      <point x="204.666" y="354"/>
      <point x="202.332" y="349"/>
      <point x="202.999" y="343" type="curve" smooth="yes"/>
      <point x="204.428" y="331.794"/>
      <point x="219.496" y="325.214"/>
      <point x="248.206" y="323.259" type="curve" smooth="yes"/>
      <point x="262.851" y="322.262"/>
      <point x="271.615" y="321.509"/>
      <point x="274.499" y="321" type="curve" smooth="yes"/>
      <point x="309.804" y="314.774"/>
      <point x="339.403" y="301.984"/>
      <point x="363.299" y="282.628" type="curve" smooth="yes"/>
      <point x="405.934" y="248.091"/>
      <point x="427.167" y="203.548"/>
      <point x="426.999" y="149" type="curve" smooth="yes"/>
      <point x="426.039" y="93.2861"/>
      <point x="403.705" y="50.3848"/>
      <point x="359.999" y="20.2959" type="curve" smooth="yes"/>
      <point x="328.725" y="-1.23438"/>
      <point x="285.725" y="-12"/>
      <point x="230.999" y="-12" type="curve" smooth="yes"/>
      <point x="184.999" y="-11.333"/>
      <point x="142.999" y="-1.5"/>
      <point x="104.999" y="17.5" type="curve" smooth="yes"/>
      <point x="66.999" y="36.5"/>
      <point x="41.332" y="65"/>
      <point x="27.999" y="103" type="curve"/>
      <point x="188.999" y="161" type="line"/>
      <point x="195.666" y="146.333"/>
      <point x="206.999" y="139"/>
      <point x="222.999" y="139" type="curve" smooth="yes"/>
      <point x="234.028" y="139"/>
      <point x="242.028" y="140.692"/>
      <point x="246.999" y="144.078" type="curve" smooth="yes"/>
      <point x="251.643" y="147.241"/>
      <point x="253.643" y="151.882"/>
      <point x="252.999" y="158" type="curve" smooth="yes"/>
      <point x="251.727" y="168.097"/>
      <point x="231.068" y="175.05"/>
      <point x="191.024" y="178.857" type="curve" smooth="yes"/>
      <point x="183.246" y="179.597"/>
      <point x="177.404" y="180.312"/>
      <point x="173.499" y="181" type="curve" smooth="yes"/>
      <point x="127.119" y="189.179"/>
      <point x="92.1523" y="208.396"/>
      <point x="68.5996" y="238.65" type="curve" smooth="yes"/>
      <point x="45.0479" y="268.905"/>
      <point x="32.8477" y="304.355"/>
      <point x="31.999" y="345" type="curve" smooth="yes"/>
      <point x="31.999" y="399"/>
      <point x="51.666" y="440.167"/>
      <point x="90.999" y="468.5" type="curve" smooth="yes"/>
      <point x="130.332" y="496.833"/>
      <point x="175.999" y="511.333"/>
      <point x="227.999" y="512" type="curve" smooth="yes"/>
      <point x="277.839" y="512.344"/>
      <point x="319.172" y="502.32"/>
      <point x="351.999" y="481.93" type="curve" smooth="yes"/>
      <point x="382.842" y="462.771"/>
      <point x="406.175" y="434.462"/>
    </contour>
  </outline>
</glyph>
<glyph name="t" format="2">
  <advance width="393"/>
  <unicode hex="0074"/>
  <outline>
    <contour>
      <point x="85" y="656" type="line"/>
      <point x="255" y="656" type="line"/>
      <point x="255" y="500" type="line"/>
      <point x="368" y="500" type="line"/>
      <point x="368" y="330" type="line"/>
      <point x="255" y="330" type="line"/>
      <point x="255" y="235" type="line" smooth="yes"/>
      <point x="255" y="217"/>
      <point x="261.333" y="201.667"/>
      <point x="274" y="189" type="curve" smooth="yes"/>
      <point x="286.667" y="176.333"/>
      <point x="302" y="170"/>
      <point x="320" y="170" type="curve" smooth="yes"/>
      <point x="368" y="170" type="line"/>
      <point x="368" y="0" type="line"/>
      <point x="320" y="0" type="line" smooth="yes"/>
      <point x="255.333" y="0"/>
      <point x="200" y="23"/>
      <point x="154" y="69" type="curve" smooth="yes"/>
      <point x="108" y="115"/>
      <point x="85" y="170.333"/>
      <point x="85" y="235" type="curve" smooth="yes"/>
      <point x="85" y="330" type="line"/>
      <point x="10" y="330" type="line"/>
      <point x="10" y="500" type="line"/>
      <point x="85" y="500" type="line"/>
    </contour>
  </outline>
</glyph>
<glyph name="v" format="2">
  <advance width="584"/>
  <unicode hex="0076"/>
  <outline>
    <contour>
      <point x="5" y="500" type="line"/>
      <point x="187" y="500" type="line"/>
      <point x="291.866" y="232.484" type="line"/>
      <point x="397" y="500" type="line"/>
      <point x="579" y="500" type="line"/>
      <point x="383" y="0" type="line"/>
      <point x="200.5" y="0" type="line"/>
    </contour>
  </outline>
</glyph>
<glyph name="z" format="2">
  <advance width="448"/>
  <unicode hex="007A"/>
  <outline>
    <contour>
      <point x="20" y="0" type="line"/>
      <point x="20" y="170" type="line"/>
      <point x="184.5" y="330" type="line"/>
      <point x="20" y="330" type="line"/>
      <point x="20" y="500" type="line"/>
      <point x="428" y="500" type="line"/>
      <point x="428" y="330" type="line"/>
      <point x="263.5" y="170" type="line"/>
      <point x="428" y="170" type="line"/>
      <point x="428" y="0" type="line"/>
    </contour>
  </outline>
</glyph>
<glyph name="braceleft" format="2">
  <advance width="402"/>
  <unicode hex="007B"/>
  <outline>
    <contour>
      <point x="352" y="-100" type="line"/>
      <point x="280.667" y="-100"/>
      <point x="226.167" y="-75.8333"/>
      <point x="188.5" y="-27.5" type="curve" smooth="yes"/>
      <point x="150.833" y="20.8333"/>
      <point x="132" y="92.6667"/>
      <point x="132" y="188" type="curve" smooth="yes"/>
      <point x="132" y="218"/>
      <point x="126" y="238.333"/>
      <point x="114" y="249" type="curve" smooth="yes"/>
      <point x="102" y="259.667"/>
      <point x="80.6667" y="265"/>
      <point x="50" y="265" type="curve"/>
      <point x="50" y="435" type="line"/>
      <point x="80.6667" y="435"/>
      <point x="102" y="440.333"/>
      <point x="114" y="451" type="curve" smooth="yes"/>
      <point x="126" y="461.667"/>
      <point x="132" y="482"/>
      <point x="132" y="512" type="curve" smooth="yes"/>
      <point x="132" y="607.333"/>
      <point x="150.833" y="679.167"/>
      <point x="188.5" y="727.5" type="curve" smooth="yes"/>
      <point x="226.167" y="775.833"/>
      <point x="280.667" y="800"/>
      <point x="352" y="800" type="curve"/>
      <point x="352" y="630" type="line"/>
      <point x="331.333" y="630"/>
      <point x="317.833" y="622.833"/>
      <point x="311.5" y="608.5" type="curve" smooth="yes"/>
      <point x="305.167" y="594.167"/>
      <point x="302" y="562.333"/>
      <point x="302" y="513" type="curve" smooth="yes"/>
      <point x="302" y="451"/>
      <point x="280.333" y="404"/>
      <point x="237" y="372" type="curve" smooth="yes"/>
      <point x="225.559" y="363.551"/>
      <point x="212.794" y="356.218"/>
      <point x="198.704" y="350" type="curve"/>
      <point x="212.794" y="343.782"/>
      <point x="225.559" y="336.449"/>
      <point x="237" y="328" type="curve" smooth="yes"/>
      <point x="280.333" y="296"/>
      <point x="302" y="249"/>
      <point x="302" y="187" type="curve" smooth="yes"/>
      <point x="302" y="139"/>
      <point x="305.167" y="107.833"/>
      <point x="311.5" y="93.5" type="curve" smooth="yes"/>
      <point x="317.833" y="79.1667"/>
      <point x="331.333" y="71.3333"/>
      <point x="352" y="70" type="curve"/>
    </contour>
  </outline>
</glyph>
<glyph name="bar" format="2">
  <advance width="290"/>
  <unicode hex="007C"/>
  <outline>
    <contour>
      <point x="60" y="790" type="line"/>
      <point x="230" y="790" type="line"/>
      <point x="230" y="-220" type="line"/>
      <point x="60" y="-220" type="line"/>
    </contour>
  </outline>
</glyph>
<glyph name="braceright" format="2">
  <advance width="402"/>
  <unicode hex="007D"/>
  <outline>
    <contour>
      <point x="50" y="-100" type="line"/>
      <point x="121.333" y="-100"/>
      <point x="175.833" y="-75.8333"/>
      <point x="213.5" y="-27.5" type="curve" smooth="yes"/>
      <point x="251.167" y="20.8333"/>
      <point x="270" y="92.6667"/>
      <point x="270" y="188" type="curve" smooth="yes"/>
      <point x="270" y="218"/>
      <point x="276" y="238.333"/>
      <point x="288" y="249" type="curve" smooth="yes"/>
      <point x="300" y="259.667"/>
      <point x="321.333" y="265"/>
      <point x="352" y="265" type="curve"/>
      <point x="352" y="435" type="line"/>
      <point x="321.333" y="435"/>
      <point x="300" y="440.333"/>
      <point x="288" y="451" type="curve" smooth="yes"/>
      <point x="276" y="461.667"/>
      <point x="270" y="482"/>
      <point x="270" y="512" type="curve" smooth="yes"/>
      <point x="270" y="607.333"/>
      <point x="251.167" y="679.167"/>
      <point x="213.5" y="727.5" type="curve" smooth="yes"/>
      <point x="175.833" y="775.833"/>
      <point x="121.333" y="800"/>
      <point x="50" y="800" type="curve"/>
      <point x="50" y="630" type="line"/>
      <point x="70.6667" y="630"/>
      <point x="84.1667" y="622.833"/>
      <point x="90.5" y="608.5" type="curve" smooth="yes"/>
      <point x="96.8333" y="594.167"/>
      <point x="100" y="562.333"/>
      <point x="100" y="513" type="curve" smooth="yes"/>
      <point x="100" y="451"/>
      <point x="121.667" y="404"/>
      <point x="165" y="372" type="curve" smooth="yes"/>
      <point x="176.441" y="363.551"/>
      <point x="189.206" y="356.218"/>
      <point x="203.296" y="350" type="curve"/>
      <point x="189.206" y="343.782"/>
      <point x="176.441" y="336.449"/>
      <point x="165" y="328" type="curve" smooth="yes"/>
      <point x="121.667" y="296"/>
      <point x="100" y="249"/>
      <point x="100" y="187" type="curve" smooth="yes"/>
      <point x="100" y="139"/>
      <point x="96.8333" y="107.833"/>
      <point x="90.5" y="93.5" type="curve" smooth="yes"/>
      <point x="84.1667" y="79.1667"/>
      <point x="70.6667" y="71.3333"/>
      <point x="50" y="70" type="curve"/>
    </contour>
  </outline>
</glyph>
<glyph name="asciitilde" format="2">
  <advance width="745"/>
  <unicode hex="007E"/>
  <outline>
    <contour>
      <point x="267" y="488" type="curve" smooth="yes"/>
      <point x="368.333" y="488"/>
      <point x="435.5" y="447.5"/>
      <point x="468.5" y="366.5" type="curve" smooth="yes"/>
      <point x="473.352" y="354.591"/>
      <point x="478.352" y="344.425"/>
      <point x="483.5" y="336" type="curve" smooth="yes"/>
      <point x="492.056" y="322"/>
      <point x="504.556" y="315"/>
      <point x="521" y="315" type="curve" smooth="yes"/>
      <point x="533.619" y="315.287"/>
      <point x="543.956" y="319.954"/>
      <point x="552.01" y="329" type="curve" smooth="yes"/>
      <point x="562.678" y="340.982"/>
      <point x="569.341" y="360.649"/>
      <point x="572" y="388" type="curve"/>
      <point x="742" y="388" type="line"/>
      <point x="740.667" y="322.667"/>
      <point x="720.333" y="266"/>
      <point x="681" y="218" type="curve" smooth="yes"/>
      <point x="641.667" y="170"/>
      <point x="590.667" y="145.667"/>
      <point x="528" y="145" type="curve" smooth="yes"/>
      <point x="437.135" y="144.255"/>
      <point x="370.635" y="187.422"/>
      <point x="328.5" y="274.5" type="curve" smooth="yes"/>
      <point x="318.273" y="295.635"/>
      <point x="309.106" y="308.422"/>
      <point x="301" y="312.861" type="curve" smooth="yes"/>
      <point x="294.745" y="316.287"/>
      <point x="287.411" y="318"/>
      <point x="279" y="318" type="curve" smooth="yes"/>
      <point x="265.808" y="317.713"/>
      <point x="254.836" y="313.046"/>
      <point x="246.085" y="304" type="curve" smooth="yes"/>
      <point x="234.494" y="292.018"/>
      <point x="226.799" y="272.351"/>
      <point x="223" y="245" type="curve"/>
      <point x="53" y="245" type="line"/>
      <point x="54.333" y="310.333"/>
      <point x="74.833" y="367.167"/>
      <point x="114.5" y="415.5" type="curve" smooth="yes"/>
      <point x="154.167" y="463.833"/>
      <point x="205" y="488"/>
    </contour>
  </outline>
</glyph>
<glyph name="exclamdown" format="2">
  <advance width="326"/>
  <unicode hex="00A1"/>
  <outline>
    <contour>
      <point x="163" y="306" type="curve" smooth="yes"/>
      <point x="191.667" y="306"/>
      <point x="216" y="316"/>
      <point x="236" y="336" type="curve" smooth="yes"/>
      <point x="256" y="356"/>
      <point x="266" y="380.333"/>
      <point x="266" y="409" type="curve" smooth="yes"/>
      <point x="266" y="437.667"/>
      <point x="256" y="462"/>
      <point x="236" y="482" type="curve" smooth="yes"/>
      <point x="216" y="502"/>
      <point x="191.667" y="512"/>
      <point x="163" y="512" type="curve" smooth="yes"/>
      <point x="134.333" y="512"/>
      <point x="110" y="502"/>
      <point x="90" y="482" type="curve" smooth="yes"/>
      <point x="70" y="462"/>
      <point x="60" y="437.667"/>
      <point x="60" y="409" type="curve" smooth="yes"/>
      <point x="60" y="380.333"/>
      <point x="70" y="356"/>
      <point x="90" y="336" type="curve" smooth="yes"/>
      <point x="110" y="316"/>
      <point x="134.333" y="306"/>
    </contour>
    <contour>
      <point x="78" y="-204" type="line"/>
      <point x="248" y="-204" type="line"/>
      <point x="248" y="245" type="line"/>
      <point x="78" y="245" type="line"/>
    </contour>
  </outline>
</glyph>
<glyph name="cent" format="2">
  <advance width="474"/>
  <unicode hex="00A2"/>
  <outline>
    <contour>
      <point x="321.854" y="609.263" type="line"/>
      <point x="377.293" y="601.427"/>
      <point x="425.763" y="576.76"/>
      <point x="467.262" y="535.262" type="curve"/>
      <point x="347.055" y="415.055" type="line"/>
      <point x="339.34" y="422.769"/>
      <point x="330.94" y="428.826"/>
      <point x="321.854" y="433.228" type="curve"/>
      <point x="321.854" y="266.772" type="line"/>
      <point x="330.94" y="271.173"/>
      <point x="339.341" y="277.231"/>
      <point x="347.055" y="284.945" type="curve"/>
      <point x="467.262" y="164.738" type="line"/>
      <point x="425.764" y="123.24"/>
      <point x="377.294" y="98.573"/>
      <point x="321.854" y="90.7365" type="curve"/>
      <point x="321.854" y="0" type="line"/>
      <point x="221.854" y="0" type="line"/>
      <point x="221.854" y="94.4258" type="line"/>
      <point x="174.798" y="104.946"/>
      <point x="133.092" y="128.383"/>
      <point x="96.7373" y="164.738" type="curve" smooth="yes"/>
      <point x="45.5791" y="215.896"/>
      <point x="20" y="277.65"/>
      <point x="20" y="350" type="curve" smooth="yes"/>
      <point x="20" y="422.349"/>
      <point x="45.5791" y="484.103"/>
      <point x="96.7373" y="535.262" type="curve" smooth="yes"/>
      <point x="133.092" y="571.617"/>
      <point x="174.798" y="595.054"/>
      <point x="221.854" y="605.574" type="curve"/>
      <point x="221.854" y="700" type="line"/>
      <point x="321.854" y="700" type="line"/>
    </contour>
    <contour>
      <point x="221.854" y="419.657" type="line"/>
      <point x="220.188" y="418.194"/>
      <point x="218.552" y="416.66"/>
      <point x="216.946" y="415.054" type="curve" smooth="yes"/>
      <point x="198.982" y="397.09"/>
      <point x="190" y="375.405"/>
      <point x="190" y="350" type="curve" smooth="yes"/>
      <point x="190" y="324.595"/>
      <point x="198.982" y="302.91"/>
      <point x="216.946" y="284.946" type="curve" smooth="yes"/>
      <point x="218.552" y="283.34"/>
      <point x="220.188" y="281.806"/>
      <point x="221.854" y="280.343" type="curve"/>
    </contour>
  </outline>
</glyph>
<glyph name="sterling" format="2">
  <advance width="619"/>
  <unicode hex="00A3"/>
  <outline>
    <contour>
      <point x="586" y="180" type="line"/>
      <point x="586" y="0" type="line"/>
      <point x="43" y="0" type="line"/>
      <point x="43" y="180" type="line"/>
      <point x="61" y="180"/>
      <point x="76.333" y="186.333"/>
      <point x="89" y="199" type="curve" smooth="yes"/>
      <point x="101.667" y="211.667"/>
      <point x="108" y="227"/>
      <point x="108" y="245" type="curve" smooth="yes"/>
      <point x="108" y="252" type="line"/>
      <point x="43" y="252" type="line"/>
      <point x="43" y="432" type="line"/>
      <point x="108" y="432" type="line"/>
      <point x="108" y="476" type="line" smooth="yes"/>
      <point x="108" y="542"/>
      <point x="131.333" y="598.333"/>
      <point x="178" y="645" type="curve" smooth="yes"/>
      <point x="224.667" y="691.667"/>
      <point x="281" y="715"/>
      <point x="347" y="715" type="curve" smooth="yes"/>
      <point x="413" y="715"/>
      <point x="469.333" y="691.667"/>
      <point x="516" y="645" type="curve" smooth="yes"/>
      <point x="562.667" y="598.333"/>
      <point x="586" y="542"/>
      <point x="586" y="476" type="curve"/>
      <point x="406" y="476" type="line"/>
      <point x="406" y="492"/>
      <point x="400.167" y="505.833"/>
      <point x="388.5" y="517.5" type="curve" smooth="yes"/>
      <point x="376.833" y="529.167"/>
      <point x="363" y="535"/>
      <point x="347" y="535" type="curve" smooth="yes"/>
      <point x="331" y="535"/>
      <point x="317.167" y="529.167"/>
      <point x="305.5" y="517.5" type="curve" smooth="yes"/>
      <point x="293.833" y="505.833"/>
      <point x="288" y="492"/>
      <point x="288" y="476" type="curve" smooth="yes"/>
      <point x="288" y="432" type="line"/>
      <point x="496" y="432" type="line"/>
      <point x="496" y="252" type="line"/>
      <point x="288" y="252" type="line"/>
      <point x="288" y="245" type="line" smooth="yes"/>
      <point x="287.888" y="222.921"/>
      <point x="284.848" y="201.254"/>
      <point x="278.879" y="180" type="curve"/>
    </contour>
  </outline>
</glyph>
<glyph name="currency" format="2">
  <advance width="645"/>
  <unicode hex="00A4"/>
  <outline>
    <contour>
      <point x="362.297" y="389.598" type="curve" smooth="yes"/>
      <point x="351.362" y="400.533"/>
      <point x="338.163" y="406"/>
      <point x="322.699" y="406" type="curve" smooth="yes"/>
      <point x="307.235" y="406"/>
      <point x="294.036" y="400.533"/>
      <point x="283.102" y="389.598" type="curve" smooth="yes"/>
      <point x="272.167" y="378.663"/>
      <point x="266.699" y="365.464"/>
      <point x="266.699" y="350" type="curve" smooth="yes"/>
      <point x="266.699" y="334.536"/>
      <point x="272.167" y="321.337"/>
      <point x="283.102" y="310.402" type="curve" smooth="yes"/>
      <point x="294.036" y="299.467"/>
      <point x="307.235" y="294"/>
      <point x="322.699" y="294" type="curve" smooth="yes"/>
      <point x="338.163" y="294"/>
      <point x="351.362" y="299.467"/>
      <point x="362.297" y="310.402" type="curve" smooth="yes"/>
      <point x="373.232" y="321.337"/>
      <point x="378.699" y="334.536"/>
      <point x="378.699" y="350" type="curve" smooth="yes"/>
      <point x="378.699" y="365.464"/>
      <point x="373.232" y="378.663"/>
    </contour>
    <contour>
      <point x="464.863" y="612.301" type="line"/>
      <point x="585" y="492.164" type="line"/>
      <point x="531.395" y="438.558" type="line"/>
      <point x="542.931" y="411.428"/>
      <point x="548.699" y="381.909"/>
      <point x="548.699" y="350" type="curve" smooth="yes"/>
      <point x="548.699" y="318.091"/>
      <point x="542.931" y="288.572"/>
      <point x="531.395" y="261.442" type="curve"/>
      <point x="585" y="207.836" type="line"/>
      <point x="464.863" y="87.6992" type="line"/>
      <point x="411.258" y="141.305" type="line"/>
      <point x="384.128" y="129.768"/>
      <point x="354.608" y="124"/>
      <point x="322.699" y="124" type="curve" smooth="yes"/>
      <point x="290.79" y="124"/>
      <point x="261.271" y="129.768"/>
      <point x="234.14" y="141.305" type="curve"/>
      <point x="180.535" y="87.6992" type="line"/>
      <point x="60.3984" y="207.836" type="line"/>
      <point x="114.004" y="261.442" type="line"/>
      <point x="102.467" y="288.572"/>
      <point x="96.6992" y="318.091"/>
      <point x="96.6992" y="350" type="curve" smooth="yes"/>
      <point x="96.6992" y="381.909"/>
      <point x="102.467" y="411.428"/>
      <point x="114.004" y="438.558" type="curve"/>
      <point x="60.3984" y="492.164" type="line"/>
      <point x="180.535" y="612.301" type="line"/>
      <point x="234.14" y="558.695" type="line"/>
      <point x="261.271" y="570.232"/>
      <point x="290.79" y="576"/>
      <point x="322.699" y="576" type="curve" smooth="yes"/>
      <point x="354.608" y="576"/>
      <point x="384.128" y="570.232"/>
      <point x="411.258" y="558.695" type="curve"/>
    </contour>
  </outline>
</glyph>
<glyph name="yen" format="2">
  <advance width="616"/>
  <unicode hex="00A5"/>
  <outline>
    <contour>
      <point x="70" y="244" type="line"/>
      <point x="70" y="376" type="line"/>
      <point x="173.177" y="376" type="line"/>
      <point x="10" y="700" type="line"/>
      <point x="200" y="700" type="line"/>
      <point x="308" y="486.238" type="line"/>
      <point x="416" y="700" type="line"/>
      <point x="606" y="700" type="line"/>
      <point x="442.823" y="376" type="line"/>
      <point x="545" y="376" type="line"/>
      <point x="545" y="244" type="line"/>
      <point x="393.5" y="244" type="line"/>
      <point x="393.5" y="193" type="line"/>
      <point x="545" y="193" type="line"/>
      <point x="545" y="61" type="line"/>
      <point x="393.5" y="61" type="line"/>
      <point x="393.5" y="0" type="line"/>
      <point x="223.5" y="0" type="line"/>
      <point x="223.5" y="61" type="line"/>
      <point x="70" y="61" type="line"/>
      <point x="70" y="193" type="line"/>
      <point x="223.5" y="193" type="line"/>
      <point x="223.5" y="244" type="line"/>
    </contour>
  </outline>
</glyph>
<glyph name="brokenbar" format="2">
  <advance width="376"/>
  <unicode hex="00A6"/>
  <outline>
    <contour>
      <point x="103" y="-220" type="line"/>
      <point x="103" y="220" type="line"/>
      <point x="273" y="220" type="line"/>
      <point x="273" y="-220" type="line"/>
    </contour>
    <contour>
      <point x="103" y="350" type="line"/>
      <point x="103" y="790" type="line"/>
      <point x="273" y="790" type="line"/>
      <point x="273" y="350" type="line"/>
    </contour>
  </outline>
</glyph>
<glyph name="section" format="2">
  <advance width="428"/>
  <unicode hex="00A7"/>
  <outline>
    <contour>
      <point x="214" y="711" type="curve" smooth="yes"/>
      <point x="266" y="711"/>
      <point x="309.167" y="694.5"/>
      <point x="343.5" y="661.5" type="curve" smooth="yes"/>
      <point x="377.833" y="628.5"/>
      <point x="395" y="588"/>
      <point x="395" y="540" type="curve"/>
      <point x="283" y="540" type="line"/>
      <point x="283" y="556.667"/>
      <point x="276.667" y="570.667"/>
      <point x="264" y="582" type="curve" smooth="yes"/>
      <point x="251.333" y="593.333"/>
      <point x="234.667" y="599"/>
      <point x="214" y="599" type="curve" smooth="yes"/>
      <point x="193.333" y="599"/>
      <point x="176.667" y="593.333"/>
      <point x="164" y="582" type="curve" smooth="yes"/>
      <point x="151.333" y="570.667"/>
      <point x="145" y="556.667"/>
      <point x="145" y="540" type="curve" smooth="yes"/>
      <point x="145" y="523.333"/>
      <point x="151.333" y="509.333"/>
      <point x="164" y="498" type="curve" smooth="yes"/>
      <point x="176.667" y="486.667"/>
      <point x="193.333" y="481"/>
      <point x="214" y="481" type="curve" smooth="yes"/>
      <point x="266" y="481"/>
      <point x="309.167" y="464.5"/>
      <point x="343.5" y="431.5" type="curve" smooth="yes"/>
      <point x="377.833" y="398.5"/>
      <point x="395" y="358"/>
      <point x="395" y="310" type="curve" smooth="yes"/>
      <point x="395" y="270.618"/>
      <point x="383.444" y="236.285"/>
      <point x="360.333" y="207" type="curve" smooth="yes"/>
      <point x="357.098" y="202.901"/>
      <point x="353.637" y="198.901"/>
      <point x="349.949" y="195" type="curve"/>
      <point x="353.936" y="190.782"/>
      <point x="357.658" y="186.449"/>
      <point x="361.116" y="182" type="curve" smooth="yes"/>
      <point x="383.705" y="152.935"/>
      <point x="395" y="118.935"/>
      <point x="395" y="80" type="curve" smooth="yes"/>
      <point x="395" y="32"/>
      <point x="377.833" y="-8.5"/>
      <point x="343.5" y="-41.5" type="curve" smooth="yes"/>
      <point x="309.167" y="-74.5"/>
      <point x="266" y="-91"/>
      <point x="214" y="-91" type="curve" smooth="yes"/>
      <point x="162" y="-91"/>
      <point x="118.833" y="-74.5"/>
      <point x="84.5" y="-41.5" type="curve" smooth="yes"/>
      <point x="50.167" y="-8.5"/>
      <point x="33" y="32"/>
      <point x="33" y="80" type="curve"/>
      <point x="145" y="80" type="line"/>
      <point x="145" y="63.333"/>
      <point x="151.333" y="49.333"/>
      <point x="164" y="38" type="curve" smooth="yes"/>
      <point x="176.667" y="26.667"/>
      <point x="193.333" y="21"/>
      <point x="214" y="21" type="curve" smooth="yes"/>
      <point x="234.667" y="21"/>
      <point x="251.333" y="26.667"/>
      <point x="264" y="38" type="curve" smooth="yes"/>
      <point x="276.667" y="49.333"/>
      <point x="283" y="63.333"/>
      <point x="283" y="80" type="curve" smooth="yes"/>
      <point x="283" y="96.667"/>
      <point x="276.667" y="110.667"/>
      <point x="264" y="122" type="curve" smooth="yes"/>
      <point x="251.333" y="133.333"/>
      <point x="234.667" y="139"/>
      <point x="214" y="139" type="curve" smooth="yes"/>
      <point x="162" y="139"/>
      <point x="118.833" y="155.5"/>
      <point x="84.5" y="188.5" type="curve" smooth="yes"/>
      <point x="50.167" y="221.5"/>
      <point x="33" y="262"/>
      <point x="33" y="310" type="curve" smooth="yes"/>
      <point x="33" y="348.489"/>
      <point x="44.0381" y="382.155"/>
      <point x="66.1133" y="411" type="curve" smooth="yes"/>
      <point x="69.7861" y="415.8"/>
      <point x="73.7656" y="420.467"/>
      <point x="78.0508" y="425" type="curve"/>
      <point x="74.0645" y="429.218"/>
      <point x="70.3418" y="433.551"/>
      <point x="66.8838" y="438" type="curve" smooth="yes"/>
      <point x="44.2949" y="467.065"/>
      <point x="33" y="501.065"/>
      <point x="33" y="540" type="curve" smooth="yes"/>
      <point x="33" y="588"/>
      <point x="50.167" y="628.5"/>
      <point x="84.5" y="661.5" type="curve" smooth="yes"/>
      <point x="118.833" y="694.5"/>
      <point x="162" y="711"/>
    </contour>
    <contour>
      <point x="214" y="369" type="curve" smooth="yes"/>
      <point x="193.333" y="369"/>
      <point x="176.667" y="363.333"/>
      <point x="164" y="352" type="curve" smooth="yes"/>
      <point x="151.333" y="340.667"/>
      <point x="145" y="326.667"/>
      <point x="145" y="310" type="curve" smooth="yes"/>
      <point x="145" y="293.333"/>
      <point x="151.333" y="279.333"/>
      <point x="164" y="268" type="curve" smooth="yes"/>
      <point x="176.667" y="256.667"/>
      <point x="193.333" y="251"/>
      <point x="214" y="251" type="curve" smooth="yes"/>
      <point x="234.667" y="251"/>
      <point x="251.333" y="256.667"/>
      <point x="264" y="268" type="curve" smooth="yes"/>
      <point x="276.667" y="279.333"/>
      <point x="283" y="293.333"/>
      <point x="283" y="310" type="curve" smooth="yes"/>
      <point x="283" y="326.667"/>
      <point x="276.667" y="340.667"/>
      <point x="264" y="352" type="curve" smooth="yes"/>
      <point x="251.333" y="363.333"/>
      <point x="234.667" y="369"/>
    </contour>
  </outline>
</glyph>
<glyph name="dieresis" format="2">
  <advance width="532"/>
  <unicode hex="00A8"/>
  <outline>
    <contour>
      <point x="131" y="745" type="curve" smooth="yes"/>
      <point x="155" y="745"/>
      <point x="175.667" y="736.333"/>
      <point x="193" y="719" type="curve" smooth="yes"/>
      <point x="210.333" y="701.667"/>
      <point x="219" y="681"/>
      <point x="219" y="657" type="curve" smooth="yes"/>
      <point x="219" y="633"/>
      <point x="210.333" y="612.333"/>
      <point x="193" y="595" type="curve" smooth="yes"/>
      <point x="175.667" y="577.667"/>
      <point x="155" y="569"/>
      <point x="131" y="569" type="curve" smooth="yes"/>
      <point x="107" y="569"/>
      <point x="86.333" y="577.667"/>
      <point x="69" y="595" type="curve" smooth="yes"/>
      <point x="51.667" y="612.333"/>
      <point x="43" y="633"/>
      <point x="43" y="657" type="curve" smooth="yes"/>
      <point x="43" y="681"/>
      <point x="51.667" y="701.667"/>
      <point x="69" y="719" type="curve" smooth="yes"/>
      <point x="86.333" y="736.333"/>
      <point x="107" y="745"/>
    </contour>
    <contour>
      <point x="401" y="745" type="curve" smooth="yes"/>
      <point x="425" y="745"/>
      <point x="445.667" y="736.333"/>
      <point x="463" y="719" type="curve" smooth="yes"/>
      <point x="480.333" y="701.667"/>
      <point x="489" y="681"/>
      <point x="489" y="657" type="curve" smooth="yes"/>
      <point x="489" y="633"/>
      <point x="480.333" y="612.333"/>
      <point x="463" y="595" type="curve" smooth="yes"/>
      <point x="445.667" y="577.667"/>
      <point x="425" y="569"/>
      <point x="401" y="569" type="curve" smooth="yes"/>
      <point x="377" y="569"/>
      <point x="356.333" y="577.667"/>
      <point x="339" y="595" type="curve" smooth="yes"/>
      <point x="321.667" y="612.333"/>
      <point x="313" y="633"/>
      <point x="313" y="657" type="curve" smooth="yes"/>
      <point x="313" y="681"/>
      <point x="321.667" y="701.667"/>
      <point x="339" y="719" type="curve" smooth="yes"/>
      <point x="356.333" y="736.333"/>
      <point x="377" y="745"/>
    </contour>
  </outline>
</glyph>
<glyph name="copyright" format="2">
  <advance width="779"/>
  <unicode hex="00A9"/>
  <outline>
    <contour>
      <point x="389.5" y="712" type="curve" smooth="yes"/>
      <point x="454.968" y="712"/>
      <point x="515.459" y="695.875"/>
      <point x="570.976" y="663.625" type="curve" smooth="yes"/>
      <point x="626.492" y="631.375"/>
      <point x="670.375" y="587.492"/>
      <point x="702.625" y="531.976" type="curve" smooth="yes"/>
      <point x="734.875" y="476.459"/>
      <point x="751" y="415.968"/>
      <point x="751" y="350.5" type="curve" smooth="yes"/>
      <point x="751" y="285.032"/>
      <point x="734.875" y="224.541"/>
      <point x="702.625" y="169.024" type="curve" smooth="yes"/>
      <point x="670.375" y="113.508"/>
      <point x="626.492" y="69.625"/>
      <point x="570.976" y="37.375" type="curve" smooth="yes"/>
      <point x="515.459" y="5.125"/>
      <point x="454.968" y="-11"/>
      <point x="389.5" y="-11" type="curve" smooth="yes"/>
      <point x="324.032" y="-11"/>
      <point x="263.541" y="5.125"/>
      <point x="208.024" y="37.375" type="curve" smooth="yes"/>
      <point x="152.508" y="69.625"/>
      <point x="108.625" y="113.508"/>
      <point x="76.375" y="169.024" type="curve" smooth="yes"/>
      <point x="44.125" y="224.541"/>
      <point x="28" y="285.032"/>
      <point x="28" y="350.5" type="curve" smooth="yes"/>
      <point x="28" y="415.968"/>
      <point x="44.125" y="476.459"/>
      <point x="76.375" y="531.976" type="curve" smooth="yes"/>
      <point x="108.625" y="587.492"/>
      <point x="152.508" y="631.375"/>
      <point x="208.024" y="663.625" type="curve" smooth="yes"/>
      <point x="263.541" y="695.875"/>
      <point x="324.032" y="712"/>
    </contour>
    <contour>
      <point x="389.5" y="592" type="curve" smooth="yes"/>
      <point x="322.812" y="592"/>
      <point x="265.889" y="568.422"/>
      <point x="218.733" y="521.267" type="curve" smooth="yes"/>
      <point x="171.578" y="474.111"/>
      <point x="148" y="417.188"/>
      <point x="148" y="350.5" type="curve" smooth="yes"/>
      <point x="148" y="283.812"/>
      <point x="171.578" y="226.889"/>
      <point x="218.733" y="179.733" type="curve" smooth="yes"/>
      <point x="265.889" y="132.578"/>
      <point x="322.812" y="109"/>
      <point x="389.5" y="109" type="curve" smooth="yes"/>
      <point x="456.188" y="109"/>
      <point x="513.111" y="132.578"/>
      <point x="560.267" y="179.733" type="curve" smooth="yes"/>
      <point x="607.422" y="226.889"/>
      <point x="631" y="283.812"/>
      <point x="631" y="350.5" type="curve" smooth="yes"/>
      <point x="631" y="417.188"/>
      <point x="607.422" y="474.111"/>
      <point x="560.267" y="521.267" type="curve" smooth="yes"/>
      <point x="513.111" y="568.422"/>
      <point x="456.188" y="592"/>
    </contour>
    <contour>
      <point x="388.054" y="548" type="curve" smooth="yes"/>
      <point x="442.591" y="548"/>
      <point x="489.143" y="528.718"/>
      <point x="527.708" y="490.153" type="curve"/>
      <point x="442.724" y="405.301" type="line"/>
      <point x="427.591" y="420.434"/>
      <point x="409.324" y="428"/>
      <point x="387.923" y="428" type="curve" smooth="yes"/>
      <point x="366.521" y="428"/>
      <point x="348.255" y="420.434"/>
      <point x="333.122" y="405.301" type="curve" smooth="yes"/>
      <point x="317.989" y="390.168"/>
      <point x="310.423" y="371.901"/>
      <point x="310.423" y="350.5" type="curve" smooth="yes"/>
      <point x="310.423" y="329.099"/>
      <point x="317.989" y="310.832"/>
      <point x="333.122" y="295.699" type="curve" smooth="yes"/>
      <point x="348.255" y="280.566"/>
      <point x="366.521" y="273"/>
      <point x="387.923" y="273" type="curve" smooth="yes"/>
      <point x="409.244" y="273.188"/>
      <point x="427.396" y="280.87"/>
      <point x="442.38" y="296.043" type="curve"/>
      <point x="527.352" y="211.203" type="line"/>
      <point x="488.942" y="172.597"/>
      <point x="442.51" y="153.196"/>
      <point x="388.054" y="153" type="curve" smooth="yes"/>
      <point x="333.516" y="153"/>
      <point x="286.964" y="172.282"/>
      <point x="248.4" y="210.847" type="curve" smooth="yes"/>
      <point x="209.836" y="249.411"/>
      <point x="190.554" y="295.962"/>
      <point x="190.554" y="350.5" type="curve" smooth="yes"/>
      <point x="190.554" y="405.038"/>
      <point x="209.836" y="451.589"/>
      <point x="248.4" y="490.153" type="curve" smooth="yes"/>
      <point x="286.964" y="528.718"/>
      <point x="333.516" y="548"/>
    </contour>
  </outline>
</glyph>
<glyph name="ordfeminine" format="2">
  <advance width="359"/>
  <unicode hex="00AA"/>
  <outline>
    <contour>
      <point x="243.8" y="699.8" type="line"/>
      <point x="332.6" y="699.8" type="line"/>
      <point x="332.6" y="399.8" type="line"/>
      <point x="243.8" y="399.8" type="line"/>
      <point x="243.8" y="419.594" type="line"/>
      <point x="223.036" y="401.598"/>
      <point x="196.436" y="392.6"/>
      <point x="164" y="392.6" type="curve" smooth="yes"/>
      <point x="121.2" y="392.6"/>
      <point x="85.4997" y="407.8"/>
      <point x="56.8994" y="438.2" type="curve" smooth="yes"/>
      <point x="28.2998" y="468.6"/>
      <point x="14" y="505.8"/>
      <point x="14" y="549.8" type="curve" smooth="yes"/>
      <point x="14" y="593.8"/>
      <point x="28.2998" y="631"/>
      <point x="56.8994" y="661.399" type="curve" smooth="yes"/>
      <point x="85.4997" y="691.8"/>
      <point x="121.2" y="707"/>
      <point x="164" y="707" type="curve" smooth="yes"/>
      <point x="195.563" y="707"/>
      <point x="222.163" y="697.007"/>
      <point x="243.8" y="677.022" type="curve"/>
    </contour>
    <contour>
      <point x="174.2" y="606.2" type="curve" smooth="yes"/>
      <point x="158.6" y="606.2"/>
      <point x="145.3" y="600.7"/>
      <point x="134.3" y="589.7" type="curve" smooth="yes"/>
      <point x="123.3" y="578.7"/>
      <point x="117.8" y="565.4"/>
      <point x="117.8" y="549.8" type="curve" smooth="yes"/>
      <point x="117.8" y="534.2"/>
      <point x="123.3" y="520.899"/>
      <point x="134.3" y="509.899" type="curve" smooth="yes"/>
      <point x="145.3" y="498.899"/>
      <point x="158.6" y="493.399"/>
      <point x="174.2" y="493.399" type="curve" smooth="yes"/>
      <point x="189.8" y="493.399"/>
      <point x="203.1" y="498.899"/>
      <point x="214.1" y="509.899" type="curve" smooth="yes"/>
      <point x="225.1" y="520.899"/>
      <point x="230.6" y="534.2"/>
      <point x="230.6" y="549.8" type="curve" smooth="yes"/>
      <point x="230.6" y="565.4"/>
      <point x="225.1" y="578.7"/>
      <point x="214.1" y="589.7" type="curve" smooth="yes"/>
      <point x="203.1" y="600.7"/>
      <point x="189.8" y="606.2"/>
    </contour>
  </outline>
</glyph>
<glyph name="guillemotleft" format="2">
  <advance width="826"/>
  <unicode hex="00AB"/>
  <outline>
    <contour>
      <point x="301.006" y="544.221" type="line"/>
      <point x="421.215" y="424.013" type="line"/>
      <point x="295.201" y="298" type="line"/>
      <point x="421.215" y="171.987" type="line"/>
      <point x="301.006" y="51.7793" type="line"/>
      <point x="54.7852" y="298" type="line"/>
    </contour>
    <contour>
      <point x="644.006" y="544.221" type="line"/>
      <point x="764.215" y="424.013" type="line"/>
      <point x="638.201" y="298" type="line"/>
      <point x="764.215" y="171.987" type="line"/>
      <point x="644.006" y="51.7793" type="line"/>
      <point x="397.785" y="298" type="line"/>
    </contour>
  </outline>
</glyph>
<glyph name="logicalnot" format="2">
  <advance width="640"/>
  <unicode hex="00AC"/>
  <outline>
    <contour>
      <point x="130" y="239" type="line"/>
      <point x="130" y="409" type="line"/>
      <point x="500" y="409" type="line"/>
      <point x="500" y="135" type="line"/>
      <point x="330" y="135" type="line"/>
      <point x="330" y="239" type="line"/>
    </contour>
  </outline>
</glyph>
<glyph name="registered" format="2">
  <advance width="608"/>
  <unicode hex="00AE"/>
  <outline>
    <contour>
      <point x="304" y="712" type="curve" smooth="yes"/>
      <point x="382.667" y="712"/>
      <point x="449.667" y="684.333"/>
      <point x="505" y="629" type="curve" smooth="yes"/>
      <point x="560.333" y="573.667"/>
      <point x="588" y="506.667"/>
      <point x="588" y="428" type="curve" smooth="yes"/>
      <point x="588" y="349.333"/>
      <point x="560.333" y="282.333"/>
      <point x="505" y="227" type="curve" smooth="yes"/>
      <point x="449.667" y="171.667"/>
      <point x="382.667" y="144"/>
      <point x="304" y="144" type="curve" smooth="yes"/>
      <point x="225.333" y="144"/>
      <point x="158.333" y="171.667"/>
      <point x="103" y="227" type="curve" smooth="yes"/>
      <point x="47.6667" y="282.333"/>
      <point x="20" y="349.333"/>
      <point x="20" y="428" type="curve" smooth="yes"/>
      <point x="20" y="506.667"/>
      <point x="47.6667" y="573.667"/>
      <point x="103" y="629" type="curve" smooth="yes"/>
      <point x="158.333" y="684.333"/>
      <point x="225.333" y="712"/>
    </contour>
    <contour>
      <point x="304" y="612" type="curve" smooth="yes"/>
      <point x="253.333" y="612"/>
      <point x="210" y="594"/>
      <point x="174" y="558" type="curve" smooth="yes"/>
      <point x="138" y="522"/>
      <point x="120" y="478.667"/>
      <point x="120" y="428" type="curve" smooth="yes"/>
      <point x="120" y="377.333"/>
      <point x="138" y="334"/>
      <point x="174" y="298" type="curve" smooth="yes"/>
      <point x="210" y="262"/>
      <point x="253.333" y="244"/>
      <point x="304" y="244" type="curve" smooth="yes"/>
      <point x="354.667" y="244"/>
      <point x="398" y="262"/>
      <point x="434" y="298" type="curve" smooth="yes"/>
      <point x="470" y="334"/>
      <point x="488" y="377.333"/>
      <point x="488" y="428" type="curve" smooth="yes"/>
      <point x="488" y="478.667"/>
      <point x="470" y="522"/>
      <point x="434" y="558" type="curve" smooth="yes"/>
      <point x="398" y="594"/>
      <point x="354.667" y="612"/>
    </contour>
    <contour>
      <point x="197" y="577" type="line"/>
      <point x="317.636" y="577" type="line" smooth="yes"/>
      <point x="345.761" y="577"/>
      <point x="369.767" y="567.056"/>
      <point x="389.654" y="547.169" type="curve" smooth="yes"/>
      <point x="409.542" y="527.282"/>
      <point x="419.485" y="503.275"/>
      <point x="419.485" y="475.15" type="curve" smooth="yes"/>
      <point x="419.485" y="458.901"/>
      <point x="416.342" y="444.184"/>
      <point x="410.054" y="431" type="curve" smooth="yes"/>
      <point x="403.464" y="417.182"/>
      <point x="393.421" y="405.047"/>
      <point x="379.925" y="394.595" type="curve"/>
      <point x="419.45" y="286" type="line"/>
      <point x="331.147" y="286" type="line"/>
      <point x="299.372" y="373.3" type="line"/>
      <point x="278.581" y="373.3" type="line"/>
      <point x="278.581" y="286" type="line"/>
      <point x="197" y="286" type="line"/>
    </contour>
    <contour>
      <point x="278.581" y="499.081" type="line"/>
      <point x="278.581" y="451.219" type="line"/>
      <point x="307.636" y="451.219" type="line" smooth="yes"/>
      <point x="316.098" y="451.219"/>
      <point x="323.202" y="453.429"/>
      <point x="328.948" y="457.849" type="curve" smooth="yes"/>
      <point x="334.694" y="462.269"/>
      <point x="337.567" y="468.036"/>
      <point x="337.567" y="475.15" type="curve" smooth="yes"/>
      <point x="337.567" y="482.264"/>
      <point x="334.694" y="488.031"/>
      <point x="328.948" y="492.451" type="curve" smooth="yes"/>
      <point x="323.202" y="496.871"/>
      <point x="316.098" y="499.081"/>
      <point x="307.636" y="499.081" type="curve" smooth="yes"/>
    </contour>
  </outline>
</glyph>
<glyph name="macron" format="2">
  <advance width="300"/>
  <unicode hex="00AF"/>
  <outline>
    <contour>
      <point x="-20" y="549" type="line"/>
      <point x="-20" y="700" type="line"/>
      <point x="320" y="700" type="line"/>
      <point x="320" y="549" type="line"/>
    </contour>
  </outline>
</glyph>
<glyph name="degree" format="2">
  <advance width="393"/>
  <unicode hex="00B0"/>
  <outline>
    <contour>
      <point x="196.5" y="724.5" type="curve" smooth="yes"/>
      <point x="241.619" y="724.5"/>
      <point x="280.149" y="708.53"/>
      <point x="312.09" y="676.59" type="curve" smooth="yes"/>
      <point x="344.03" y="644.649"/>
      <point x="360" y="606.119"/>
      <point x="360" y="561" type="curve" smooth="yes"/>
      <point x="360" y="515.881"/>
      <point x="344.03" y="477.351"/>
      <point x="312.09" y="445.41" type="curve" smooth="yes"/>
      <point x="280.149" y="413.47"/>
      <point x="241.619" y="397.5"/>
      <point x="196.5" y="397.5" type="curve" smooth="yes"/>
      <point x="151.381" y="397.5"/>
      <point x="112.851" y="413.47"/>
      <point x="80.9102" y="445.41" type="curve" smooth="yes"/>
      <point x="48.9697" y="477.351"/>
      <point x="33" y="515.881"/>
      <point x="33" y="561" type="curve" smooth="yes"/>
      <point x="33" y="606.119"/>
      <point x="48.9697" y="644.649"/>
      <point x="80.9102" y="676.59" type="curve" smooth="yes"/>
      <point x="112.851" y="708.53"/>
      <point x="151.381" y="724.5"/>
    </contour>
    <contour>
      <point x="196.5" y="584.5" type="curve" smooth="yes"/>
      <point x="190.015" y="584.5"/>
      <point x="184.477" y="582.205"/>
      <point x="179.886" y="577.614" type="curve" smooth="yes"/>
      <point x="175.295" y="573.023"/>
      <point x="173" y="567.485"/>
      <point x="173" y="561" type="curve" smooth="yes"/>
      <point x="173" y="554.515"/>
      <point x="175.295" y="548.977"/>
      <point x="179.886" y="544.386" type="curve" smooth="yes"/>
      <point x="184.477" y="539.795"/>
      <point x="190.015" y="537.5"/>
      <point x="196.5" y="537.5" type="curve" smooth="yes"/>
      <point x="202.985" y="537.5"/>
      <point x="208.523" y="539.795"/>
      <point x="213.114" y="544.386" type="curve" smooth="yes"/>
      <point x="217.705" y="548.977"/>
      <point x="220" y="554.515"/>
      <point x="220" y="561" type="curve" smooth="yes"/>
      <point x="220" y="567.485"/>
      <point x="217.705" y="573.023"/>
      <point x="213.114" y="577.614" type="curve" smooth="yes"/>
      <point x="208.523" y="582.205"/>
      <point x="202.985" y="584.5"/>
    </contour>
  </outline>
</glyph>
<glyph name="plusminus" format="2">
  <advance width="646"/>
  <unicode hex="00B1"/>
  <outline>
    <contour>
      <point x="88" y="0" type="line"/>
      <point x="88" y="170" type="line"/>
      <point x="558" y="170" type="line"/>
      <point x="558" y="0" type="line"/>
    </contour>
    <contour>
      <point x="103" y="308" type="line"/>
      <point x="103" y="478" type="line"/>
      <point x="238" y="478" type="line"/>
      <point x="238" y="608" type="line"/>
      <point x="408" y="608" type="line"/>
      <point x="408" y="478" type="line"/>
      <point x="543" y="478" type="line"/>
      <point x="543" y="308" type="line"/>
      <point x="408" y="308" type="line"/>
      <point x="408" y="178" type="line"/>
      <point x="238" y="178" type="line"/>
      <point x="238" y="308" type="line"/>
    </contour>
  </outline>
</glyph>
<glyph name="uni00B2" format="2">
  <advance width="372"/>
  <unicode hex="00B2"/>
  <outline>
    <contour>
      <point x="180" y="808" type="curve" smooth="yes"/>
      <point x="218.768" y="808"/>
      <point x="252.689" y="794.342"/>
      <point x="281.766" y="767.026" type="curve" smooth="yes"/>
      <point x="310.842" y="739.711"/>
      <point x="325.38" y="707.069"/>
      <point x="325.38" y="669.1" type="curve" smooth="yes"/>
      <point x="325.242" y="627.465"/>
      <point x="312.046" y="594.044"/>
      <point x="285.793" y="568.836" type="curve" smooth="yes"/>
      <point x="191.366" y="482.199" type="line"/>
      <point x="324.3" y="482.199" type="line"/>
      <point x="324.3" y="380.199" type="line"/>
      <point x="41.0996" y="380.199" type="line"/>
      <point x="41.0996" y="482.199" type="line"/>
      <point x="208.325" y="635.969" type="line" smooth="yes"/>
      <point x="218.359" y="646.002"/>
      <point x="223.376" y="657.046"/>
      <point x="223.376" y="669.1" type="curve" smooth="yes"/>
      <point x="223.376" y="680.423"/>
      <point x="219.361" y="689.414"/>
      <point x="211.33" y="696.071" type="curve" smooth="yes"/>
      <point x="203.301" y="702.728"/>
      <point x="194.057" y="706.038"/>
      <point x="183.6" y="706" type="curve" smooth="yes"/>
      <point x="173.293" y="705.962"/>
      <point x="164.197" y="702.881"/>
      <point x="156.312" y="696.758" type="curve" smooth="yes"/>
      <point x="148.426" y="690.634"/>
      <point x="144.03" y="682.255"/>
      <point x="143.122" y="671.621" type="curve"/>
      <point x="42.9961" y="691.084" type="line"/>
      <point x="48.3906" y="724.74"/>
      <point x="64.0518" y="752.631"/>
      <point x="89.9795" y="774.757" type="curve" smooth="yes"/>
      <point x="115.907" y="796.882"/>
      <point x="145.914" y="807.964"/>
    </contour>
  </outline>
</glyph>
<glyph name="uni00B3" format="2">
  <advance width="361"/>
  <unicode hex="00B3"/>
  <outline>
    <contour>
      <point x="182" y="807" type="curve" smooth="yes"/>
      <point x="220" y="807"/>
      <point x="252.6" y="794.3"/>
      <point x="279.8" y="768.9" type="curve" smooth="yes"/>
      <point x="307" y="743.5"/>
      <point x="320.6" y="712.8"/>
      <point x="320.6" y="676.8" type="curve" smooth="yes"/>
      <point x="320.587" y="661.936"/>
      <point x="316.067" y="646.136"/>
      <point x="307.04" y="629.4" type="curve" smooth="yes"/>
      <point x="300.635" y="617.524"/>
      <point x="291.96" y="605.177"/>
      <point x="281.015" y="592.359" type="curve"/>
      <point x="291.531" y="580.368"/>
      <point x="300.028" y="568.716"/>
      <point x="306.507" y="557.4" type="curve" smooth="yes"/>
      <point x="316.896" y="539.257"/>
      <point x="322.093" y="521.981"/>
      <point x="322.1" y="505.575" type="curve" smooth="yes"/>
      <point x="322.1" y="469.306"/>
      <point x="308.317" y="438.273"/>
      <point x="280.754" y="412.479" type="curve" smooth="yes"/>
      <point x="253.19" y="386.684"/>
      <point x="220.272" y="373.815"/>
      <point x="182" y="373.875" type="curve" smooth="yes"/>
      <point x="149.278" y="373.925"/>
      <point x="119.505" y="383.56"/>
      <point x="92.6797" y="402.778" type="curve" smooth="yes"/>
      <point x="65.8545" y="421.997"/>
      <point x="49.0186" y="446.31"/>
      <point x="42.1738" y="475.715" type="curve"/>
      <point x="141.402" y="499.329" type="line"/>
      <point x="143.539" y="491.355"/>
      <point x="148.58" y="485.451"/>
      <point x="156.524" y="481.614" type="curve" smooth="yes"/>
      <point x="164.47" y="477.777"/>
      <point x="173.361" y="475.859"/>
      <point x="183.199" y="475.859" type="curve" smooth="yes"/>
      <point x="192.505" y="475.859"/>
      <point x="200.981" y="478.891"/>
      <point x="208.629" y="484.952" type="curve" smooth="yes"/>
      <point x="216.276" y="491.014"/>
      <point x="220.1" y="498.688"/>
      <point x="220.1" y="507.975" type="curve" smooth="yes"/>
      <point x="220.1" y="517.819"/>
      <point x="216.646" y="525.773"/>
      <point x="209.738" y="531.835" type="curve" smooth="yes"/>
      <point x="202.83" y="537.896"/>
      <point x="193.584" y="540.928"/>
      <point x="182" y="540.928" type="curve" smooth="yes"/>
      <point x="161.6" y="540.928" type="line"/>
      <point x="161.6" y="642.928" type="line"/>
      <point x="182" y="642.928" type="line" smooth="yes"/>
      <point x="192.899" y="642.928"/>
      <point x="201.725" y="645.948"/>
      <point x="208.475" y="651.988" type="curve" smooth="yes"/>
      <point x="215.225" y="658.028"/>
      <point x="218.6" y="665.898"/>
      <point x="218.6" y="675.6" type="curve" smooth="yes"/>
      <point x="218.6" y="684.8"/>
      <point x="214.899" y="692"/>
      <point x="207.5" y="697.2" type="curve" smooth="yes"/>
      <point x="200.1" y="702.4"/>
      <point x="191.6" y="705"/>
      <point x="182" y="705" type="curve" smooth="yes"/>
      <point x="169.58" y="705"/>
      <point x="159.979" y="702.495"/>
      <point x="153.199" y="697.486" type="curve" smooth="yes"/>
      <point x="147.918" y="693.585"/>
      <point x="144.348" y="688.163"/>
      <point x="142.488" y="681.223" type="curve"/>
      <point x="43.5293" y="705.945" type="line"/>
      <point x="50.2295" y="735.118"/>
      <point x="66.876" y="759.254"/>
      <point x="93.4668" y="778.353" type="curve" smooth="yes"/>
      <point x="120.058" y="797.451"/>
      <point x="149.568" y="807"/>
    </contour>
  </outline>
</glyph>
<glyph name="acute" format="2">
  <advance width="302"/>
  <unicode hex="00B4"/>
  <outline>
    <contour>
      <point x="-2" y="553.5" type="line"/>
      <point x="104" y="700.5" type="line"/>
      <point x="300" y="700.5" type="line"/>
      <point x="174" y="553.5" type="line"/>
    </contour>
  </outline>
</glyph>
<glyph name="mu" format="2">
  <advance width="578"/>
  <unicode hex="00B5"/>
  <outline>
    <contour>
      <point x="533" y="500" type="line"/>
      <point x="533" y="0" type="line"/>
      <point x="385" y="0" type="line"/>
      <point x="385" y="35.1152" type="line"/>
      <point x="368.023" y="3.70507"/>
      <point x="335.19" y="-12"/>
      <point x="286.5" y="-12" type="curve" smooth="yes"/>
      <point x="242.096" y="-12"/>
      <point x="209.262" y="2.48287"/>
      <point x="188" y="31.4486" type="curve"/>
      <point x="188" y="-200" type="line"/>
      <point x="40" y="-200" type="line"/>
      <point x="40" y="500" type="line"/>
      <point x="210" y="500" type="line"/>
      <point x="210" y="244" type="line" smooth="yes"/>
      <point x="210" y="218.667"/>
      <point x="217.5" y="198"/>
      <point x="232.5" y="182" type="curve" smooth="yes"/>
      <point x="247.5" y="166"/>
      <point x="265.5" y="158"/>
      <point x="286.5" y="158" type="curve" smooth="yes"/>
      <point x="307.5" y="158"/>
      <point x="325.5" y="166"/>
      <point x="340.5" y="182" type="curve" smooth="yes"/>
      <point x="355.5" y="198"/>
      <point x="363" y="218.667"/>
      <point x="363" y="244" type="curve" smooth="yes"/>
      <point x="363" y="500" type="line"/>
    </contour>
  </outline>
</glyph>
<glyph name="paragraph" format="2">
  <advance width="661"/>
  <unicode hex="00B6"/>
  <outline>
    <contour>
      <point x="250" y="700" type="curve" smooth="yes"/>
      <point x="282" y="700" type="line"/>
      <point x="601" y="700" type="line"/>
      <point x="601" y="-84" type="line"/>
      <point x="464" y="-84" type="line"/>
      <point x="464" y="530" type="line"/>
      <point x="419" y="530" type="line"/>
      <point x="419" y="-84" type="line"/>
      <point x="282" y="-84" type="line"/>
      <point x="282" y="210" type="line"/>
      <point x="250" y="210" type="line" smooth="yes"/>
      <point x="182.667" y="210"/>
      <point x="125" y="234"/>
      <point x="77" y="282" type="curve" smooth="yes"/>
      <point x="29" y="330"/>
      <point x="5" y="387.667"/>
      <point x="5" y="455" type="curve" smooth="yes"/>
      <point x="5" y="522.333"/>
      <point x="29" y="580"/>
      <point x="77" y="628" type="curve" smooth="yes"/>
      <point x="125" y="676"/>
      <point x="182.667" y="700"/>
    </contour>
  </outline>
</glyph>
<glyph name="periodcentered" format="2">
  <advance width="272"/>
  <unicode hex="00B7"/>
  <outline>
    <contour>
      <point x="239" y="349" type="curve" smooth="yes"/>
      <point x="239" y="320.333"/>
      <point x="229" y="296"/>
      <point x="209" y="276" type="curve" smooth="yes"/>
      <point x="189" y="256"/>
      <point x="164.667" y="246"/>
      <point x="136" y="246" type="curve" smooth="yes"/>
      <point x="107.333" y="246"/>
      <point x="83" y="256"/>
      <point x="63" y="276" type="curve" smooth="yes"/>
      <point x="43" y="296"/>
      <point x="33" y="320.333"/>
      <point x="33" y="349" type="curve" smooth="yes"/>
      <point x="33" y="377.667"/>
      <point x="43" y="402"/>
      <point x="63" y="422" type="curve" smooth="yes"/>
      <point x="83" y="442"/>
      <point x="107.333" y="452"/>
      <point x="136" y="452" type="curve" smooth="yes"/>
      <point x="164.667" y="452"/>
      <point x="189" y="442"/>
      <point x="209" y="422" type="curve" smooth="yes"/>
      <point x="229" y="402"/>
      <point x="239" y="377.667"/>
    </contour>
  </outline>
</glyph>
<glyph name="cedilla" format="2">
  <advance width="254"/>
  <unicode hex="00B8"/>
  <outline>
    <contour>
      <point x="210.531" y="82.6602" type="line"/>
      <point x="250.842" y="49.653"/>
      <point x="270.999" y="7.09961"/>
      <point x="271" y="-45" type="curve" smooth="yes"/>
      <point x="271" y="-90.3333"/>
      <point x="254.833" y="-129.167"/>
      <point x="222.5" y="-161.5" type="curve" smooth="yes"/>
      <point x="190.167" y="-193.833"/>
      <point x="151.333" y="-210"/>
      <point x="106" y="-210" type="curve" smooth="yes"/>
      <point x="68.2624" y="-209.855"/>
      <point x="34.543" y="-198.141"/>
      <point x="4.8418" y="-174.859" type="curve"/>
      <point x="50.8294" y="-109.18"/>
      <point x="73.8216" y="-76.3431"/>
      <point x="73.8184" y="-76.3496" type="curve" smooth="yes"/>
      <point x="82.6276" y="-85.4212"/>
      <point x="93.3548" y="-89.9714"/>
      <point x="106" y="-90" type="curve" smooth="yes"/>
      <point x="118.667" y="-90"/>
      <point x="129.333" y="-85.6667"/>
      <point x="138" y="-77" type="curve" smooth="yes"/>
      <point x="146.667" y="-68.3333"/>
      <point x="151" y="-57.6667"/>
      <point x="151" y="-45" type="curve" smooth="yes"/>
      <point x="150.99" y="-33.6061"/>
      <point x="147.202" y="-23.6693"/>
      <point x="139.639" y="-15.1895" type="curve" smooth="yes"/>
      <point x="132.076" y="-6.70964"/>
      <point x="122.715" y="-1.77539"/>
      <point x="111.559" y="-0.386719" type="curve"/>
    </contour>
  </outline>
</glyph>
<glyph name="uni00B9" format="2">
  <advance width="285"/>
  <unicode hex="00B9"/>
  <outline>
    <contour>
      <point x="126" y="800" type="line"/>
      <point x="228" y="800" type="line"/>
      <point x="228" y="380" type="line"/>
      <point x="126" y="380" type="line"/>
      <point x="126" y="666.849" type="line"/>
      <point x="72.0615" y="621.589" type="line"/>
      <point x="6.49609" y="699.725" type="line"/>
    </contour>
  </outline>
</glyph>
<glyph name="ordmasculine" format="2">
  <advance width="348"/>
  <unicode hex="00BA"/>
  <outline>
    <contour>
      <point x="173.8" y="707" type="curve" smooth="yes"/>
      <point x="217.209" y="707"/>
      <point x="254.262" y="691.652"/>
      <point x="284.957" y="660.957" type="curve" smooth="yes"/>
      <point x="315.652" y="630.262"/>
      <point x="331" y="593.209"/>
      <point x="331" y="549.8" type="curve" smooth="yes"/>
      <point x="331" y="506.391"/>
      <point x="315.652" y="469.338"/>
      <point x="284.957" y="438.643" type="curve" smooth="yes"/>
      <point x="254.262" y="407.947"/>
      <point x="217.209" y="392.6"/>
      <point x="173.8" y="392.6" type="curve" smooth="yes"/>
      <point x="130.391" y="392.6"/>
      <point x="93.3379" y="407.947"/>
      <point x="62.6426" y="438.643" type="curve" smooth="yes"/>
      <point x="31.9473" y="469.338"/>
      <point x="16.5996" y="506.391"/>
      <point x="16.5996" y="549.8" type="curve" smooth="yes"/>
      <point x="16.5996" y="593.209"/>
      <point x="31.9473" y="630.262"/>
      <point x="62.6426" y="660.957" type="curve" smooth="yes"/>
      <point x="93.3379" y="691.652"/>
      <point x="130.391" y="707"/>
    </contour>
    <contour>
      <point x="173.8" y="605" type="curve" smooth="yes"/>
      <point x="158.557" y="605"/>
      <point x="145.546" y="599.61"/>
      <point x="134.768" y="588.832" type="curve" smooth="yes"/>
      <point x="123.989" y="578.054"/>
      <point x="118.6" y="565.043"/>
      <point x="118.6" y="549.8" type="curve" smooth="yes"/>
      <point x="118.6" y="534.557"/>
      <point x="123.989" y="521.546"/>
      <point x="134.768" y="510.768" type="curve" smooth="yes"/>
      <point x="145.546" y="499.989"/>
      <point x="158.557" y="494.6"/>
      <point x="173.8" y="494.6" type="curve" smooth="yes"/>
      <point x="189.043" y="494.6"/>
      <point x="202.054" y="499.989"/>
      <point x="212.832" y="510.768" type="curve" smooth="yes"/>
      <point x="223.61" y="521.546"/>
      <point x="229" y="534.557"/>
      <point x="229" y="549.8" type="curve" smooth="yes"/>
      <point x="229" y="565.043"/>
      <point x="223.61" y="578.054"/>
      <point x="212.832" y="588.832" type="curve" smooth="yes"/>
      <point x="202.054" y="599.61"/>
      <point x="189.043" y="605"/>
    </contour>
  </outline>
</glyph>
<glyph name="guillemotright" format="2">
  <advance width="826"/>
  <unicode hex="00BB"/>
  <outline>
    <contour>
      <point x="174.994" y="544.221" type="line"/>
      <point x="54.7852" y="424.013" type="line"/>
      <point x="180.799" y="298" type="line"/>
      <point x="54.7852" y="171.987" type="line"/>
      <point x="174.994" y="51.7793" type="line"/>
      <point x="421.215" y="298" type="line"/>
    </contour>
    <contour>
      <point x="514.994" y="544.221" type="line"/>
      <point x="394.785" y="424.013" type="line"/>
      <point x="520.799" y="298" type="line"/>
      <point x="394.785" y="171.987" type="line"/>
      <point x="514.994" y="51.7793" type="line"/>
      <point x="761.215" y="298" type="line"/>
    </contour>
  </outline>
</glyph>
<glyph name="onequarter" format="2">
  <advance width="854"/>
  <unicode hex="00BC"/>
  <outline>
    <contour>
      <point x="596.43" y="420.264" type="line"/>
      <point x="688.873" y="377.156" type="line"/>
      <point x="586.938" y="166.8" type="line"/>
      <point x="659.4" y="166.8" type="line"/>
      <point x="659.4" y="279" type="line"/>
      <point x="761.4" y="279" type="line"/>
      <point x="761.4" y="166.8" type="line"/>
      <point x="813.601" y="166.8" type="line"/>
      <point x="813.601" y="64.7998" type="line"/>
      <point x="761.4" y="64.7998" type="line"/>
      <point x="761.4" y="0" type="line"/>
      <point x="659.4" y="0" type="line"/>
      <point x="659.4" y="64.7998" type="line"/>
      <point x="474.601" y="64.7998" type="line"/>
      <point x="474.601" y="166.8" type="line"/>
    </contour>
    <contour>
      <point x="578" y="697" type="line"/>
      <point x="671.643" y="633.1" type="line"/>
      <point x="228" y="12" type="line"/>
      <point x="136.131" y="74.6484" type="line"/>
    </contour>
    <contour>
      <point x="126" y="700" type="line"/>
      <point x="228" y="700" type="line"/>
      <point x="228" y="280" type="line"/>
      <point x="126" y="280" type="line"/>
      <point x="126" y="566.849" type="line"/>
      <point x="72.0615" y="521.589" type="line"/>
      <point x="6.49609" y="599.725" type="line"/>
    </contour>
  </outline>
</glyph>
<glyph name="onehalf" format="2">
  <advance width="883"/>
  <unicode hex="00BD"/>
  <outline>
    <contour>
      <point x="688" y="428" type="curve" smooth="yes"/>
      <point x="726.768" y="428"/>
      <point x="760.689" y="414.342"/>
      <point x="789.766" y="387.026" type="curve" smooth="yes"/>
      <point x="818.842" y="359.711"/>
      <point x="833.38" y="327.069"/>
      <point x="833.38" y="289.1" type="curve" smooth="yes"/>
      <point x="833.242" y="247.465"/>
      <point x="820.046" y="214.044"/>
      <point x="793.793" y="188.836" type="curve" smooth="yes"/>
      <point x="699.366" y="102.199" type="line"/>
      <point x="832.3" y="102.199" type="line"/>
      <point x="832.3" y="0.199219" type="line"/>
      <point x="549.1" y="0.199219" type="line"/>
      <point x="549.1" y="102.199" type="line"/>
      <point x="716.325" y="255.969" type="line" smooth="yes"/>
      <point x="726.359" y="266.002"/>
      <point x="731.376" y="277.046"/>
      <point x="731.376" y="289.1" type="curve" smooth="yes"/>
      <point x="731.376" y="300.423"/>
      <point x="727.36" y="309.414"/>
      <point x="719.33" y="316.071" type="curve" smooth="yes"/>
      <point x="711.301" y="322.729"/>
      <point x="702.058" y="326.038"/>
      <point x="691.6" y="326" type="curve" smooth="yes"/>
      <point x="681.293" y="325.962"/>
      <point x="672.197" y="322.881"/>
      <point x="664.312" y="316.758" type="curve" smooth="yes"/>
      <point x="656.426" y="310.634"/>
      <point x="652.029" y="302.255"/>
      <point x="651.122" y="291.621" type="curve"/>
      <point x="550.996" y="311.084" type="line"/>
      <point x="556.391" y="344.739"/>
      <point x="572.052" y="372.631"/>
      <point x="597.979" y="394.757" type="curve" smooth="yes"/>
      <point x="623.907" y="416.883"/>
      <point x="653.914" y="427.964"/>
    </contour>
    <contour>
      <point x="578" y="697" type="line"/>
      <point x="671.643" y="633.1" type="line"/>
      <point x="228" y="12" type="line"/>
      <point x="136.131" y="74.6484" type="line"/>
    </contour>
    <contour>
      <point x="126" y="700" type="line"/>
      <point x="228" y="700" type="line"/>
      <point x="228" y="280" type="line"/>
      <point x="126" y="280" type="line"/>
      <point x="126" y="566.849" type="line"/>
      <point x="72.0615" y="521.589" type="line"/>
      <point x="6.49609" y="599.725" type="line"/>
    </contour>
  </outline>
</glyph>
<glyph name="threequarters" format="2">
  <advance width="924"/>
  <unicode hex="00BE"/>
  <outline>
    <contour>
      <point x="669.43" y="420.264" type="line"/>
      <point x="761.873" y="377.156" type="line"/>
      <point x="659.938" y="166.8" type="line"/>
      <point x="732.4" y="166.8" type="line"/>
      <point x="732.4" y="279" type="line"/>
      <point x="834.4" y="279" type="line"/>
      <point x="834.4" y="166.8" type="line"/>
      <point x="886.601" y="166.8" type="line"/>
      <point x="886.601" y="64.7998" type="line"/>
      <point x="834.4" y="64.7998" type="line"/>
      <point x="834.4" y="0" type="line"/>
      <point x="732.4" y="0" type="line"/>
      <point x="732.4" y="64.7998" type="line"/>
      <point x="547.601" y="64.7998" type="line"/>
      <point x="547.601" y="166.8" type="line"/>
    </contour>
    <contour>
      <point x="651" y="697" type="line"/>
      <point x="744.643" y="633.1" type="line"/>
      <point x="301" y="12" type="line"/>
      <point x="209.131" y="74.6484" type="line"/>
    </contour>
    <contour>
      <point x="179" y="707" type="curve" smooth="yes"/>
      <point x="217" y="707"/>
      <point x="249.6" y="694.3"/>
      <point x="276.8" y="668.9" type="curve" smooth="yes"/>
      <point x="304" y="643.5"/>
      <point x="317.6" y="612.8"/>
      <point x="317.6" y="576.8" type="curve" smooth="yes"/>
      <point x="317.587" y="561.936"/>
      <point x="313.067" y="546.136"/>
      <point x="304.04" y="529.4" type="curve" smooth="yes"/>
      <point x="297.635" y="517.524"/>
      <point x="288.96" y="505.177"/>
      <point x="278.015" y="492.359" type="curve"/>
      <point x="288.531" y="480.368"/>
      <point x="297.028" y="468.715"/>
      <point x="303.507" y="457.4" type="curve" smooth="yes"/>
      <point x="313.896" y="439.257"/>
      <point x="319.093" y="421.981"/>
      <point x="319.1" y="405.575" type="curve" smooth="yes"/>
      <point x="319.1" y="369.306"/>
      <point x="305.318" y="338.273"/>
      <point x="277.754" y="312.479" type="curve" smooth="yes"/>
      <point x="250.191" y="286.684"/>
      <point x="217.273" y="273.816"/>
      <point x="179" y="273.875" type="curve" smooth="yes"/>
      <point x="146.279" y="273.925"/>
      <point x="116.505" y="283.56"/>
      <point x="89.6797" y="302.778" type="curve" smooth="yes"/>
      <point x="62.8542" y="321.997"/>
      <point x="46.0189" y="346.309"/>
      <point x="39.1738" y="375.715" type="curve"/>
      <point x="138.402" y="399.329" type="line"/>
      <point x="140.539" y="391.356"/>
      <point x="145.58" y="385.451"/>
      <point x="153.524" y="381.614" type="curve" smooth="yes"/>
      <point x="161.47" y="377.778"/>
      <point x="170.361" y="375.859"/>
      <point x="180.199" y="375.859" type="curve" smooth="yes"/>
      <point x="189.505" y="375.859"/>
      <point x="197.982" y="378.89"/>
      <point x="205.629" y="384.952" type="curve" smooth="yes"/>
      <point x="213.276" y="391.013"/>
      <point x="217.1" y="398.688"/>
      <point x="217.1" y="407.975" type="curve" smooth="yes"/>
      <point x="217.1" y="417.82"/>
      <point x="213.646" y="425.773"/>
      <point x="206.738" y="431.835" type="curve" smooth="yes"/>
      <point x="199.83" y="437.897"/>
      <point x="190.584" y="440.928"/>
      <point x="179" y="440.928" type="curve" smooth="yes"/>
      <point x="158.6" y="440.928" type="line"/>
      <point x="158.6" y="542.928" type="line"/>
      <point x="179" y="542.928" type="line" smooth="yes"/>
      <point x="189.9" y="542.928"/>
      <point x="198.725" y="545.948"/>
      <point x="205.475" y="551.988" type="curve" smooth="yes"/>
      <point x="212.225" y="558.028"/>
      <point x="215.6" y="565.898"/>
      <point x="215.6" y="575.6" type="curve" smooth="yes"/>
      <point x="215.6" y="584.8"/>
      <point x="211.9" y="592"/>
      <point x="204.5" y="597.2" type="curve" smooth="yes"/>
      <point x="197.1" y="602.4"/>
      <point x="188.6" y="605"/>
      <point x="179" y="605" type="curve" smooth="yes"/>
      <point x="166.58" y="605"/>
      <point x="156.98" y="602.495"/>
      <point x="150.199" y="597.486" type="curve" smooth="yes"/>
      <point x="144.918" y="593.585"/>
      <point x="141.348" y="588.163"/>
      <point x="139.488" y="581.223" type="curve"/>
      <point x="40.5293" y="605.945" type="line"/>
      <point x="47.2298" y="635.118"/>
      <point x="63.8757" y="659.254"/>
      <point x="90.4668" y="678.353" type="curve" smooth="yes"/>
      <point x="117.057" y="697.451"/>
      <point x="146.568" y="707"/>
    </contour>
  </outline>
</glyph>
<glyph name="questiondown" format="2">
  <advance width="469"/>
  <unicode hex="00BF"/>
  <outline>
    <contour>
      <point x="144.186" y="409" type="curve" smooth="yes"/>
      <point x="144.186" y="437.667"/>
      <point x="154.186" y="462"/>
      <point x="174.186" y="482" type="curve" smooth="yes"/>
      <point x="194.186" y="502"/>
      <point x="218.519" y="512"/>
      <point x="247.186" y="512" type="curve" smooth="yes"/>
      <point x="275.853" y="512"/>
      <point x="300.186" y="502"/>
      <point x="320.186" y="482" type="curve" smooth="yes"/>
      <point x="340.186" y="462"/>
      <point x="350.186" y="437.667"/>
      <point x="350.186" y="409" type="curve" smooth="yes"/>
      <point x="350.186" y="380.333"/>
      <point x="340.186" y="356"/>
      <point x="320.186" y="336" type="curve" smooth="yes"/>
      <point x="300.186" y="316"/>
      <point x="275.853" y="306"/>
      <point x="247.186" y="306" type="curve" smooth="yes"/>
      <point x="218.519" y="306"/>
      <point x="194.186" y="316"/>
      <point x="174.186" y="336" type="curve" smooth="yes"/>
      <point x="154.186" y="356"/>
      <point x="144.186" y="380.333"/>
    </contour>
    <contour>
      <point x="238.186" y="-215" type="curve" smooth="yes"/>
      <point x="173.519" y="-215"/>
      <point x="118.186" y="-192"/>
      <point x="72.1855" y="-146" type="curve" smooth="yes"/>
      <point x="26.1855" y="-100"/>
      <point x="3.18555" y="-44.667"/>
      <point x="3.18555" y="20" type="curve" smooth="yes"/>
      <point x="3.2207" y="65.3291"/>
      <point x="15.4658" y="107.111"/>
      <point x="39.9219" y="145.347" type="curve" smooth="yes"/>
      <point x="64.3779" y="183.581"/>
      <point x="97.1953" y="212.655"/>
      <point x="138.373" y="232.568" type="curve" smooth="yes"/>
      <point x="149.324" y="237.864"/>
      <point x="157.309" y="245.341"/>
      <point x="162.325" y="255" type="curve" smooth="yes"/>
      <point x="166.544" y="263.124"/>
      <point x="168.664" y="272.79"/>
      <point x="168.686" y="284" type="curve"/>
      <point x="338.686" y="284" type="line"/>
      <point x="338.657" y="241.579"/>
      <point x="326.953" y="201.413"/>
      <point x="303.573" y="163.501" type="curve" smooth="yes"/>
      <point x="280.193" y="125.59"/>
      <point x="249.569" y="97.4785"/>
      <point x="211.699" y="79.167" type="curve" smooth="yes"/>
      <point x="199.299" y="73.1709"/>
      <point x="189.893" y="65.4482"/>
      <point x="183.481" y="56" type="curve" smooth="yes"/>
      <point x="176.664" y="45.9521"/>
      <point x="173.231" y="33.9521"/>
      <point x="173.186" y="20" type="curve" smooth="yes"/>
      <point x="173.186" y="0.666992"/>
      <point x="179.186" y="-15"/>
      <point x="191.186" y="-27" type="curve" smooth="yes"/>
      <point x="203.186" y="-39"/>
      <point x="218.853" y="-45"/>
      <point x="238.186" y="-45" type="curve" smooth="yes"/>
      <point x="255.513" y="-44.9307"/>
      <point x="270.122" y="-39.5088"/>
      <point x="282.014" y="-28.7344" type="curve" smooth="yes"/>
      <point x="293.905" y="-17.9609"/>
      <point x="300.785" y="-4.01172"/>
      <point x="302.654" y="13.1123" type="curve"/>
      <point x="471" y="-10.5488" type="line"/>
      <point x="463.337" y="-69.001"/>
      <point x="437.356" y="-117.678"/>
      <point x="393.06" y="-156.578" type="curve" smooth="yes"/>
      <point x="348.763" y="-195.479"/>
      <point x="297.138" y="-214.952"/>
    </contour>
  </outline>
</glyph>
<glyph name="Aacute" format="2">
  <advance width="689"/>
  <unicode hex="00C1"/>
  <outline>
    <contour>
      <point x="274.796" y="265" type="line"/>
      <point x="404.192" y="265" type="line"/>
      <point x="337.398" y="448.356" type="line"/>
    </contour>
    <contour>
      <point x="216.753" y="95" type="line"/>
      <point x="185" y="2" type="line"/>
      <point x="5" y="2" type="line"/>
      <point x="245" y="702" type="line"/>
      <point x="424" y="702" type="line"/>
      <point x="680" y="2" type="line"/>
      <point x="500" y="2" type="line"/>
      <point x="466.121" y="95" type="line"/>
    </contour>
    <contour>
      <point x="247" y="743.5" type="line"/>
      <point x="353" y="890.5" type="line"/>
      <point x="549" y="890.5" type="line"/>
      <point x="423" y="743.5" type="line"/>
    </contour>
  </outline>
</glyph>
<glyph name="Acircumflex" format="2">
  <advance width="695"/>
  <unicode hex="00C2"/>
  <outline>
    <contour>
      <point x="128.246" y="754" type="line"/>
      <point x="258.554" y="900" type="line"/>
      <point x="425.446" y="900" type="line"/>
      <point x="555.754" y="754" type="line"/>
      <point x="390.998" y="754" type="line"/>
      <point x="342" y="806.01" type="line"/>
      <point x="293.002" y="754" type="line"/>
    </contour>
    <contour>
      <point x="279.796" y="263" type="line"/>
      <point x="409.192" y="263" type="line"/>
      <point x="342.398" y="446.356" type="line"/>
    </contour>
    <contour>
      <point x="221.753" y="93" type="line"/>
      <point x="190" y="0" type="line"/>
      <point x="10" y="0" type="line"/>
      <point x="250" y="700" type="line"/>
      <point x="429" y="700" type="line"/>
      <point x="685" y="0" type="line"/>
      <point x="505" y="0" type="line"/>
      <point x="471.121" y="93" type="line"/>
    </contour>
  </outline>
</glyph>
<glyph name="Atilde" format="2">
  <advance width="695"/>
  <unicode hex="00C3"/>
  <outline>
    <contour>
      <point x="415" y="734" type="curve" smooth="yes"/>
      <point x="373.667" y="734"/>
      <point x="343.667" y="746"/>
      <point x="325" y="770" type="curve" smooth="yes"/>
      <point x="317.667" y="779.333"/>
      <point x="310.667" y="787.667"/>
      <point x="304" y="795" type="curve" smooth="yes"/>
      <point x="297.333" y="802.333"/>
      <point x="288.333" y="806"/>
      <point x="277" y="806" type="curve" smooth="yes"/>
      <point x="262.333" y="806"/>
      <point x="252" y="793"/>
      <point x="246" y="767" type="curve"/>
      <point x="129" y="767" type="line"/>
      <point x="131.667" y="809"/>
      <point x="147" y="843.667"/>
      <point x="175" y="871" type="curve" smooth="yes"/>
      <point x="203" y="898.333"/>
      <point x="235" y="912"/>
      <point x="271" y="912" type="curve" smooth="yes"/>
      <point x="315.667" y="912"/>
      <point x="348.333" y="900"/>
      <point x="369" y="876" type="curve" smooth="yes"/>
      <point x="377" y="866.667"/>
      <point x="384" y="858.333"/>
      <point x="390" y="851" type="curve" smooth="yes"/>
      <point x="396" y="843.667"/>
      <point x="404" y="840"/>
      <point x="414" y="840" type="curve" smooth="yes"/>
      <point x="428" y="840"/>
      <point x="436.667" y="853"/>
      <point x="440" y="879" type="curve"/>
      <point x="557" y="879" type="line"/>
      <point x="552.333" y="836.333"/>
      <point x="536.833" y="801.5"/>
      <point x="510.5" y="774.5" type="curve" smooth="yes"/>
      <point x="484.167" y="747.5"/>
      <point x="452.333" y="734"/>
    </contour>
    <contour>
      <point x="279.796" y="263" type="line"/>
      <point x="409.192" y="263" type="line"/>
      <point x="342.398" y="446.356" type="line"/>
    </contour>
    <contour>
      <point x="221.753" y="93" type="line"/>
      <point x="190" y="0" type="line"/>
      <point x="10" y="0" type="line"/>
      <point x="250" y="700" type="line"/>
      <point x="429" y="700" type="line"/>
      <point x="685" y="0" type="line"/>
      <point x="505" y="0" type="line"/>
      <point x="471.121" y="93" type="line"/>
    </contour>
  </outline>
</glyph>
<glyph name="Adieresis" format="2">
  <advance width="695"/>
  <unicode hex="00C4"/>
  <outline>
    <contour>
      <point x="203" y="945" type="curve" smooth="yes"/>
      <point x="227" y="945"/>
      <point x="247.667" y="936.333"/>
      <point x="265" y="919" type="curve" smooth="yes"/>
      <point x="282.333" y="901.667"/>
      <point x="291" y="881"/>
      <point x="291" y="857" type="curve" smooth="yes"/>
      <point x="291" y="833"/>
      <point x="282.333" y="812.333"/>
      <point x="265" y="795" type="curve" smooth="yes"/>
      <point x="247.667" y="777.667"/>
      <point x="227" y="769"/>
      <point x="203" y="769" type="curve" smooth="yes"/>
      <point x="179" y="769"/>
      <point x="158.333" y="777.667"/>
      <point x="141" y="795" type="curve" smooth="yes"/>
      <point x="123.667" y="812.333"/>
      <point x="115" y="833"/>
      <point x="115" y="857" type="curve" smooth="yes"/>
      <point x="115" y="881"/>
      <point x="123.667" y="901.667"/>
      <point x="141" y="919" type="curve" smooth="yes"/>
      <point x="158.333" y="936.333"/>
      <point x="179" y="945"/>
    </contour>
    <contour>
      <point x="473" y="945" type="curve" smooth="yes"/>
      <point x="497" y="945"/>
      <point x="517.667" y="936.333"/>
      <point x="535" y="919" type="curve" smooth="yes"/>
      <point x="552.333" y="901.667"/>
      <point x="561" y="881"/>
      <point x="561" y="857" type="curve" smooth="yes"/>
      <point x="561" y="833"/>
      <point x="552.333" y="812.333"/>
      <point x="535" y="795" type="curve" smooth="yes"/>
      <point x="517.667" y="777.667"/>
      <point x="497" y="769"/>
      <point x="473" y="769" type="curve" smooth="yes"/>
      <point x="449" y="769"/>
      <point x="428.333" y="777.667"/>
      <point x="411" y="795" type="curve" smooth="yes"/>
      <point x="393.667" y="812.333"/>
      <point x="385" y="833"/>
      <point x="385" y="857" type="curve" smooth="yes"/>
      <point x="385" y="881"/>
      <point x="393.667" y="901.667"/>
      <point x="411" y="919" type="curve" smooth="yes"/>
      <point x="428.333" y="936.333"/>
      <point x="449" y="945"/>
    </contour>
    <contour>
      <point x="279.796" y="263" type="line"/>
      <point x="409.192" y="263" type="line"/>
      <point x="342.398" y="446.356" type="line"/>
    </contour>
    <contour>
      <point x="221.753" y="93" type="line"/>
      <point x="190" y="0" type="line"/>
      <point x="10" y="0" type="line"/>
      <point x="250" y="700" type="line"/>
      <point x="429" y="700" type="line"/>
      <point x="685" y="0" type="line"/>
      <point x="505" y="0" type="line"/>
      <point x="471.121" y="93" type="line"/>
    </contour>
  </outline>
</glyph>
<glyph name="Aring" format="2">
  <advance width="689"/>
  <unicode hex="00C5"/>
  <outline>
    <contour>
      <point x="336" y="979" type="curve" smooth="yes"/>
      <point x="371.736" y="979"/>
      <point x="402.254" y="966.351"/>
      <point x="427.553" y="941.053" type="curve" smooth="yes"/>
      <point x="452.851" y="915.754"/>
      <point x="465.5" y="885.236"/>
      <point x="465.5" y="849.5" type="curve" smooth="yes"/>
      <point x="465.5" y="813.764"/>
      <point x="452.851" y="783.246"/>
      <point x="427.553" y="757.947" type="curve" smooth="yes"/>
      <point x="402.254" y="732.649"/>
      <point x="371.736" y="720"/>
      <point x="336" y="720" type="curve" smooth="yes"/>
      <point x="300.264" y="720"/>
      <point x="269.746" y="732.649"/>
      <point x="244.447" y="757.947" type="curve" smooth="yes"/>
      <point x="219.149" y="783.246"/>
      <point x="206.5" y="813.764"/>
      <point x="206.5" y="849.5" type="curve" smooth="yes"/>
      <point x="206.5" y="885.236"/>
      <point x="219.149" y="915.754"/>
      <point x="244.447" y="941.053" type="curve" smooth="yes"/>
      <point x="269.746" y="966.351"/>
      <point x="300.264" y="979"/>
    </contour>
    <contour>
      <point x="336" y="881.869" type="curve" smooth="yes"/>
      <point x="327.068" y="881.869"/>
      <point x="319.44" y="878.707"/>
      <point x="313.116" y="872.384" type="curve" smooth="yes"/>
      <point x="306.793" y="866.06"/>
      <point x="303.631" y="858.432"/>
      <point x="303.631" y="849.5" type="curve" smooth="yes"/>
      <point x="303.631" y="840.568"/>
      <point x="306.793" y="832.94"/>
      <point x="313.116" y="826.616" type="curve" smooth="yes"/>
      <point x="319.44" y="820.293"/>
      <point x="327.068" y="817.131"/>
      <point x="336" y="817.131" type="curve" smooth="yes"/>
      <point x="344.932" y="817.131"/>
      <point x="352.56" y="820.293"/>
      <point x="358.884" y="826.616" type="curve" smooth="yes"/>
      <point x="365.207" y="832.94"/>
      <point x="368.369" y="840.568"/>
      <point x="368.369" y="849.5" type="curve" smooth="yes"/>
      <point x="368.369" y="858.432"/>
      <point x="365.207" y="866.06"/>
      <point x="358.884" y="872.384" type="curve" smooth="yes"/>
      <point x="352.56" y="878.707"/>
      <point x="344.932" y="881.869"/>
    </contour>
    <contour>
      <point x="276.796" y="263" type="line"/>
      <point x="406.192" y="263" type="line"/>
      <point x="339.398" y="446.356" type="line"/>
    </contour>
    <contour>
      <point x="218.753" y="93" type="line"/>
      <point x="187" y="0" type="line"/>
      <point x="7" y="0" type="line"/>
      <point x="247" y="700" type="line"/>
      <point x="426" y="700" type="line"/>
      <point x="682" y="0" type="line"/>
      <point x="502" y="0" type="line"/>
      <point x="468.121" y="93" type="line"/>
    </contour>
  </outline>
</glyph>
<glyph name="AE" format="2">
  <advance width="1033"/>
  <unicode hex="00C6"/>
  <outline>
    <contour>
      <point x="498" y="700" type="line"/>
      <point x="973" y="700" type="line"/>
      <point x="973" y="530" type="line"/>
      <point x="668" y="530" type="line"/>
      <point x="668" y="435" type="line"/>
      <point x="903" y="435" type="line"/>
      <point x="903" y="266" type="line"/>
      <point x="668" y="266" type="line"/>
      <point x="668" y="170" type="line"/>
      <point x="974" y="170" type="line"/>
      <point x="974" y="0" type="line"/>
      <point x="498" y="0" type="line"/>
      <point x="498" y="99" type="line"/>
      <point x="292.749" y="99" type="line"/>
      <point x="225" y="0" type="line"/>
      <point x="19" y="0" type="line"/>
    </contour>
    <contour>
      <point x="498" y="398.95" type="line"/>
      <point x="406.297" y="265" type="line"/>
      <point x="498.504" y="265" type="line"/>
    </contour>
  </outline>
</glyph>
<glyph name="Ccedilla" format="2">
  <advance width="658"/>
  <unicode hex="00C7"/>
  <outline>
    <contour>
      <point x="433.695" y="82.6602" type="line"/>
      <point x="474.007" y="49.653"/>
      <point x="494.163" y="7.09961"/>
      <point x="494.164" y="-45" type="curve" smooth="yes"/>
      <point x="494.164" y="-90.3333"/>
      <point x="477.997" y="-129.167"/>
      <point x="445.664" y="-161.5" type="curve" smooth="yes"/>
      <point x="413.331" y="-193.833"/>
      <point x="374.497" y="-210"/>
      <point x="329.164" y="-210" type="curve" smooth="yes"/>
      <point x="291.426" y="-209.855"/>
      <point x="257.707" y="-198.141"/>
      <point x="228.006" y="-174.859" type="curve"/>
      <point x="273.993" y="-109.18"/>
      <point x="296.986" y="-76.3431"/>
      <point x="296.982" y="-76.3496" type="curve" smooth="yes"/>
      <point x="305.792" y="-85.4212"/>
      <point x="316.519" y="-89.9714"/>
      <point x="329.164" y="-90" type="curve" smooth="yes"/>
      <point x="341.831" y="-90"/>
      <point x="352.497" y="-85.6667"/>
      <point x="361.164" y="-77" type="curve" smooth="yes"/>
      <point x="369.831" y="-68.3333"/>
      <point x="374.164" y="-57.6667"/>
      <point x="374.164" y="-45" type="curve" smooth="yes"/>
      <point x="374.154" y="-33.6061"/>
      <point x="370.367" y="-23.6693"/>
      <point x="362.803" y="-15.1895" type="curve" smooth="yes"/>
      <point x="355.24" y="-6.70964"/>
      <point x="345.88" y="-1.77539"/>
      <point x="334.723" y="-0.386719" type="curve"/>
    </contour>
    <contour>
      <point x="386.783" y="711.5" type="curve" smooth="yes"/>
      <point x="435.922" y="711.5"/>
      <point x="482.557" y="702.155"/>
      <point x="526.688" y="683.466" type="curve" smooth="yes"/>
      <point x="570.818" y="664.777"/>
      <point x="609.589" y="638.694"/>
      <point x="643" y="605.217" type="curve"/>
      <point x="522.719" y="484.936" type="line"/>
      <point x="485.236" y="522.601"/>
      <point x="439.924" y="541.456"/>
      <point x="386.783" y="541.5" type="curve" smooth="yes"/>
      <point x="333.799" y="541.5"/>
      <point x="288.553" y="522.746"/>
      <point x="251.045" y="485.238" type="curve" smooth="yes"/>
      <point x="213.537" y="447.73"/>
      <point x="194.783" y="402.484"/>
      <point x="194.783" y="349.5" type="curve" smooth="yes"/>
      <point x="194.783" y="296.516"/>
      <point x="213.537" y="251.27"/>
      <point x="251.045" y="213.762" type="curve" smooth="yes"/>
      <point x="288.553" y="176.254"/>
      <point x="333.799" y="157.5"/>
      <point x="386.783" y="157.5" type="curve" smooth="yes"/>
      <point x="439.659" y="157.515"/>
      <point x="484.822" y="176.186"/>
      <point x="522.271" y="213.512" type="curve"/>
      <point x="641.854" y="93.9297" type="line"/>
      <point x="608.591" y="60.5618"/>
      <point x="569.996" y="34.5257"/>
      <point x="526.068" y="15.8213" type="curve" smooth="yes"/>
      <point x="482.14" y="-2.88314"/>
      <point x="435.712" y="-12.3236"/>
      <point x="386.783" y="-12.5" type="curve" smooth="yes"/>
      <point x="283.956" y="-12.5"/>
      <point x="197.122" y="24.137"/>
      <point x="126.283" y="97.4111" type="curve" smooth="yes"/>
      <point x="58.6165" y="167.404"/>
      <point x="24.7832" y="251.434"/>
      <point x="24.7832" y="349.5" type="curve" smooth="yes"/>
      <point x="24.7832" y="447.794"/>
      <point x="58.7493" y="531.961"/>
      <point x="126.682" y="602" type="curve" smooth="yes"/>
      <point x="197.486" y="675"/>
      <point x="284.186" y="711.5"/>
    </contour>
  </outline>
</glyph>
<glyph name="Egrave" format="2">
  <advance width="586"/>
  <unicode hex="00C8"/>
  <outline>
    <contour>
      <point x="227" y="754" type="line"/>
      <point x="101" y="901" type="line"/>
      <point x="297" y="901" type="line"/>
      <point x="403" y="754" type="line"/>
    </contour>
    <contour>
      <point x="60" y="0" type="line"/>
      <point x="60" y="700" type="line"/>
      <point x="535" y="700" type="line"/>
      <point x="535" y="530" type="line"/>
      <point x="230" y="530" type="line"/>
      <point x="230" y="435" type="line"/>
      <point x="465" y="435" type="line"/>
      <point x="465" y="266" type="line"/>
      <point x="230" y="266" type="line"/>
      <point x="230" y="170" type="line"/>
      <point x="536" y="170" type="line"/>
      <point x="536" y="0" type="line"/>
    </contour>
  </outline>
</glyph>
<glyph name="Eacute" format="2">
  <advance width="592"/>
  <unicode hex="00C9"/>
  <outline>
    <contour>
      <point x="63" y="0" type="line"/>
      <point x="63" y="700" type="line"/>
      <point x="538" y="700" type="line"/>
      <point x="538" y="530" type="line"/>
      <point x="233" y="530" type="line"/>
      <point x="233" y="435" type="line"/>
      <point x="468" y="435" type="line"/>
      <point x="468" y="266" type="line"/>
      <point x="233" y="266" type="line"/>
      <point x="233" y="170" type="line"/>
      <point x="539" y="170" type="line"/>
      <point x="539" y="0" type="line"/>
    </contour>
    <contour>
      <point x="208" y="750.5" type="line"/>
      <point x="314" y="897.5" type="line"/>
      <point x="510" y="897.5" type="line"/>
      <point x="384" y="750.5" type="line"/>
    </contour>
  </outline>
</glyph>
<glyph name="Ecircumflex" format="2">
  <advance width="592"/>
  <unicode hex="00CA"/>
  <outline>
    <contour>
      <point x="80.2461" y="754" type="line"/>
      <point x="210.554" y="900" type="line"/>
      <point x="377.446" y="900" type="line"/>
      <point x="507.754" y="754" type="line"/>
      <point x="342.998" y="754" type="line"/>
      <point x="294" y="806.01" type="line"/>
      <point x="245.002" y="754" type="line"/>
    </contour>
    <contour>
      <point x="63" y="0" type="line"/>
      <point x="63" y="700" type="line"/>
      <point x="538" y="700" type="line"/>
      <point x="538" y="530" type="line"/>
      <point x="233" y="530" type="line"/>
      <point x="233" y="435" type="line"/>
      <point x="468" y="435" type="line"/>
      <point x="468" y="266" type="line"/>
      <point x="233" y="266" type="line"/>
      <point x="233" y="170" type="line"/>
      <point x="539" y="170" type="line"/>
      <point x="539" y="0" type="line"/>
    </contour>
  </outline>
</glyph>
<glyph name="Edieresis" format="2">
  <advance width="592"/>
  <unicode hex="00CB"/>
  <outline>
    <contour>
      <point x="162" y="945" type="curve" smooth="yes"/>
      <point x="186" y="945"/>
      <point x="206.667" y="936.333"/>
      <point x="224" y="919" type="curve" smooth="yes"/>
      <point x="241.333" y="901.667"/>
      <point x="250" y="881"/>
      <point x="250" y="857" type="curve" smooth="yes"/>
      <point x="250" y="833"/>
      <point x="241.333" y="812.333"/>
      <point x="224" y="795" type="curve" smooth="yes"/>
      <point x="206.667" y="777.667"/>
      <point x="186" y="769"/>
      <point x="162" y="769" type="curve" smooth="yes"/>
      <point x="138" y="769"/>
      <point x="117.333" y="777.667"/>
      <point x="100" y="795" type="curve" smooth="yes"/>
      <point x="82.667" y="812.333"/>
      <point x="74" y="833"/>
      <point x="74" y="857" type="curve" smooth="yes"/>
      <point x="74" y="881"/>
      <point x="82.667" y="901.667"/>
      <point x="100" y="919" type="curve" smooth="yes"/>
      <point x="117.333" y="936.333"/>
      <point x="138" y="945"/>
    </contour>
    <contour>
      <point x="432" y="945" type="curve" smooth="yes"/>
      <point x="456" y="945"/>
      <point x="476.667" y="936.333"/>
      <point x="494" y="919" type="curve" smooth="yes"/>
      <point x="511.333" y="901.667"/>
      <point x="520" y="881"/>
      <point x="520" y="857" type="curve" smooth="yes"/>
      <point x="520" y="833"/>
      <point x="511.333" y="812.333"/>
      <point x="494" y="795" type="curve" smooth="yes"/>
      <point x="476.667" y="777.667"/>
      <point x="456" y="769"/>
      <point x="432" y="769" type="curve" smooth="yes"/>
      <point x="408" y="769"/>
      <point x="387.333" y="777.667"/>
      <point x="370" y="795" type="curve" smooth="yes"/>
      <point x="352.667" y="812.333"/>
      <point x="344" y="833"/>
      <point x="344" y="857" type="curve" smooth="yes"/>
      <point x="344" y="881"/>
      <point x="352.667" y="901.667"/>
      <point x="370" y="919" type="curve" smooth="yes"/>
      <point x="387.333" y="936.333"/>
      <point x="408" y="945"/>
    </contour>
    <contour>
      <point x="63" y="0" type="line"/>
      <point x="63" y="700" type="line"/>
      <point x="538" y="700" type="line"/>
      <point x="538" y="530" type="line"/>
      <point x="233" y="530" type="line"/>
      <point x="233" y="435" type="line"/>
      <point x="468" y="435" type="line"/>
      <point x="468" y="266" type="line"/>
      <point x="233" y="266" type="line"/>
      <point x="233" y="170" type="line"/>
      <point x="539" y="170" type="line"/>
      <point x="539" y="0" type="line"/>
    </contour>
  </outline>
</glyph>
<glyph name="Igrave" format="2">
  <advance width="296"/>
  <unicode hex="00CC"/>
  <outline>
    <contour>
      <point x="58.5" y="754" type="line"/>
      <point x="-67.5" y="901" type="line"/>
      <point x="128.5" y="901" type="line"/>
      <point x="234.5" y="754" type="line"/>
    </contour>
    <contour>
      <point x="63" y="0" type="line"/>
      <point x="63" y="700" type="line"/>
      <point x="233" y="700" type="line"/>
      <point x="233" y="0" type="line"/>
    </contour>
  </outline>
</glyph>
<glyph name="Iacute" format="2">
  <advance width="290"/>
  <unicode hex="00CD"/>
  <outline>
    <contour>
      <point x="60" y="0" type="line"/>
      <point x="60" y="700" type="line"/>
      <point x="230" y="700" type="line"/>
      <point x="230" y="0" type="line"/>
    </contour>
    <contour>
      <point x="57" y="750.5" type="line"/>
      <point x="163" y="897.5" type="line"/>
      <point x="359" y="897.5" type="line"/>
      <point x="233" y="750.5" type="line"/>
    </contour>
  </outline>
</glyph>
<glyph name="Icircumflex" format="2">
  <advance width="296"/>
  <unicode hex="00CE"/>
  <outline>
    <contour>
      <point x="-59.2539" y="754" type="line"/>
      <point x="71.0537" y="900" type="line"/>
      <point x="237.946" y="900" type="line"/>
      <point x="368.254" y="754" type="line"/>
      <point x="203.498" y="754" type="line"/>
      <point x="154.5" y="806.01" type="line"/>
      <point x="105.502" y="754" type="line"/>
    </contour>
    <contour>
      <point x="63" y="0" type="line"/>
      <point x="63" y="700" type="line"/>
      <point x="233" y="700" type="line"/>
      <point x="233" y="0" type="line"/>
    </contour>
  </outline>
</glyph>
<glyph name="Ntilde" format="2">
  <advance width="719"/>
  <unicode hex="00D1"/>
  <outline>
    <contour>
      <point x="430.5" y="714" type="curve" smooth="yes"/>
      <point x="389.167" y="714"/>
      <point x="359.167" y="726"/>
      <point x="340.5" y="750" type="curve" smooth="yes"/>
      <point x="333.167" y="759.333"/>
      <point x="326.167" y="767.667"/>
      <point x="319.5" y="775" type="curve" smooth="yes"/>
      <point x="312.833" y="782.333"/>
      <point x="303.833" y="786"/>
      <point x="292.5" y="786" type="curve" smooth="yes"/>
      <point x="277.833" y="786"/>
      <point x="267.5" y="773"/>
      <point x="261.5" y="747" type="curve"/>
      <point x="144.5" y="747" type="line"/>
      <point x="147.167" y="789"/>
      <point x="162.5" y="823.667"/>
      <point x="190.5" y="851" type="curve" smooth="yes"/>
      <point x="218.5" y="878.333"/>
      <point x="250.5" y="892"/>
      <point x="286.5" y="892" type="curve" smooth="yes"/>
      <point x="331.167" y="892"/>
      <point x="363.833" y="880"/>
      <point x="384.5" y="856" type="curve" smooth="yes"/>
      <point x="392.5" y="846.667"/>
      <point x="399.5" y="838.333"/>
      <point x="405.5" y="831" type="curve" smooth="yes"/>
      <point x="411.5" y="823.667"/>
      <point x="419.5" y="820"/>
      <point x="429.5" y="820" type="curve" smooth="yes"/>
      <point x="443.5" y="820"/>
      <point x="452.167" y="833"/>
      <point x="455.5" y="859" type="curve"/>
      <point x="572.5" y="859" type="line"/>
      <point x="567.833" y="816.333"/>
      <point x="552.333" y="781.5"/>
      <point x="526" y="754.5" type="curve" smooth="yes"/>
      <point x="499.667" y="727.5"/>
      <point x="467.833" y="714"/>
    </contour>
    <contour>
      <point x="63" y="700" type="line"/>
      <point x="233" y="700" type="line"/>
      <point x="486" y="311" type="line"/>
      <point x="486" y="700" type="line"/>
      <point x="656" y="700" type="line"/>
      <point x="656" y="0" type="line"/>
      <point x="486" y="0" type="line"/>
      <point x="233" y="389" type="line"/>
      <point x="233" y="0" type="line"/>
      <point x="63" y="0" type="line"/>
    </contour>
  </outline>
</glyph>
<glyph name="Otilde" format="2">
  <advance width="774"/>
  <unicode hex="00D5"/>
  <outline>
    <contour>
      <point x="480.5" y="734" type="curve" smooth="yes"/>
      <point x="439.167" y="734"/>
      <point x="409.167" y="746"/>
      <point x="390.5" y="770" type="curve" smooth="yes"/>
      <point x="383.167" y="779.333"/>
      <point x="376.167" y="787.667"/>
      <point x="369.5" y="795" type="curve" smooth="yes"/>
      <point x="362.833" y="802.333"/>
      <point x="353.833" y="806"/>
      <point x="342.5" y="806" type="curve" smooth="yes"/>
      <point x="327.833" y="806"/>
      <point x="317.5" y="793"/>
      <point x="311.5" y="767" type="curve"/>
      <point x="194.5" y="767" type="line"/>
      <point x="197.167" y="809"/>
      <point x="212.5" y="843.667"/>
      <point x="240.5" y="871" type="curve" smooth="yes"/>
      <point x="268.5" y="898.333"/>
      <point x="300.5" y="912"/>
      <point x="336.5" y="912" type="curve" smooth="yes"/>
      <point x="381.167" y="912"/>
      <point x="413.833" y="900"/>
      <point x="434.5" y="876" type="curve" smooth="yes"/>
      <point x="442.5" y="866.667"/>
      <point x="449.5" y="858.333"/>
      <point x="455.5" y="851" type="curve" smooth="yes"/>
      <point x="461.5" y="843.667"/>
      <point x="469.5" y="840"/>
      <point x="479.5" y="840" type="curve" smooth="yes"/>
      <point x="493.5" y="840"/>
      <point x="502.167" y="853"/>
      <point x="505.5" y="879" type="curve"/>
      <point x="622.5" y="879" type="line"/>
      <point x="617.833" y="836.333"/>
      <point x="602.333" y="801.5"/>
      <point x="576" y="774.5" type="curve" smooth="yes"/>
      <point x="549.667" y="747.5"/>
      <point x="517.833" y="734"/>
    </contour>
    <contour>
      <point x="387" y="541.5" type="curve" smooth="yes"/>
      <point x="334.016" y="541.5"/>
      <point x="288.77" y="522.746"/>
      <point x="251.262" y="485.238" type="curve" smooth="yes"/>
      <point x="213.754" y="447.73"/>
      <point x="195" y="402.484"/>
      <point x="195" y="349.5" type="curve" smooth="yes"/>
      <point x="195" y="296.516"/>
      <point x="213.754" y="251.27"/>
      <point x="251.262" y="213.762" type="curve" smooth="yes"/>
      <point x="288.77" y="176.254"/>
      <point x="334.016" y="157.5"/>
      <point x="387" y="157.5" type="curve" smooth="yes"/>
      <point x="439.984" y="157.5"/>
      <point x="485.23" y="176.254"/>
      <point x="522.738" y="213.762" type="curve" smooth="yes"/>
      <point x="560.246" y="251.27"/>
      <point x="579" y="296.516"/>
      <point x="579" y="349.5" type="curve" smooth="yes"/>
      <point x="579" y="402.484"/>
      <point x="560.246" y="447.73"/>
      <point x="522.738" y="485.238" type="curve" smooth="yes"/>
      <point x="485.23" y="522.746"/>
      <point x="439.984" y="541.5"/>
    </contour>
    <contour>
      <point x="387" y="711.5" type="curve" smooth="yes"/>
      <point x="486.208" y="711.5"/>
      <point x="570.921" y="677"/>
      <point x="641.141" y="608" type="curve" smooth="yes"/>
      <point x="713.047" y="537.342"/>
      <point x="749" y="451.176"/>
      <point x="749" y="349.5" type="curve" smooth="yes"/>
      <point x="749" y="246.343"/>
      <point x="712.167" y="159.321"/>
      <point x="638.5" y="88.4326" type="curve" smooth="yes"/>
      <point x="568.575" y="21.1442"/>
      <point x="484.742" y="-12.5"/>
      <point x="387" y="-12.5" type="curve" smooth="yes"/>
      <point x="285.324" y="-12.5"/>
      <point x="199.158" y="23.4531"/>
      <point x="128.5" y="95.3594" type="curve" smooth="yes"/>
      <point x="59.5" y="165.579"/>
      <point x="25" y="250.292"/>
      <point x="25" y="349.5" type="curve" smooth="yes"/>
      <point x="25" y="448.91"/>
      <point x="59.6178" y="533.743"/>
      <point x="128.854" y="604" type="curve" smooth="yes"/>
      <point x="199.478" y="675.667"/>
      <point x="285.527" y="711.5"/>
    </contour>
  </outline>
</glyph>
<glyph name="multiply" format="2">
  <advance width="640"/>
  <unicode hex="00D7"/>
  <outline>
    <contour>
      <point x="209.604" y="67.3955" type="line"/>
      <point x="89.3955" y="187.604" type="line"/>
      <point x="199.791" y="298" type="line"/>
      <point x="89.3955" y="408.396" type="line"/>
      <point x="209.604" y="528.604" type="line"/>
      <point x="320" y="418.209" type="line"/>
      <point x="430.396" y="528.604" type="line"/>
      <point x="550.604" y="408.396" type="line"/>
      <point x="440.209" y="298" type="line"/>
      <point x="550.604" y="187.604" type="line"/>
      <point x="430.396" y="67.3955" type="line"/>
      <point x="320" y="177.791" type="line"/>
    </contour>
  </outline>
</glyph>
<glyph name="Uacute" format="2">
  <advance width="700"/>
  <unicode hex="00DA"/>
  <outline>
    <contour>
      <point x="263" y="723.5" type="line"/>
      <point x="369" y="870.5" type="line"/>
      <point x="565" y="870.5" type="line"/>
      <point x="439" y="723.5" type="line"/>
    </contour>
    <contour>
      <point x="50" y="700" type="line"/>
      <point x="220" y="700" type="line"/>
      <point x="220" y="318" type="line" smooth="yes"/>
      <point x="220" y="269.333"/>
      <point x="232.5" y="230.5"/>
      <point x="257.5" y="201.5" type="curve" smooth="yes"/>
      <point x="282.5" y="172.5"/>
      <point x="313.333" y="158"/>
      <point x="350" y="158" type="curve" smooth="yes"/>
      <point x="386.667" y="158"/>
      <point x="417.5" y="172.5"/>
      <point x="442.5" y="201.5" type="curve" smooth="yes"/>
      <point x="467.5" y="230.5"/>
      <point x="480" y="269.333"/>
      <point x="480" y="318" type="curve" smooth="yes"/>
      <point x="480" y="700" type="line"/>
      <point x="650" y="700" type="line"/>
      <point x="650" y="318" type="line" smooth="yes"/>
      <point x="650" y="222"/>
      <point x="621" y="143"/>
      <point x="563" y="81" type="curve" smooth="yes"/>
      <point x="505" y="19"/>
      <point x="434" y="-12"/>
      <point x="350" y="-12" type="curve" smooth="yes"/>
      <point x="266" y="-12"/>
      <point x="195" y="19"/>
      <point x="137" y="81" type="curve" smooth="yes"/>
      <point x="79" y="143"/>
      <point x="50" y="222"/>
      <point x="50" y="318" type="curve" smooth="yes"/>
    </contour>
  </outline>
</glyph>
<glyph name="Ucircumflex" format="2">
  <advance width="706"/>
  <unicode hex="00DB"/>
  <outline>
    <contour>
      <point x="123.246" y="754" type="line"/>
      <point x="253.554" y="900" type="line"/>
      <point x="420.446" y="900" type="line"/>
      <point x="550.754" y="754" type="line"/>
      <point x="385.998" y="754" type="line"/>
      <point x="337" y="806.01" type="line"/>
      <point x="288.002" y="754" type="line"/>
    </contour>
    <contour>
      <point x="53" y="700" type="line"/>
      <point x="223" y="700" type="line"/>
      <point x="223" y="318" type="line" smooth="yes"/>
      <point x="223" y="269.333"/>
      <point x="235.5" y="230.5"/>
      <point x="260.5" y="201.5" type="curve" smooth="yes"/>
      <point x="285.5" y="172.5"/>
      <point x="316.333" y="158"/>
      <point x="353" y="158" type="curve" smooth="yes"/>
      <point x="389.667" y="158"/>
      <point x="420.5" y="172.5"/>
      <point x="445.5" y="201.5" type="curve" smooth="yes"/>
      <point x="470.5" y="230.5"/>
      <point x="483" y="269.333"/>
      <point x="483" y="318" type="curve" smooth="yes"/>
      <point x="483" y="700" type="line"/>
      <point x="653" y="700" type="line"/>
      <point x="653" y="318" type="line" smooth="yes"/>
      <point x="653" y="222"/>
      <point x="624" y="143"/>
      <point x="566" y="81" type="curve" smooth="yes"/>
      <point x="508" y="19"/>
      <point x="437" y="-12"/>
      <point x="353" y="-12" type="curve" smooth="yes"/>
      <point x="269" y="-12"/>
      <point x="198" y="19"/>
      <point x="140" y="81" type="curve" smooth="yes"/>
      <point x="82" y="143"/>
      <point x="53" y="222"/>
      <point x="53" y="318" type="curve" smooth="yes"/>
    </contour>
  </outline>
</glyph>
